<svg width="11" height="10" viewBox="0 0 11 10" fill="none" xmlns="http://www.w3.org/2000/svg">
<path d="M4.42483 8.92797C4.42483 9.51128 4.8977 9.98415 5.48101 9.98415V9.98415C6.06432 9.98415 6.53719 9.51128 6.53719 8.92797V8.21459C6.53719 7.23729 7.32945 6.44503 8.30675 6.44503H9.06645C9.63441 6.44503 10.0948 5.98461 10.0948 5.41665V5.41665C10.0948 4.84869 9.63441 4.38826 9.06645 4.38826H8.29748C7.3253 4.38826 6.53719 3.60015 6.53719 2.62797V1.92385C6.53719 1.34054 6.06432 0.867676 5.48101 0.867676V0.867676C4.8977 0.867676 4.42483 1.34054 4.42483 1.92385V2.62797C4.42483 3.60015 3.63672 4.38826 2.66454 4.38826H1.89557C1.32761 4.38826 0.867188 4.84869 0.867188 5.41665V5.41665C0.867188 5.98461 1.32761 6.44503 1.89557 6.44503H2.65528C3.63258 6.44503 4.42483 7.23729 4.42483 8.21459V8.92797Z" fill="#F5F6F7"/>
</svg>
