<svg width="41" height="28" viewBox="0 0 41 28" fill="none" xmlns="http://www.w3.org/2000/svg">
<path d="M39.8603 20.4995C39.2965 23.7465 31.1528 27.0626 20.4114 27.0626C9.67015 27.0626 0.962601 23.9695 0.962601 20.1541C0.680706 14.6273 1.24447 14.0746 20.4114 13.2456C31.1528 13.2456 41.6924 12.9001 39.8603 20.4995Z" fill="url(#paint0_linear)"/>
<ellipse cx="20.4117" cy="17.9434" rx="19.4488" ry="6.90851" fill="url(#paint1_linear)"/>
<ellipse cx="20.4108" cy="17.9434" rx="16.3483" ry="5.80315" fill="url(#paint2_linear)"/>
<g clip-path="url(#clip0)">
<path d="M23.3119 16.4245C23.2683 16.3769 23.2235 16.3302 23.1748 16.2854C23.1554 16.3017 23.1348 16.3191 23.1101 16.339C23.0809 16.3625 23.0487 16.3883 23.0138 16.4166C22.5091 16.8228 21.7745 17.0167 21.0349 17.1174C21.0165 17.1199 20.9977 17.1214 20.9791 17.1234C21.0263 17.1851 21.0555 17.254 21.0555 17.3284C21.0555 17.5727 20.7671 17.7714 20.4125 17.7714C20.058 17.7714 19.7696 17.5727 19.7696 17.3284C19.7696 17.254 19.7988 17.1849 19.8462 17.1233C19.8276 17.1211 19.8088 17.1198 19.7904 17.1173C19.0988 17.0661 18.4413 16.8192 17.9371 16.4968C17.8914 16.4676 17.8487 16.4402 17.8093 16.415C17.7749 16.3871 17.7433 16.3616 17.7148 16.3386C17.7089 16.3338 17.7048 16.3303 17.6991 16.3256C17.6847 16.3937 17.6577 16.4657 17.6494 16.5051C17.5821 16.8221 17.5108 17.1414 17.5301 17.4628C17.539 17.6128 17.5663 17.7633 17.6369 17.9059C17.656 17.9442 17.6775 17.982 17.6995 18.0198C17.7653 18.1321 17.8356 18.2437 17.8538 18.3655C17.9069 18.7241 17.4514 19.0452 16.9356 19.0452C16.7179 19.0452 16.5157 18.9839 16.3443 18.8907C16.2601 19.563 16.4543 20.2072 17.236 20.6121C17.2364 20.6121 17.4533 20.7068 17.8705 20.7068C18.1679 20.7068 18.4939 20.6573 18.839 20.5643C18.908 20.5458 18.7683 20.2872 18.748 20.2592C18.642 20.1153 18.4472 19.991 18.2299 19.9292C18.1859 19.9166 18.1444 19.905 18.1062 19.8939C18.0679 19.8808 18.0294 19.8792 17.9964 19.8733C17.9627 19.8685 17.9333 19.8643 17.9092 19.8607C17.8601 19.8537 17.8322 19.8496 17.8322 19.8496C17.8322 19.8496 17.8605 19.849 17.9103 19.8481C17.9354 19.8477 17.9661 19.8471 18.0012 19.8465C18.0363 19.8471 18.0776 19.8423 18.1199 19.8493C18.6067 19.9289 19.0975 20.1079 19.2215 20.4725C19.2293 20.4956 19.2361 20.516 19.2418 20.5328C19.2435 20.5378 19.2441 20.5399 19.2456 20.544C19.5631 20.5631 20.1136 20.593 20.4121 20.593C20.6135 20.593 20.8149 20.5837 21.0157 20.5742C21.143 20.5682 21.4375 20.5953 21.5463 20.5466C21.6083 20.5188 21.603 20.4647 21.6269 20.4155C21.6804 20.3048 21.7735 20.1996 21.89 20.1149C22.1293 19.9419 22.4769 19.8405 22.823 19.8465C22.8581 19.8471 22.8886 19.8477 22.914 19.8481C22.9635 19.849 22.992 19.8496 22.992 19.8496C22.992 19.8496 22.9639 19.8537 22.915 19.8607C22.8909 19.8642 22.8615 19.8685 22.8279 19.8733C22.7949 19.8793 22.7564 19.8808 22.7181 19.8939C22.6796 19.905 22.6379 19.9166 22.5941 19.9292C22.5495 19.9392 22.5074 19.9577 22.4655 19.9776C22.424 19.9978 22.3773 20.0134 22.3383 20.0378C22.3007 20.0624 22.263 20.0875 22.2247 20.1126C22.1864 20.1365 22.1632 20.1698 22.1323 20.1965L22.09 20.2375L22.062 20.2828C22.0455 20.3124 22.0218 20.3398 22.0132 20.3656C22.0075 20.3916 22.0011 20.4144 21.9946 20.4351C21.9908 20.4453 21.9876 20.455 21.9842 20.4641C21.9842 20.4776 21.9842 20.4904 21.9846 20.5023C21.9846 20.5262 21.9846 20.5471 21.985 20.5643C22.3301 20.6573 22.6561 20.7068 22.9535 20.7068C23.3735 20.7068 23.5907 20.6106 23.5927 20.6095C25.51 19.6172 23.8821 17.1795 23.3119 16.4245ZM20.4119 19.9006C19.6567 19.9006 19.0423 19.4774 19.0423 18.9569C19.0423 18.4367 19.6569 18.0132 20.4119 18.0132C21.167 18.0132 21.7815 18.4365 21.7815 18.9569C21.7815 19.4774 21.167 19.9006 20.4119 19.9006Z" fill="url(#paint3_linear)"/>
<path d="M20.4126 18.0817C19.7908 18.0817 19.2852 18.4535 19.2852 18.9107C19.2852 19.3679 19.791 19.7397 20.4126 19.7397C21.0344 19.7397 21.5401 19.3679 21.5401 18.9107C21.5401 18.4535 21.0344 18.0817 20.4126 18.0817ZM20.4188 18.4771C20.5782 18.5022 20.6973 18.4533 20.8021 18.3715C20.845 18.3381 20.9313 18.3313 20.9877 18.3514C21.0412 18.3703 21.054 18.4312 21.0048 18.4691C20.9768 18.4907 20.9366 18.5104 20.8977 18.5163C20.7906 18.5328 20.6979 18.5695 20.6062 18.6101C20.5935 18.6157 20.5797 18.6201 20.5657 18.6245C20.5426 18.6313 20.4635 18.634 20.4139 18.6004C20.384 18.5801 20.365 18.5528 20.362 18.5212C20.3591 18.4925 20.3751 18.4704 20.4188 18.4771ZM20.0654 18.3432C20.129 18.3597 20.1931 18.3783 20.2501 18.4042C20.2656 18.4112 20.2769 18.4229 20.2874 18.4356C20.3037 18.4554 20.3158 18.5031 20.2835 18.528C20.2647 18.5424 20.2392 18.5487 20.2058 18.5472C20.0835 18.5416 19.9962 18.4739 19.9957 18.3843C19.9955 18.3484 20.0198 18.3314 20.0654 18.3432ZM21.1743 19.3052C21.062 19.4109 20.7195 19.5071 20.496 19.4258C20.3263 19.3641 20.2629 19.2006 20.3706 19.0859C20.3753 19.0808 20.3776 19.0744 20.3795 19.0677C20.3821 19.0573 20.3729 19.0468 20.3589 19.0449C20.3504 19.0437 20.342 19.0421 20.3337 19.0405C20.3004 19.0331 20.267 19.0256 20.2347 19.0161C20.2143 19.0102 20.1943 19.0038 20.1743 18.9973C20.1412 18.9866 20.1138 18.9772 20.1131 18.9766C20.1123 18.976 20.1375 18.9588 20.1416 18.9313C20.1455 18.904 20.074 18.8946 20.0637 18.918C20.0596 18.9275 20.0693 18.9381 20.0913 18.9555C20.0952 18.9585 20.0987 18.962 20.102 18.9654C20.1074 18.9713 20.1119 18.9764 20.1129 18.9769C20.114 18.9772 20.1636 19.0035 20.1892 19.0509C20.204 19.0786 20.2091 19.1092 20.2065 19.1421C20.2054 19.155 20.2046 19.168 20.2007 19.1804C20.1807 19.2442 20.1871 19.3073 20.2029 19.3711C20.2135 19.4133 20.1883 19.4474 20.137 19.4679C20.0956 19.4845 20.0516 19.4903 20.0112 19.4656C19.9644 19.4371 19.9451 19.3664 19.9669 19.3229C19.9848 19.2873 20.0108 19.2504 20.011 19.214C20.0112 19.1492 19.9955 19.0842 19.9826 19.0197C19.9813 19.0135 19.9469 19.0035 19.9356 19.0073C19.9062 19.0172 19.8814 19.0349 19.8538 19.0482C19.797 19.0755 19.7395 19.1023 19.6816 19.1286C19.6705 19.1336 19.6557 19.1379 19.6431 19.1371C19.6236 19.1359 19.5912 19.1332 19.5881 19.1257C19.582 19.1124 19.5879 19.0897 19.6013 19.0812C19.6825 19.03 19.7723 18.9858 19.8489 18.9314C19.893 18.9004 19.9344 18.8669 19.9751 18.8331C20.0425 18.7771 20.094 18.7294 20.0907 18.7268C20.0874 18.7243 20.054 18.7318 20.0163 18.7436C19.9935 18.7508 19.9706 18.7577 19.9473 18.7638C19.8271 18.7956 19.7348 18.7659 19.6917 18.6831C19.6693 18.6399 19.688 18.5936 19.7393 18.5695C19.7885 18.5465 19.8254 18.5637 19.8637 18.5889C19.9249 18.629 19.997 18.6316 20.0711 18.611C20.1129 18.5993 20.1529 18.5843 20.1943 18.5719C20.2536 18.5539 20.2901 18.5607 20.3247 18.6002C20.3453 18.6237 20.356 18.6522 20.3749 18.6767C20.3865 18.6918 20.4023 18.7082 20.4221 18.7149C20.432 18.718 20.4546 18.7009 20.4715 18.6934C20.5072 18.6773 20.5409 18.6561 20.5797 18.6476C20.5999 18.6432 20.6456 18.6582 20.6505 18.6708C20.6588 18.6914 20.6513 18.7208 20.6353 18.7392C20.6042 18.775 20.6089 18.8057 20.6627 18.815C20.703 18.8219 20.7465 18.8259 20.7873 18.8225C20.8662 18.8162 20.8983 18.7689 20.8639 18.7162C20.8513 18.697 20.8336 18.6796 20.8192 18.661C20.7918 18.6261 20.8068 18.6026 20.861 18.6064C20.9965 18.6158 21.1214 18.6788 21.0682 18.8062C21.0406 18.8727 20.9729 18.9127 20.8833 18.9316C20.8497 18.939 20.8149 18.9431 20.7803 18.9473C20.7109 18.9561 20.6592 18.9979 20.6456 19.0491C20.6421 19.0621 20.6355 19.0749 20.6279 19.0874C20.6155 19.1079 20.6318 19.1489 20.6658 19.1395C20.6789 19.136 20.6857 19.1224 20.6921 19.097C20.6991 19.0694 20.7096 19.0412 20.7263 19.0161C20.7333 19.0055 20.7609 18.9969 20.7784 18.9973C20.7922 18.9978 20.811 19.012 20.8171 19.0232C20.827 19.0414 20.8334 19.0621 20.832 19.0815C20.8293 19.1201 20.8561 19.1288 20.9004 19.1267C20.9234 19.1253 20.9477 19.1233 20.9698 19.127C20.9865 19.13 21.0128 19.1415 21.0128 19.1491C21.0128 19.1615 20.9982 19.1777 20.9834 19.1851C20.9599 19.1972 20.9319 19.2078 20.9041 19.211C20.8627 19.2152 20.8536 19.2322 20.8435 19.2584C20.8336 19.2842 20.8134 19.312 20.7863 19.3288C20.742 19.3564 20.6964 19.3437 20.6859 19.296C20.6752 19.2466 20.6437 19.2361 20.5854 19.2404C20.5753 19.2413 20.565 19.2401 20.5545 19.2387C20.5376 19.2363 20.5113 19.2701 20.5432 19.3013C20.5607 19.3185 20.5883 19.3317 20.6235 19.3375C20.7764 19.3625 20.9179 19.345 21.032 19.2592C21.1277 19.1872 21.0901 19.0752 20.9595 19.04C20.9302 19.0323 20.8979 19.03 20.8707 19.0196C20.8548 19.0137 20.8388 18.9975 20.8377 18.9849C20.8369 18.9763 20.8606 18.9657 20.8748 18.9573C20.8802 18.9542 20.8894 18.9538 20.8971 18.9531C20.9877 18.9429 21.1628 19.0023 21.2081 19.0582C21.2627 19.1259 21.2468 19.2372 21.1743 19.3052Z" fill="url(#paint4_linear)"/>
<path d="M20.5124 18.9741C20.5196 18.9739 20.5265 18.9727 20.5336 18.9713C20.5451 18.9694 20.5541 18.9631 20.5533 18.9576C20.5525 18.9522 20.5114 18.9343 20.4614 18.9176C20.4113 18.9009 20.3896 18.9167 20.3674 18.9395C20.3562 18.9511 20.3363 18.9572 20.3148 18.9642C20.2954 18.9706 20.2821 18.9984 20.2719 19.0184C20.2686 19.0252 20.2859 19.0497 20.2882 19.0488C20.3084 19.0438 20.3355 19.0387 20.3439 19.025C20.3845 18.9595 20.4509 18.976 20.5124 18.9741Z" fill="url(#paint5_linear)"/>
<path d="M17.8109 16.2568C17.8465 16.2744 17.886 16.2938 17.9291 16.315C17.9736 16.333 18.0216 16.3525 18.073 16.3734C18.9305 16.7219 19.8804 16.8946 20.8681 16.8216C21.1518 16.8006 21.4334 16.7568 21.7047 16.6933C22.1653 16.5855 22.6034 16.4516 23.0058 16.2564C23.037 16.2412 23.0643 16.2282 23.0899 16.2161C22.9734 16.1097 22.8453 16.01 22.6922 15.9234C22.5499 15.8431 22.4043 15.7651 22.298 15.6587C22.0046 15.3648 22.1379 14.9407 22.5343 14.7328C22.5306 14.727 22.5272 14.7213 22.5235 14.7155C22.2691 14.3105 21.9609 14.0747 21.692 14.0747C21.5882 14.0747 21.4821 14.1084 21.3767 14.1747C21.1023 14.3472 20.7581 14.4423 20.4081 14.4423C20.058 14.4423 19.714 14.3472 19.4397 14.1747C19.3342 14.1084 19.2281 14.0747 19.1244 14.0747C18.8515 14.0747 18.5505 14.3045 18.2989 14.7052C18.0118 15.1625 17.7477 15.5836 17.7477 16.1188C17.7477 16.1312 17.7425 16.143 17.7344 16.1538C17.7456 16.1728 17.7494 16.1977 17.7479 16.2266C17.7683 16.2363 17.7874 16.2455 17.8109 16.2568ZM19.0468 16.0845C18.9989 16.1008 18.934 16.1187 18.8667 16.1284C18.7997 16.1389 18.7302 16.1415 18.6772 16.1403C18.6241 16.1391 18.5871 16.1324 18.5871 16.1324C18.5871 16.1324 18.6173 16.1155 18.6651 16.0991C18.713 16.0827 18.7779 16.065 18.8452 16.0553C18.9122 16.0447 18.9817 16.0425 19.0347 16.0434C19.0878 16.0446 19.1248 16.0511 19.1248 16.0511C19.1248 16.0511 19.0944 16.0681 19.0468 16.0845ZM22.1393 16.1403C22.0865 16.1415 22.0171 16.1389 21.9501 16.1284C21.8827 16.1187 21.8176 16.1006 21.77 16.0845C21.7223 16.0681 21.692 16.0514 21.692 16.0514C21.692 16.0514 21.7292 16.0449 21.782 16.0437C21.8349 16.0426 21.9047 16.045 21.9717 16.0556C22.0389 16.0653 22.1038 16.083 22.1516 16.0994C22.1995 16.1158 22.2296 16.1327 22.2296 16.1327C22.2296 16.1327 22.1924 16.1391 22.1393 16.1403ZM22.3536 15.8915C22.4345 15.9005 22.4881 15.9124 22.4881 15.9124C22.4881 15.9124 22.4343 15.9243 22.3536 15.9332C22.2729 15.942 22.1656 15.9501 22.0576 15.9496C21.9501 15.9501 21.8426 15.9423 21.7616 15.9334C21.6809 15.9245 21.6273 15.9124 21.6273 15.9124C21.6273 15.9124 21.6812 15.9003 21.7616 15.8914C21.8426 15.8824 21.9499 15.8747 22.0576 15.8751C22.1653 15.8747 22.2729 15.8827 22.3536 15.8915ZM21.6271 15.7761C21.6271 15.7761 21.6599 15.7644 21.7076 15.7538C21.7552 15.7434 21.8172 15.7322 21.8785 15.7253C21.9399 15.7179 22.0017 15.7144 22.046 15.7085C22.0676 15.705 22.0865 15.7024 22.0963 15.6977C22.1082 15.6943 22.1117 15.6849 22.1121 15.6863C22.11 15.6869 22.119 15.6913 22.1138 15.7047C22.1082 15.7171 22.095 15.7343 22.0724 15.7457C22.0289 15.7712 21.9632 15.7915 21.8956 15.7988C21.8284 15.8071 21.7602 15.8031 21.7099 15.7957C21.6597 15.7885 21.6271 15.7761 21.6271 15.7761ZM21.3222 14.5278C21.3873 14.445 21.4908 14.3442 21.6317 14.3306C21.7658 14.3178 21.8925 14.377 21.974 14.4485C22.0073 14.4776 22.1161 14.5986 22.1543 14.6727C22.2359 14.8292 22.0272 14.7696 21.9143 14.7302C21.7689 14.6796 21.6356 14.663 21.4796 14.6393C21.3669 14.6223 21.272 14.5918 21.3222 14.5278ZM21.0198 15.4289C21.1059 15.3408 21.2344 15.282 21.3823 15.2634C21.5297 15.2442 21.6784 15.2683 21.8016 15.3299C21.8369 15.3476 21.8455 15.3825 21.8209 15.4077C21.796 15.433 21.7473 15.4391 21.7124 15.4215C21.5295 15.3294 21.276 15.3618 21.1481 15.4929C21.1331 15.5084 21.1088 15.5168 21.084 15.5168C21.0686 15.5168 21.053 15.5137 21.0393 15.5068C21.0035 15.4889 20.995 15.454 21.0198 15.4289ZM20.0046 16.1373C20.1079 16.1097 20.2053 16.0696 20.2851 16.0149C20.37 15.9568 20.4108 15.8908 20.4544 15.8147C20.4569 15.8098 20.4588 15.8068 20.4607 15.8034C20.3658 15.8004 20.2897 15.7419 20.2897 15.7068C20.2897 15.6709 20.3694 15.6417 20.4678 15.6417C20.5661 15.6417 20.6458 15.6709 20.6458 15.7068C20.6458 15.7419 20.5697 15.8004 20.4748 15.8034C20.4767 15.8068 20.4786 15.8098 20.4811 15.8147C20.4892 15.8288 20.4967 15.8525 20.5127 15.8742C20.6152 16.0133 20.7722 16.0813 20.9634 16.1468C20.9634 16.1468 20.9513 16.1492 20.9295 16.1516C20.9081 16.1518 20.8742 16.1611 20.8363 16.1555C20.7987 16.1503 20.7502 16.1488 20.7063 16.1313C20.6 16.089 20.4946 16.0191 20.4678 15.9307C20.479 15.9674 20.3983 16.037 20.3673 16.0613C20.292 16.1203 20.2051 16.141 20.0992 16.1555C20.0611 16.1611 20.0272 16.1518 20.006 16.1516C19.984 16.1492 19.9721 16.1468 19.9721 16.1468C19.9721 16.1468 19.9842 16.1428 20.0046 16.1373ZM19.7937 15.4289C19.8182 15.454 19.8097 15.4889 19.7743 15.5067C19.7608 15.5134 19.745 15.5166 19.7296 15.5166C19.7051 15.5166 19.6809 15.5083 19.6655 15.4928C19.5376 15.3616 19.2847 15.3293 19.1013 15.4214C19.0659 15.4387 19.0177 15.433 18.9927 15.4075C18.9682 15.3822 18.9767 15.3475 19.012 15.3297C19.1348 15.268 19.2835 15.244 19.4313 15.2633C19.579 15.2819 19.7076 15.3408 19.7937 15.4289ZM19.1893 15.7761C19.1893 15.7761 19.1568 15.7885 19.1065 15.7957C19.0563 15.803 18.9881 15.8071 18.9209 15.7988C18.8538 15.7915 18.7876 15.7712 18.7442 15.7457C18.7215 15.7343 18.7084 15.7171 18.7026 15.7047C18.6972 15.6913 18.7063 15.6869 18.7042 15.6863C18.7048 15.6851 18.7084 15.6943 18.7202 15.6977C18.73 15.7024 18.7489 15.705 18.7706 15.7085C18.8147 15.7144 18.8764 15.7179 18.9378 15.7253C18.9994 15.7322 19.0613 15.7434 19.109 15.7538C19.1566 15.7645 19.1893 15.7761 19.1893 15.7761ZM18.6622 14.6727C18.7009 14.5986 18.8093 14.4776 18.8425 14.4485C18.9243 14.377 19.0511 14.3178 19.1851 14.3306C19.3261 14.3442 19.4295 14.4448 19.4946 14.5278C19.5447 14.5918 19.4501 14.6222 19.3369 14.6393C19.1809 14.663 19.0476 14.6796 18.902 14.7302C18.7893 14.7697 18.5807 14.8292 18.6622 14.6727ZM18.463 15.8915C18.5437 15.8827 18.6512 15.8748 18.7589 15.8751C18.8665 15.8747 18.9742 15.8824 19.0549 15.8914C19.1356 15.9003 19.1895 15.9124 19.1895 15.9124C19.1895 15.9124 19.1356 15.9243 19.0549 15.9334C18.9742 15.9423 18.8667 15.9501 18.7589 15.9496C18.6514 15.9501 18.5437 15.942 18.463 15.9332C18.3823 15.9243 18.3284 15.9124 18.3284 15.9124C18.3284 15.9124 18.3823 15.9005 18.463 15.8915Z" fill="url(#paint6_linear)"/>
<path d="M22.5118 15.5853C22.7522 15.8191 23.1434 15.96 23.3892 16.1953C23.7228 16.5151 23.9481 16.9016 24.1397 17.2717C24.1529 17.2971 24.1659 17.3223 24.1787 17.3482C24.1823 17.3552 24.1857 17.3635 24.1907 17.3742C24.1973 17.3884 24.2128 17.3958 24.2195 17.3871C24.2233 17.3825 24.2269 17.3769 24.2303 17.3708C24.2361 17.3604 24.2421 17.3494 24.2483 17.3375C24.2544 17.3255 24.26 17.3149 24.2647 17.3062C24.3344 17.18 24.3856 17.0306 24.4255 16.8363C24.4486 16.7234 24.4633 16.6096 24.4744 16.5132C24.507 16.2299 24.5324 15.8129 24.3737 15.4647C24.2843 15.2683 24.1002 15.0692 23.9048 14.9578C23.5643 14.7635 23.0444 14.6786 22.6886 14.8856C22.3936 15.0586 22.2726 15.3532 22.5118 15.5853Z" fill="url(#paint7_linear)"/>
<path d="M20.4834 16.9763C20.3728 16.9763 20.2753 17.0172 20.2105 17.08C20.1616 17.1274 20.1309 17.1871 20.1309 17.2527C20.1309 17.405 20.289 17.529 20.4832 17.529C20.6774 17.529 20.8355 17.405 20.8355 17.2527C20.8355 17.1871 20.8049 17.1276 20.756 17.0801C20.6916 17.0174 20.594 16.9763 20.4834 16.9763Z" fill="url(#paint8_linear)"/>
<path d="M16.8318 18.9106C17.0036 18.9106 17.1722 18.8463 17.2948 18.7344C17.4108 18.6286 17.4656 18.4983 17.4496 18.3679C17.4377 18.2722 17.3908 18.1768 17.341 18.0758L17.3273 18.0481C17.3068 18.006 17.2867 17.964 17.2691 17.9213C17.2089 17.7754 17.176 17.6146 17.1663 17.4152C17.1498 17.0847 17.2061 16.7589 17.2621 16.4434C17.2632 16.437 17.2643 16.4306 17.2654 16.4242L17.2723 16.3858C17.2758 16.3655 17.2828 16.338 17.2911 16.3066C17.2924 16.302 17.2937 16.2967 17.2952 16.2909C17.2974 16.2822 17.2845 16.2839 17.2669 16.2956C17.2564 16.3026 17.2459 16.3099 17.2353 16.3171C17.1675 16.3631 17.1016 16.4154 17.0379 16.472C16.8815 16.6112 16.7383 16.7736 16.6177 16.9189C16.4277 17.1482 16.1644 17.4933 16.0733 17.8415C16.0221 18.0368 16.0365 18.2655 16.1101 18.4243C16.1291 18.4653 16.1544 18.5058 16.1826 18.5457C16.205 18.5774 16.2301 18.608 16.2576 18.6378C16.2833 18.6655 16.3108 18.6915 16.3404 18.7165C16.4748 18.8299 16.6458 18.9106 16.8318 18.9106Z" fill="url(#paint9_linear)"/>
</g>
<path d="M11.2527 16.6998L11.7273 17.5591H13.2632L12.0206 18.0901L12.4953 18.9494L11.2527 18.4183L10.0101 18.9494L10.4847 18.0901L9.24214 17.5591H10.7781L11.2527 16.6998Z" fill="url(#paint10_linear)"/>
<path d="M29.7136 16.6998L30.1882 17.5591H31.7242L30.4816 18.0901L30.9562 18.9494L29.7136 18.4183L28.471 18.9494L28.9457 18.0901L27.7031 17.5591H29.239L29.7136 16.6998Z" fill="url(#paint11_linear)"/>
<path d="M39.8603 16.8213C39.2965 20.0683 31.1528 23.3844 20.4114 23.3844C9.67015 23.3844 0.962601 20.2913 0.962601 16.4759C0.680706 10.949 1.24447 10.3964 20.4114 9.56734C31.1528 9.56734 41.6924 9.22191 39.8603 16.8213Z" fill="url(#paint12_linear)"/>
<ellipse cx="20.4117" cy="14.2652" rx="19.4488" ry="6.90851" fill="url(#paint13_linear)"/>
<ellipse cx="20.4108" cy="14.2652" rx="16.3483" ry="5.80315" fill="url(#paint14_linear)"/>
<g clip-path="url(#clip1)">
<path d="M23.3119 12.7462C23.2683 12.6987 23.2235 12.6519 23.1748 12.6072C23.1554 12.6235 23.1348 12.6409 23.1101 12.6608C23.0809 12.6843 23.0487 12.7101 23.0138 12.7384C22.5091 13.1446 21.7745 13.3385 21.0349 13.4392C21.0165 13.4417 20.9977 13.4432 20.9791 13.4452C21.0263 13.5069 21.0555 13.5758 21.0555 13.6502C21.0555 13.8945 20.7671 14.0931 20.4125 14.0931C20.058 14.0931 19.7696 13.8945 19.7696 13.6502C19.7696 13.5758 19.7988 13.5067 19.8462 13.4451C19.8276 13.4429 19.8088 13.4416 19.7904 13.4391C19.0988 13.3879 18.4413 13.141 17.9371 12.8185C17.8914 12.7894 17.8487 12.762 17.8093 12.7368C17.7749 12.7089 17.7433 12.6834 17.7148 12.6604C17.7089 12.6556 17.7048 12.6521 17.6991 12.6474C17.6847 12.7155 17.6577 12.7875 17.6494 12.8269C17.5821 13.1439 17.5108 13.4631 17.5301 13.7845C17.539 13.9345 17.5663 14.0851 17.6369 14.2277C17.656 14.266 17.6775 14.3038 17.6995 14.3415C17.7653 14.4539 17.8356 14.5654 17.8538 14.6873C17.9069 15.0459 17.4514 15.367 16.9356 15.367C16.7179 15.367 16.5157 15.3056 16.3443 15.2125C16.2601 15.8848 16.4543 16.5289 17.236 16.9339C17.2364 16.9339 17.4533 17.0286 17.8705 17.0286C18.1679 17.0286 18.4939 16.9791 18.839 16.8861C18.908 16.8676 18.7683 16.609 18.748 16.581C18.642 16.4371 18.4472 16.3128 18.2299 16.251C18.1859 16.2384 18.1444 16.2268 18.1062 16.2157C18.0679 16.2026 18.0294 16.201 17.9964 16.1951C17.9627 16.1903 17.9333 16.1861 17.9092 16.1824C17.8601 16.1754 17.8322 16.1714 17.8322 16.1714C17.8322 16.1714 17.8605 16.1708 17.9103 16.1699C17.9354 16.1695 17.9661 16.1689 18.0012 16.1683C18.0363 16.1689 18.0776 16.1641 18.1199 16.1711C18.6067 16.2507 19.0975 16.4297 19.2215 16.7942C19.2293 16.8174 19.2361 16.8378 19.2418 16.8546C19.2435 16.8595 19.2441 16.8617 19.2456 16.8658C19.5631 16.8849 20.1136 16.9148 20.4121 16.9148C20.6135 16.9148 20.8149 16.9055 21.0157 16.896C21.143 16.89 21.4375 16.9171 21.5463 16.8684C21.6083 16.8406 21.603 16.7865 21.6269 16.7372C21.6804 16.6266 21.7735 16.5214 21.89 16.4367C22.1293 16.2636 22.4769 16.1623 22.823 16.1683C22.8581 16.1689 22.8886 16.1695 22.914 16.1699C22.9635 16.1708 22.992 16.1714 22.992 16.1714C22.992 16.1714 22.9639 16.1754 22.915 16.1824C22.8909 16.1859 22.8615 16.1903 22.8279 16.1951C22.7949 16.2011 22.7564 16.2026 22.7181 16.2157C22.6796 16.2268 22.6379 16.2384 22.5941 16.251C22.5495 16.261 22.5074 16.2795 22.4655 16.2993C22.424 16.3196 22.3773 16.3352 22.3383 16.3595C22.3007 16.3842 22.263 16.4093 22.2247 16.4343C22.1864 16.4582 22.1632 16.4916 22.1323 16.5183L22.09 16.5593L22.062 16.6046C22.0455 16.6342 22.0218 16.6616 22.0132 16.6874C22.0075 16.7133 22.0011 16.7362 21.9946 16.7569C21.9908 16.7671 21.9876 16.7767 21.9842 16.7859C21.9842 16.7993 21.9842 16.8122 21.9846 16.8241C21.9846 16.848 21.9846 16.8689 21.985 16.8861C22.3301 16.9791 22.6561 17.0286 22.9535 17.0286C23.3735 17.0286 23.5907 16.9324 23.5927 16.9313C25.51 15.939 23.8821 13.5013 23.3119 12.7462ZM20.4119 16.2224C19.6567 16.2224 19.0423 15.7992 19.0423 15.2787C19.0423 14.7584 19.6569 14.335 20.4119 14.335C21.167 14.335 21.7815 14.7583 21.7815 15.2787C21.7815 15.7992 21.167 16.2224 20.4119 16.2224Z" fill="url(#paint15_linear)"/>
<path d="M20.4126 14.4034C19.7908 14.4034 19.2852 14.7752 19.2852 15.2325C19.2852 15.6897 19.791 16.0615 20.4126 16.0615C21.0344 16.0615 21.5401 15.6897 21.5401 15.2325C21.5401 14.7752 21.0344 14.4034 20.4126 14.4034ZM20.4188 14.7989C20.5782 14.824 20.6973 14.7751 20.8021 14.6933C20.845 14.6598 20.9313 14.653 20.9877 14.6732C21.0412 14.6921 21.054 14.753 21.0048 14.7908C20.9768 14.8125 20.9366 14.8322 20.8977 14.8381C20.7906 14.8546 20.6979 14.8913 20.6062 14.9318C20.5935 14.9374 20.5797 14.9418 20.5657 14.9462C20.5426 14.953 20.4635 14.9558 20.4139 14.9221C20.384 14.9019 20.365 14.8746 20.362 14.8429C20.3591 14.8143 20.3751 14.7922 20.4188 14.7989ZM20.0654 14.665C20.129 14.6815 20.1931 14.7001 20.2501 14.726C20.2656 14.733 20.2769 14.7447 20.2874 14.7574C20.3037 14.7772 20.3158 14.8249 20.2835 14.8498C20.2647 14.8641 20.2392 14.8705 20.2058 14.869C20.0835 14.8634 19.9962 14.7957 19.9957 14.706C19.9955 14.6701 20.0198 14.6532 20.0654 14.665ZM21.1743 15.627C21.062 15.7327 20.7195 15.8289 20.496 15.7475C20.3263 15.6859 20.2629 15.5223 20.3706 15.4077C20.3753 15.4025 20.3776 15.3962 20.3795 15.3895C20.3821 15.3791 20.3729 15.3686 20.3589 15.3666C20.3504 15.3654 20.342 15.3639 20.3337 15.3623C20.3004 15.3548 20.267 15.3474 20.2347 15.3379C20.2143 15.332 20.1943 15.3256 20.1743 15.3191C20.1412 15.3083 20.1138 15.2989 20.1131 15.2983C20.1123 15.2977 20.1375 15.2806 20.1416 15.2531C20.1455 15.2258 20.074 15.2164 20.0637 15.2397C20.0596 15.2493 20.0693 15.2599 20.0913 15.2773C20.0952 15.2803 20.0987 15.2838 20.102 15.2871C20.1074 15.293 20.1119 15.2982 20.1129 15.2986C20.114 15.2989 20.1636 15.3253 20.1892 15.3727C20.204 15.4004 20.2091 15.431 20.2065 15.4639C20.2054 15.4767 20.2046 15.4898 20.2007 15.5022C20.1807 15.566 20.1871 15.6291 20.2029 15.6929C20.2135 15.7351 20.1883 15.7692 20.137 15.7896C20.0956 15.8063 20.0516 15.8121 20.0112 15.7874C19.9644 15.7589 19.9451 15.6882 19.9669 15.6447C19.9848 15.6091 20.0108 15.5722 20.011 15.5358C20.0112 15.471 19.9955 15.406 19.9826 15.3415C19.9813 15.3353 19.9469 15.3253 19.9356 15.3291C19.9062 15.3389 19.8814 15.3567 19.8538 15.37C19.797 15.3972 19.7395 15.424 19.6816 15.4504C19.6705 15.4554 19.6557 15.4596 19.6431 15.4589C19.6236 15.4577 19.5912 15.4549 19.5881 15.4475C19.582 15.4342 19.5879 15.4115 19.6013 15.403C19.6825 15.3518 19.7723 15.3076 19.8489 15.2532C19.893 15.2222 19.9344 15.1887 19.9751 15.1549C20.0425 15.0989 20.094 15.0512 20.0907 15.0486C20.0874 15.046 20.054 15.0536 20.0163 15.0654C19.9935 15.0725 19.9706 15.0795 19.9473 15.0856C19.8271 15.1174 19.7348 15.0877 19.6917 15.0048C19.6693 14.9617 19.688 14.9153 19.7393 14.8913C19.7885 14.8682 19.8254 14.8855 19.8637 14.9106C19.9249 14.9508 19.997 14.9533 20.0711 14.9328C20.1129 14.9211 20.1529 14.9061 20.1943 14.8937C20.2536 14.8757 20.2901 14.8825 20.3247 14.922C20.3453 14.9455 20.356 14.9739 20.3749 14.9985C20.3865 15.0136 20.4023 15.03 20.4221 15.0366C20.432 15.0398 20.4546 15.0227 20.4715 15.0151C20.5072 14.9991 20.5409 14.9779 20.5797 14.9694C20.5999 14.965 20.6456 14.98 20.6505 14.9926C20.6588 15.0132 20.6513 15.0425 20.6353 15.061C20.6042 15.0968 20.6089 15.1275 20.6627 15.1367C20.703 15.1437 20.7465 15.1477 20.7873 15.1443C20.8662 15.138 20.8983 15.0907 20.8639 15.038C20.8513 15.0188 20.8336 15.0014 20.8192 14.9827C20.7918 14.9479 20.8068 14.9244 20.861 14.9282C20.9965 14.9376 21.1214 15.0006 21.0682 15.128C21.0406 15.1945 20.9729 15.2344 20.8833 15.2534C20.8497 15.2608 20.8149 15.2649 20.7803 15.2691C20.7109 15.2779 20.6592 15.3197 20.6456 15.3709C20.6421 15.3839 20.6355 15.3966 20.6279 15.4092C20.6155 15.4296 20.6318 15.4707 20.6658 15.4613C20.6789 15.4578 20.6857 15.4442 20.6921 15.4187C20.6991 15.3912 20.7096 15.363 20.7263 15.3379C20.7333 15.3273 20.7609 15.3186 20.7784 15.3191C20.7922 15.3195 20.811 15.3338 20.8171 15.345C20.827 15.3632 20.8334 15.3839 20.832 15.4033C20.8293 15.4419 20.8561 15.4505 20.9004 15.4484C20.9234 15.4471 20.9477 15.4451 20.9698 15.4487C20.9865 15.4518 21.0128 15.4633 21.0128 15.4708C21.0128 15.4833 20.9982 15.4995 20.9834 15.5069C20.9599 15.519 20.9319 15.5296 20.9041 15.5328C20.8627 15.537 20.8536 15.554 20.8435 15.5802C20.8336 15.6059 20.8134 15.6338 20.7863 15.6506C20.742 15.6782 20.6964 15.6655 20.6859 15.6177C20.6752 15.5684 20.6437 15.5579 20.5854 15.5622C20.5753 15.5631 20.565 15.5619 20.5545 15.5605C20.5376 15.5581 20.5113 15.5918 20.5432 15.623C20.5607 15.6403 20.5883 15.6535 20.6235 15.6592C20.7764 15.6842 20.9179 15.6668 21.032 15.5809C21.1277 15.509 21.0901 15.3969 20.9595 15.3618C20.9302 15.3541 20.8979 15.3518 20.8707 15.3414C20.8548 15.3354 20.8388 15.3192 20.8377 15.3067C20.8369 15.298 20.8606 15.2874 20.8748 15.2791C20.8802 15.2759 20.8894 15.2756 20.8971 15.2749C20.9877 15.2647 21.1628 15.3241 21.2081 15.38C21.2627 15.4477 21.2468 15.559 21.1743 15.627Z" fill="url(#paint16_linear)"/>
<path d="M20.5124 15.2959C20.5196 15.2957 20.5265 15.2945 20.5336 15.2931C20.5451 15.2912 20.5541 15.2848 20.5533 15.2794C20.5525 15.274 20.5114 15.2561 20.4614 15.2394C20.4113 15.2227 20.3896 15.2384 20.3674 15.2613C20.3562 15.2728 20.3363 15.279 20.3148 15.286C20.2954 15.2924 20.2821 15.3202 20.2719 15.3402C20.2686 15.347 20.2859 15.3715 20.2882 15.3706C20.3084 15.3656 20.3355 15.3604 20.3439 15.3468C20.3845 15.2813 20.4509 15.2978 20.5124 15.2959Z" fill="url(#paint17_linear)"/>
<path d="M17.8109 12.5786C17.8465 12.5962 17.886 12.6156 17.9291 12.6367C17.9736 12.6548 18.0216 12.6743 18.073 12.6952C18.9305 13.0437 19.8804 13.2164 20.8681 13.1434C21.1518 13.1224 21.4334 13.0785 21.7047 13.015C22.1653 12.9073 22.6034 12.7734 23.0058 12.5782C23.037 12.563 23.0643 12.55 23.0899 12.5379C22.9734 12.4315 22.8453 12.3318 22.6922 12.2452C22.5499 12.1648 22.4043 12.0869 22.298 11.9805C22.0046 11.6865 22.1379 11.2625 22.5343 11.0546C22.5306 11.0487 22.5272 11.0431 22.5235 11.0373C22.2691 10.6323 21.9609 10.3965 21.692 10.3965C21.5882 10.3965 21.4821 10.4302 21.3767 10.4965C21.1023 10.669 20.7581 10.764 20.4081 10.764C20.058 10.764 19.714 10.669 19.4397 10.4965C19.3342 10.4302 19.2281 10.3965 19.1244 10.3965C18.8515 10.3965 18.5505 10.6263 18.2989 11.027C18.0118 11.4843 17.7477 11.9053 17.7477 12.4406C17.7477 12.453 17.7425 12.4647 17.7344 12.4756C17.7456 12.4945 17.7494 12.5194 17.7479 12.5484C17.7683 12.558 17.7874 12.5673 17.8109 12.5786ZM19.0468 12.4063C18.9989 12.4226 18.934 12.4404 18.8667 12.4501C18.7997 12.4607 18.7302 12.4632 18.6772 12.4621C18.6241 12.4609 18.5871 12.4542 18.5871 12.4542C18.5871 12.4542 18.6173 12.4373 18.6651 12.4209C18.713 12.4045 18.7779 12.3868 18.8452 12.3771C18.9122 12.3665 18.9817 12.3643 19.0347 12.3652C19.0878 12.3664 19.1248 12.3729 19.1248 12.3729C19.1248 12.3729 19.0944 12.3899 19.0468 12.4063ZM22.1393 12.4621C22.0865 12.4632 22.0171 12.4607 21.9501 12.4501C21.8827 12.4404 21.8176 12.4224 21.77 12.4063C21.7223 12.3899 21.692 12.3732 21.692 12.3732C21.692 12.3732 21.7292 12.3667 21.782 12.3655C21.8349 12.3644 21.9047 12.3668 21.9717 12.3774C22.0389 12.3871 22.1038 12.4048 22.1516 12.4212C22.1995 12.4376 22.2296 12.4545 22.2296 12.4545C22.2296 12.4545 22.1924 12.4609 22.1393 12.4621ZM22.3536 12.2133C22.4345 12.2222 22.4881 12.2342 22.4881 12.2342C22.4881 12.2342 22.4343 12.2461 22.3536 12.255C22.2729 12.2638 22.1656 12.2719 22.0576 12.2714C21.9501 12.2719 21.8426 12.2641 21.7616 12.2552C21.6809 12.2462 21.6273 12.2342 21.6273 12.2342C21.6273 12.2342 21.6812 12.2221 21.7616 12.2131C21.8426 12.2042 21.9499 12.1964 22.0576 12.1969C22.1653 12.1964 22.2729 12.2045 22.3536 12.2133ZM21.6271 12.0979C21.6271 12.0979 21.6599 12.0861 21.7076 12.0756C21.7552 12.0651 21.8172 12.0539 21.8785 12.0471C21.9399 12.0396 22.0017 12.0362 22.046 12.0303C22.0676 12.0268 22.0865 12.0241 22.0963 12.0195C22.1082 12.0161 22.1117 12.0067 22.1121 12.008C22.11 12.0086 22.119 12.0131 22.1138 12.0265C22.1082 12.0389 22.095 12.056 22.0724 12.0675C22.0289 12.093 21.9632 12.1133 21.8956 12.1206C21.8284 12.1289 21.7602 12.1249 21.7099 12.1174C21.6597 12.1103 21.6271 12.0979 21.6271 12.0979ZM21.3222 10.8496C21.3873 10.7667 21.4908 10.666 21.6317 10.6524C21.7658 10.6396 21.8925 10.6988 21.974 10.7703C22.0073 10.7994 22.1161 10.9204 22.1543 10.9945C22.2359 11.151 22.0272 11.0914 21.9143 11.052C21.7689 11.0013 21.6356 10.9848 21.4796 10.9611C21.3669 10.9441 21.272 10.9135 21.3222 10.8496ZM21.0198 11.7506C21.1059 11.6625 21.2344 11.6038 21.3823 11.5852C21.5297 11.566 21.6784 11.5901 21.8016 11.6517C21.8369 11.6694 21.8455 11.7043 21.8209 11.7295C21.796 11.7548 21.7473 11.7609 21.7124 11.7433C21.5295 11.6512 21.276 11.6836 21.1481 11.8147C21.1331 11.8302 21.1088 11.8386 21.084 11.8386C21.0686 11.8386 21.053 11.8354 21.0393 11.8286C21.0035 11.8107 20.995 11.7758 21.0198 11.7506ZM20.0046 12.4591C20.1079 12.4315 20.2053 12.3914 20.2851 12.3367C20.37 12.2786 20.4108 12.2125 20.4544 12.1365C20.4569 12.1316 20.4588 12.1286 20.4607 12.1252C20.3658 12.1222 20.2897 12.0636 20.2897 12.0286C20.2897 11.9927 20.3694 11.9635 20.4678 11.9635C20.5661 11.9635 20.6458 11.9927 20.6458 12.0286C20.6458 12.0636 20.5697 12.1222 20.4748 12.1252C20.4767 12.1286 20.4786 12.1316 20.4811 12.1365C20.4892 12.1505 20.4967 12.1742 20.5127 12.196C20.6152 12.3351 20.7722 12.403 20.9634 12.4686C20.9634 12.4686 20.9513 12.471 20.9295 12.4734C20.9081 12.4735 20.8742 12.4829 20.8363 12.4773C20.7987 12.472 20.7502 12.4706 20.7063 12.4531C20.6 12.4108 20.4946 12.3409 20.4678 12.2525C20.479 12.2892 20.3983 12.3588 20.3673 12.3831C20.292 12.4421 20.2051 12.4628 20.0992 12.4773C20.0611 12.4829 20.0272 12.4735 20.006 12.4734C19.984 12.471 19.9721 12.4686 19.9721 12.4686C19.9721 12.4686 19.9842 12.4646 20.0046 12.4591ZM19.7937 11.7506C19.8182 11.7758 19.8097 11.8107 19.7743 11.8284C19.7608 11.8351 19.745 11.8384 19.7296 11.8384C19.7051 11.8384 19.6809 11.8301 19.6655 11.8146C19.5376 11.6834 19.2847 11.6511 19.1013 11.7432C19.0659 11.7605 19.0177 11.7548 18.9927 11.7293C18.9682 11.704 18.9767 11.6692 19.012 11.6515C19.1348 11.5898 19.2835 11.5658 19.4313 11.585C19.579 11.6037 19.7076 11.6625 19.7937 11.7506ZM19.1893 12.0979C19.1893 12.0979 19.1568 12.1103 19.1065 12.1174C19.0563 12.1247 18.9881 12.1289 18.9209 12.1206C18.8538 12.1133 18.7876 12.093 18.7442 12.0675C18.7215 12.056 18.7084 12.0389 18.7026 12.0265C18.6972 12.0131 18.7063 12.0086 18.7042 12.008C18.7048 12.0068 18.7084 12.0161 18.7202 12.0195C18.73 12.0241 18.7489 12.0268 18.7706 12.0303C18.8147 12.0362 18.8764 12.0396 18.9378 12.0471C18.9994 12.0539 19.0613 12.0651 19.109 12.0756C19.1566 12.0863 19.1893 12.0979 19.1893 12.0979ZM18.6622 10.9945C18.7009 10.9204 18.8093 10.7994 18.8425 10.7703C18.9243 10.6988 19.0511 10.6396 19.1851 10.6524C19.3261 10.666 19.4295 10.7666 19.4946 10.8496C19.5447 10.9135 19.4501 10.944 19.3369 10.9611C19.1809 10.9848 19.0476 11.0013 18.902 11.052C18.7893 11.0915 18.5807 11.151 18.6622 10.9945ZM18.463 12.2133C18.5437 12.2045 18.6512 12.1966 18.7589 12.1969C18.8665 12.1964 18.9742 12.2042 19.0549 12.2131C19.1356 12.2221 19.1895 12.2342 19.1895 12.2342C19.1895 12.2342 19.1356 12.2461 19.0549 12.2552C18.9742 12.2641 18.8667 12.2719 18.7589 12.2714C18.6514 12.2719 18.5437 12.2638 18.463 12.255C18.3823 12.2461 18.3284 12.2342 18.3284 12.2342C18.3284 12.2342 18.3823 12.2222 18.463 12.2133Z" fill="url(#paint18_linear)"/>
<path d="M22.5118 11.9071C22.7522 12.1409 23.1434 12.2818 23.3892 12.5171C23.7228 12.8369 23.9481 13.2233 24.1397 13.5935C24.1529 13.6188 24.1659 13.644 24.1787 13.67C24.1823 13.677 24.1857 13.6853 24.1907 13.696C24.1973 13.7102 24.2128 13.7176 24.2195 13.7089C24.2233 13.7043 24.2269 13.6986 24.2303 13.6926C24.2361 13.6822 24.2421 13.6712 24.2483 13.6593C24.2544 13.6473 24.26 13.6366 24.2647 13.628C24.3344 13.5018 24.3856 13.3524 24.4255 13.1581C24.4486 13.0452 24.4633 12.9314 24.4744 12.835C24.507 12.5516 24.5324 12.1347 24.3737 11.7865C24.2843 11.5901 24.1002 11.391 23.9048 11.2796C23.5643 11.0853 23.0444 11.0004 22.6886 11.2074C22.3936 11.3803 22.2726 11.6749 22.5118 11.9071Z" fill="url(#paint19_linear)"/>
<path d="M20.4834 13.2981C20.3728 13.2981 20.2753 13.339 20.2105 13.4018C20.1616 13.4492 20.1309 13.5088 20.1309 13.5744C20.1309 13.7268 20.289 13.8508 20.4832 13.8508C20.6774 13.8508 20.8355 13.7268 20.8355 13.5744C20.8355 13.5088 20.8049 13.4493 20.756 13.4019C20.6916 13.3392 20.594 13.2981 20.4834 13.2981Z" fill="url(#paint20_linear)"/>
<path d="M16.8318 15.2324C17.0036 15.2324 17.1722 15.1681 17.2948 15.0561C17.4108 14.9504 17.4656 14.8201 17.4496 14.6897C17.4377 14.594 17.3908 14.4986 17.341 14.3976L17.3273 14.3699C17.3068 14.3278 17.2867 14.2858 17.2691 14.2431C17.2089 14.0971 17.176 13.9364 17.1663 13.737C17.1498 13.4065 17.2061 13.0807 17.2621 12.7652C17.2632 12.7588 17.2643 12.7524 17.2654 12.746L17.2723 12.7076C17.2758 12.6873 17.2828 12.6597 17.2911 12.6284C17.2924 12.6238 17.2937 12.6185 17.2952 12.6127C17.2974 12.604 17.2845 12.6057 17.2669 12.6174C17.2564 12.6244 17.2459 12.6317 17.2353 12.6389C17.1675 12.6849 17.1016 12.7371 17.0379 12.7938C16.8815 12.9329 16.7383 13.0954 16.6177 13.2407C16.4277 13.47 16.1644 13.8151 16.0733 14.1633C16.0221 14.3586 16.0365 14.5873 16.1101 14.7461C16.1291 14.7871 16.1544 14.8276 16.1826 14.8675C16.205 14.8992 16.2301 14.9298 16.2576 14.9595C16.2833 14.9873 16.3108 15.0133 16.3404 15.0383C16.4748 15.1517 16.6458 15.2324 16.8318 15.2324Z" fill="url(#paint21_linear)"/>
</g>
<path d="M11.2527 13.0216L11.7273 13.8809H13.2632L12.0206 14.4119L12.4953 15.2712L11.2527 14.7401L10.0101 15.2712L10.4847 14.4119L9.24214 13.8809H10.7781L11.2527 13.0216Z" fill="url(#paint22_linear)"/>
<path d="M29.7136 13.0216L30.1882 13.8809H31.7242L30.4816 14.4119L30.9562 15.2712L29.7136 14.7401L28.471 15.2712L28.9457 14.4119L27.7031 13.8809H29.239L29.7136 13.0216Z" fill="url(#paint23_linear)"/>
<path d="M40.1669 13.1429C39.6032 16.3899 31.4594 19.706 20.7181 19.706C9.97679 19.706 1.26924 16.613 1.26924 12.7975C0.987346 7.2707 1.55111 6.71802 20.7181 5.889C31.4594 5.889 41.9991 5.54357 40.1669 13.1429Z" fill="url(#paint24_linear)"/>
<ellipse cx="20.7184" cy="10.5869" rx="19.4488" ry="6.90851" fill="url(#paint25_linear)"/>
<ellipse cx="20.7174" cy="10.5868" rx="16.3483" ry="5.80315" fill="url(#paint26_linear)"/>
<g clip-path="url(#clip2)">
<path d="M23.6186 9.0679C23.575 9.02038 23.5301 8.97358 23.4815 8.92883C23.462 8.94516 23.4415 8.96251 23.4167 8.98248C23.3875 9.00594 23.3554 9.03175 23.3205 9.06002C22.8157 9.46628 22.0812 9.66015 21.3416 9.76088C21.3232 9.76336 21.3043 9.76482 21.2857 9.76686C21.3329 9.82852 21.3621 9.89746 21.3621 9.97181C21.3621 10.2161 21.0738 10.4148 20.7192 10.4148C20.3646 10.4148 20.0763 10.2161 20.0763 9.97181C20.0763 9.89746 20.1055 9.82837 20.1528 9.76671C20.1342 9.76452 20.1154 9.76321 20.097 9.76073C19.4054 9.70957 18.7479 9.46264 18.2438 9.1402C18.1981 9.11104 18.1553 9.08364 18.116 9.05842C18.0815 9.03058 18.05 9.00507 18.0214 8.98204C18.0155 8.97723 18.0115 8.97373 18.0058 8.96907C17.9914 9.03714 17.9643 9.10915 17.956 9.14851C17.8888 9.46555 17.8175 9.78479 17.8367 10.1062C17.8456 10.2562 17.8729 10.4068 17.9436 10.5493C17.9626 10.5877 17.9842 10.6254 18.0062 10.6632C18.072 10.7756 18.1422 10.8871 18.1604 11.0089C18.2135 11.3675 17.758 11.6887 17.2423 11.6887C17.0246 11.6887 16.8223 11.6273 16.651 11.5342C16.5668 12.2064 16.761 12.8506 17.5427 13.2555C17.5431 13.2555 17.7599 13.3503 18.1771 13.3503C18.4746 13.3503 18.8006 13.3007 19.1456 13.2077C19.2146 13.1892 19.075 12.9306 19.0547 12.9026C18.9487 12.7588 18.7538 12.6344 18.5366 12.5726C18.4926 12.5601 18.4511 12.5484 18.4128 12.5373C18.3745 12.5242 18.336 12.5226 18.303 12.5168C18.2694 12.512 18.24 12.5077 18.2158 12.5041C18.1668 12.4971 18.1388 12.493 18.1388 12.493C18.1388 12.493 18.1672 12.4924 18.2169 12.4916C18.2421 12.4911 18.2727 12.4905 18.3079 12.49C18.343 12.4905 18.3842 12.4857 18.4265 12.4927C18.9133 12.5723 19.4041 12.7513 19.5281 13.1159C19.5359 13.1391 19.5427 13.1595 19.5484 13.1762C19.5501 13.1812 19.5508 13.1834 19.5522 13.1875C19.8698 13.2066 20.4203 13.2364 20.7188 13.2364C20.9202 13.2364 21.1216 13.2271 21.3223 13.2176C21.4497 13.2117 21.7442 13.2388 21.8529 13.1901C21.9149 13.1622 21.9096 13.1082 21.9335 13.0589C21.987 12.9483 22.0801 12.843 22.1967 12.7583C22.436 12.5853 22.7835 12.484 23.1297 12.49C23.1648 12.4905 23.1952 12.4911 23.2206 12.4916C23.2701 12.4924 23.2987 12.493 23.2987 12.493C23.2987 12.493 23.2705 12.4971 23.2217 12.5041C23.1976 12.5076 23.1682 12.512 23.1345 12.5168C23.1015 12.5228 23.063 12.5242 23.0247 12.5373C22.9862 12.5484 22.9445 12.5601 22.9007 12.5726C22.8561 12.5827 22.814 12.6012 22.7721 12.621C22.7307 12.6413 22.6839 12.6569 22.645 12.6812C22.6073 12.7058 22.5697 12.7309 22.5314 12.756C22.4931 12.7799 22.4698 12.8133 22.4389 12.8399L22.3966 12.8809L22.3687 12.9262C22.3522 12.9558 22.3285 12.9832 22.3198 13.009C22.3141 13.035 22.3078 13.0579 22.3012 13.0786C22.2974 13.0888 22.2942 13.0984 22.2908 13.1076C22.2908 13.121 22.2908 13.1338 22.2913 13.1458C22.2913 13.1697 22.2913 13.1905 22.2917 13.2077C22.6367 13.3007 22.9627 13.3503 23.2602 13.3503C23.6801 13.3503 23.8974 13.2541 23.8993 13.2529C25.8166 12.2607 24.1887 9.82298 23.6186 9.0679ZM20.7185 12.544C19.9633 12.544 19.3489 12.1209 19.3489 11.6003C19.3489 11.0801 19.9635 10.6566 20.7185 10.6566C21.4736 10.6566 22.0882 11.0799 22.0882 11.6003C22.0882 12.1209 21.4736 12.544 20.7185 12.544Z" fill="url(#paint27_linear)"/>
<path d="M20.7193 10.7251C20.0974 10.7251 19.5918 11.0969 19.5918 11.5541C19.5918 12.0113 20.0977 12.3831 20.7193 12.3831C21.3411 12.3831 21.8467 12.0113 21.8467 11.5541C21.8467 11.0969 21.3411 10.7251 20.7193 10.7251ZM20.7254 11.1205C20.8849 11.1457 21.0039 11.0967 21.1088 11.015C21.1516 10.9815 21.2379 10.9747 21.2943 10.9948C21.3479 11.0138 21.3607 11.0746 21.3114 11.1125C21.2834 11.1342 21.2432 11.1538 21.2043 11.1598C21.0972 11.1763 21.0045 11.2129 20.9129 11.2535C20.9001 11.2591 20.8863 11.2635 20.8723 11.2679C20.8492 11.2747 20.7701 11.2774 20.7205 11.2438C20.6906 11.2235 20.6717 11.1962 20.6686 11.1646C20.6657 11.136 20.6818 11.1139 20.7254 11.1205ZM20.372 10.9866C20.4356 11.0032 20.4997 11.0218 20.5568 11.0477C20.5722 11.0546 20.5835 11.0663 20.594 11.079C20.6103 11.0989 20.6225 11.1466 20.5901 11.1714C20.5714 11.1858 20.5458 11.1922 20.5125 11.1906C20.3901 11.185 20.3028 11.1173 20.3024 11.0277C20.3022 10.9918 20.3265 10.9748 20.372 10.9866ZM21.4809 11.9486C21.3687 12.0543 21.0262 12.1505 20.8027 12.0692C20.633 12.0076 20.5695 11.844 20.6772 11.7293C20.682 11.7242 20.6843 11.7178 20.6861 11.7112C20.6888 11.7007 20.6795 11.6903 20.6655 11.6883C20.6571 11.6871 20.6486 11.6856 20.6404 11.6839C20.607 11.6765 20.5736 11.6691 20.5413 11.6595C20.5209 11.6536 20.5009 11.6473 20.481 11.6407C20.4478 11.63 20.4204 11.6206 20.4198 11.62C20.419 11.6194 20.4441 11.6023 20.4482 11.5747C20.4521 11.5475 20.3807 11.5381 20.3704 11.5614C20.3662 11.5709 20.3759 11.5815 20.398 11.5989C20.4019 11.602 20.4054 11.6055 20.4087 11.6088C20.414 11.6147 20.4186 11.6198 20.4196 11.6203C20.4206 11.6206 20.4703 11.647 20.4958 11.6944C20.5106 11.7221 20.5158 11.7527 20.5131 11.7855C20.5121 11.7984 20.5112 11.8114 20.5073 11.8238C20.4873 11.8876 20.4937 11.9508 20.5096 12.0145C20.5201 12.0568 20.495 12.0908 20.4437 12.1113C20.4023 12.128 20.3582 12.1337 20.3178 12.109C20.2711 12.0805 20.2517 12.0098 20.2736 11.9664C20.2915 11.9308 20.3174 11.8938 20.3176 11.8575C20.3178 11.7926 20.3022 11.7277 20.2892 11.6632C20.288 11.657 20.2536 11.647 20.2422 11.6507C20.2128 11.6606 20.1881 11.6783 20.1605 11.6916C20.1036 11.7189 20.0462 11.7457 19.9883 11.7721C19.9772 11.777 19.9623 11.7813 19.9498 11.7805C19.9302 11.7793 19.8979 11.7766 19.8948 11.7692C19.8886 11.7558 19.8946 11.7331 19.908 11.7246C19.9891 11.6735 20.0789 11.6292 20.1555 11.5749C20.1996 11.5438 20.241 11.5104 20.2818 11.4766C20.3491 11.4205 20.4006 11.3728 20.3973 11.3703C20.394 11.3677 20.3607 11.3753 20.323 11.3871C20.3001 11.3942 20.2773 11.4012 20.254 11.4072C20.1337 11.439 20.0414 11.4093 19.9984 11.3265C19.9759 11.2833 19.9947 11.237 20.046 11.2129C20.0952 11.1899 20.1321 11.2072 20.1704 11.2323C20.2315 11.2724 20.3036 11.275 20.3778 11.2544C20.4196 11.2427 20.4595 11.2278 20.5009 11.2153C20.5603 11.1973 20.5967 11.2041 20.6313 11.2437C20.6519 11.2671 20.6626 11.2956 20.6816 11.3201C20.6931 11.3353 20.709 11.3516 20.7287 11.3583C20.7386 11.3615 20.7613 11.3444 20.7782 11.3368C20.8138 11.3207 20.8476 11.2995 20.8863 11.2911C20.9065 11.2867 20.9522 11.3017 20.9572 11.3142C20.9654 11.3348 20.958 11.3642 20.9419 11.3827C20.9108 11.4184 20.9156 11.4492 20.9693 11.4584C21.0097 11.4654 21.0531 11.4693 21.0939 11.466C21.1728 11.4596 21.2049 11.4124 21.1705 11.3597C21.158 11.3404 21.1403 11.323 21.1258 11.3044C21.0985 11.2696 21.1135 11.2461 21.1677 11.2499C21.3032 11.2593 21.428 11.3223 21.3749 11.4496C21.3473 11.5161 21.2795 11.5561 21.1899 11.575C21.1563 11.5824 21.1215 11.5865 21.0869 11.5908C21.0175 11.5996 20.9658 11.6414 20.9522 11.6925C20.9487 11.7056 20.9421 11.7183 20.9345 11.7309C20.9221 11.7513 20.9384 11.7923 20.9724 11.783C20.9856 11.7795 20.9924 11.7658 20.9988 11.7404C21.0058 11.7128 21.0163 11.6847 21.033 11.6595C21.04 11.6489 21.0676 11.6403 21.0851 11.6407C21.0989 11.6412 21.1176 11.6554 21.1238 11.6666C21.1337 11.6848 21.1401 11.7056 21.1386 11.725C21.1359 11.7636 21.1627 11.7722 21.207 11.7701C21.2301 11.7687 21.2544 11.7668 21.2764 11.7704C21.2931 11.7734 21.3195 11.7849 21.3195 11.7925C21.3195 11.8049 21.3048 11.8211 21.29 11.8285C21.2665 11.8407 21.2385 11.8513 21.2107 11.8544C21.1693 11.8587 21.1602 11.8756 21.1502 11.9018C21.1403 11.9276 21.1201 11.9555 21.0929 11.9723C21.0486 11.9998 21.0031 11.9871 20.9926 11.9394C20.9819 11.89 20.9504 11.8796 20.8921 11.8838C20.882 11.8847 20.8717 11.8835 20.8612 11.8822C20.8443 11.8797 20.8179 11.9135 20.8498 11.9447C20.8674 11.962 20.895 11.9751 20.9302 11.9809C21.083 12.0059 21.2245 11.9885 21.3386 11.9026C21.4344 11.8307 21.3967 11.7186 21.2661 11.6835C21.2369 11.6757 21.2045 11.6735 21.1773 11.663C21.1615 11.6571 21.1454 11.6409 21.1444 11.6283C21.1436 11.6197 21.1672 11.6091 21.1815 11.6008C21.1868 11.5976 21.1961 11.5973 21.2037 11.5965C21.2943 11.5864 21.4694 11.6457 21.5147 11.7016C21.5693 11.7693 21.5534 11.8806 21.4809 11.9486Z" fill="url(#paint28_linear)"/>
<path d="M20.8191 11.6176C20.8262 11.6173 20.8331 11.6162 20.8403 11.6147C20.8518 11.6129 20.8607 11.6065 20.8599 11.6011C20.8592 11.5957 20.8181 11.5778 20.768 11.561C20.718 11.5443 20.6963 11.5601 20.674 11.5829C20.6628 11.5945 20.6429 11.6006 20.6214 11.6077C20.602 11.614 20.5888 11.6418 20.5785 11.6618C20.5752 11.6687 20.5926 11.6932 20.5949 11.6922C20.6151 11.6873 20.6421 11.6821 20.6506 11.6684C20.6912 11.603 20.7575 11.6195 20.8191 11.6176Z" fill="url(#paint29_linear)"/>
<path d="M18.1176 8.90027C18.1531 8.91786 18.1926 8.93724 18.2357 8.9584C18.2802 8.97644 18.3282 8.99596 18.3796 9.01683C19.2372 9.36531 20.187 9.53807 21.1748 9.46503C21.4585 9.44401 21.7401 9.40019 22.0113 9.3367C22.472 9.22893 22.91 9.09508 23.3125 8.89982C23.3437 8.88462 23.3709 8.87165 23.3965 8.85958C23.28 8.75315 23.1519 8.65344 22.9988 8.56684C22.8566 8.4865 22.711 8.40855 22.6047 8.30212C22.3112 8.00819 22.4445 7.58414 22.841 7.37621C22.8372 7.37039 22.8339 7.36473 22.8301 7.35892C22.5758 6.95394 22.2675 6.71814 21.9986 6.71814C21.8948 6.71814 21.7887 6.75183 21.6833 6.81815C21.409 6.99061 21.0647 7.0857 20.7147 7.0857C20.3647 7.0857 20.0206 6.99061 19.7463 6.81815C19.6409 6.75183 19.5348 6.71814 19.431 6.71814C19.1581 6.71814 18.8572 6.94798 18.6055 7.34863C18.3185 7.80593 18.0543 8.227 18.0543 8.76225C18.0543 8.77462 18.0491 8.78639 18.041 8.79727C18.0522 8.8162 18.056 8.8411 18.0545 8.87001C18.0749 8.8797 18.0941 8.88894 18.1176 8.90027ZM19.3534 8.72797C19.3056 8.74421 19.2407 8.7621 19.1733 8.77179C19.1063 8.78237 19.0369 8.7849 18.9838 8.78371C18.9308 8.78252 18.8938 8.77581 18.8938 8.77581C18.8938 8.77581 18.9239 8.75897 18.9718 8.74257C19.0196 8.72618 19.0845 8.70844 19.1519 8.69875C19.2189 8.68817 19.2883 8.68593 19.3414 8.68683C19.3944 8.68802 19.4314 8.69458 19.4314 8.69458C19.4314 8.69458 19.401 8.71157 19.3534 8.72797ZM22.446 8.78371C22.3932 8.7849 22.3237 8.78237 22.2567 8.77179C22.1893 8.7621 22.1242 8.74406 22.0766 8.72797C22.029 8.71157 21.9986 8.69488 21.9986 8.69488C21.9986 8.69488 22.0358 8.68832 22.0887 8.68712C22.1415 8.68608 22.2114 8.68847 22.2784 8.69905C22.3455 8.70874 22.4104 8.72647 22.4583 8.74287C22.5061 8.75927 22.5363 8.77611 22.5363 8.77611C22.5363 8.77611 22.499 8.78252 22.446 8.78371ZM22.6602 8.53494C22.7411 8.54389 22.7948 8.55581 22.7948 8.55581C22.7948 8.55581 22.7409 8.56773 22.6602 8.57668C22.5795 8.58547 22.4722 8.59352 22.3643 8.59307C22.2567 8.59352 22.1492 8.58577 22.0683 8.57683C21.9876 8.56788 21.9339 8.55581 21.9339 8.55581C21.9339 8.55581 21.9878 8.54374 22.0683 8.53479C22.1492 8.52585 22.2565 8.5181 22.3643 8.51855C22.472 8.5181 22.5795 8.52615 22.6602 8.53494ZM21.9337 8.41958C21.9337 8.41958 21.9666 8.4078 22.0142 8.39722C22.0618 8.38678 22.1238 8.3756 22.1852 8.36875C22.2465 8.3613 22.3083 8.35787 22.3526 8.35191C22.3742 8.34848 22.3932 8.34579 22.4029 8.34117C22.4148 8.33775 22.4183 8.32836 22.4187 8.3297C22.4167 8.33029 22.4256 8.33476 22.4204 8.34818C22.4148 8.36055 22.4017 8.37769 22.379 8.38917C22.3355 8.41466 22.2698 8.43493 22.2022 8.44223C22.135 8.45058 22.0668 8.44655 22.0165 8.4391C21.9664 8.43195 21.9337 8.41958 21.9337 8.41958ZM21.6288 7.17126C21.6939 7.08839 21.7975 6.98763 21.9383 6.97406C22.0724 6.96124 22.1991 7.02042 22.2806 7.09196C22.3139 7.12103 22.4227 7.24206 22.461 7.31614C22.5425 7.47264 22.3339 7.41302 22.2209 7.37367C22.0756 7.323 21.9422 7.30645 21.7863 7.28275C21.6735 7.26576 21.5787 7.2352 21.6288 7.17126ZM21.3264 8.07228C21.4125 7.98419 21.541 7.92547 21.6889 7.90683C21.8364 7.88761 21.9851 7.91175 22.1082 7.97331C22.1436 7.99105 22.1521 8.02593 22.1276 8.05112C22.1026 8.07646 22.0539 8.08257 22.019 8.06498C21.8362 7.97286 21.5826 8.00521 21.4547 8.13638C21.4397 8.15188 21.4154 8.16022 21.3907 8.16022C21.3753 8.16022 21.3597 8.15709 21.3459 8.15024C21.3102 8.13235 21.3016 8.09747 21.3264 8.07228ZM20.3112 8.78073C20.4146 8.75316 20.5119 8.71306 20.5918 8.65836C20.6766 8.60023 20.7174 8.5342 20.7611 8.45818C20.7636 8.45326 20.7654 8.45028 20.7673 8.44685C20.6725 8.44387 20.5964 8.38529 20.5964 8.35027C20.5964 8.31434 20.676 8.28513 20.7744 8.28513C20.8728 8.28513 20.9524 8.31434 20.9524 8.35027C20.9524 8.38529 20.8763 8.44387 20.7815 8.44685C20.7833 8.45028 20.7852 8.45326 20.7877 8.45818C20.7958 8.47219 20.8033 8.49589 20.8193 8.51765C20.9219 8.65672 21.0789 8.72469 21.27 8.79027C21.27 8.79027 21.258 8.79265 21.2361 8.79504C21.2147 8.79519 21.1808 8.80458 21.1429 8.79891C21.1053 8.7937 21.0568 8.79221 21.013 8.77477C20.9067 8.73244 20.8012 8.66253 20.7744 8.57414C20.7856 8.61081 20.7049 8.68042 20.6739 8.70471C20.5986 8.76374 20.5117 8.78446 20.4058 8.79891C20.3678 8.80458 20.3339 8.79519 20.3127 8.79504C20.2906 8.79265 20.2788 8.79027 20.2788 8.79027C20.2788 8.79027 20.2908 8.78624 20.3112 8.78073ZM20.1003 8.07228C20.1248 8.09747 20.1163 8.13235 20.081 8.15009C20.0674 8.1568 20.0516 8.16007 20.0362 8.16007C20.0117 8.16007 19.9876 8.15173 19.9722 8.13623C19.8443 8.00506 19.5914 7.97272 19.4079 8.06483C19.3726 8.08212 19.3243 8.07646 19.2993 8.05097C19.2748 8.02563 19.2833 7.9909 19.3187 7.97316C19.4414 7.91145 19.5901 7.88746 19.738 7.90669C19.8857 7.92532 20.0142 7.98419 20.1003 8.07228ZM19.4959 8.41958C19.4959 8.41958 19.4634 8.43195 19.4131 8.4391C19.363 8.4464 19.2948 8.45058 19.2276 8.44223C19.1604 8.43493 19.0943 8.41466 19.0508 8.38917C19.0281 8.37769 19.015 8.36055 19.0092 8.34818C19.0038 8.33476 19.0129 8.33029 19.0109 8.3297C19.0115 8.3285 19.015 8.33775 19.0269 8.34117C19.0367 8.34579 19.0556 8.34848 19.0772 8.35191C19.1213 8.35787 19.1831 8.3613 19.2444 8.36875C19.306 8.3756 19.368 8.38678 19.4156 8.39722C19.4632 8.40795 19.4959 8.41958 19.4959 8.41958ZM18.9688 7.31614C19.0075 7.24206 19.1159 7.12103 19.1492 7.09196C19.2309 7.02042 19.3578 6.96124 19.4917 6.97406C19.6327 6.98763 19.7361 7.08824 19.8012 7.17126C19.8513 7.2352 19.7567 7.26561 19.6436 7.28275C19.4876 7.30645 19.3543 7.323 19.2087 7.37367C19.0959 7.41317 18.8873 7.47264 18.9688 7.31614ZM18.7696 8.53494C18.8503 8.52615 18.9578 8.51825 19.0656 8.51855C19.1731 8.5181 19.2808 8.52585 19.3615 8.53479C19.4422 8.54374 19.4961 8.55581 19.4961 8.55581C19.4961 8.55581 19.4422 8.56773 19.3615 8.57683C19.2808 8.58577 19.1733 8.59352 19.0656 8.59307C18.958 8.59352 18.8503 8.58547 18.7696 8.57668C18.6889 8.56773 18.635 8.55581 18.635 8.55581C18.635 8.55581 18.6889 8.54389 18.7696 8.53494Z" fill="url(#paint30_linear)"/>
<path d="M22.8184 8.22875C23.0588 8.46254 23.4501 8.60347 23.6958 8.83874C24.0295 9.15857 24.2547 9.545 24.4463 9.91512C24.4595 9.94048 24.4725 9.9657 24.4853 9.99166C24.489 9.99864 24.4924 10.0069 24.4973 10.0176C24.5039 10.0319 24.5195 10.0393 24.5261 10.0305C24.5299 10.0259 24.5336 10.0203 24.537 10.0142C24.5427 10.0038 24.5487 9.99285 24.5549 9.98098C24.5611 9.96897 24.5666 9.95829 24.5713 9.94968C24.6411 9.82344 24.6923 9.67406 24.7322 9.47973C24.7552 9.36684 24.7699 9.25306 24.781 9.15664C24.8137 8.8733 24.839 8.45631 24.6803 8.10815C24.5909 7.91174 24.4068 7.71267 24.2114 7.60126C23.871 7.40693 23.3511 7.32208 22.9952 7.52902C22.7002 7.70199 22.5793 7.99659 22.8184 8.22875Z" fill="url(#paint31_linear)"/>
<path d="M20.79 9.61975C20.6794 9.61975 20.582 9.66068 20.5172 9.72343C20.4683 9.77086 20.4375 9.8305 20.4375 9.89609C20.4375 10.0484 20.5956 10.1724 20.7898 10.1724C20.9841 10.1724 21.1422 10.0484 21.1422 9.89609C21.1422 9.8305 21.1116 9.771 21.0627 9.72357C20.9982 9.66082 20.9006 9.61975 20.79 9.61975Z" fill="url(#paint32_linear)"/>
<path d="M17.1384 11.5541C17.3102 11.5541 17.4788 11.4898 17.6014 11.3778C17.7174 11.272 17.7723 11.1418 17.7562 11.0113C17.7444 10.9157 17.6975 10.8203 17.6476 10.7193L17.6339 10.6915C17.6134 10.6495 17.5933 10.6074 17.5758 10.5648C17.5156 10.4188 17.4827 10.2581 17.4729 10.0586C17.4565 9.72813 17.5128 9.40238 17.5687 9.08683C17.5699 9.08043 17.571 9.07403 17.5721 9.06763L17.5789 9.02924C17.5824 9.00897 17.5894 8.9814 17.5977 8.95001C17.599 8.94544 17.6003 8.94011 17.6018 8.93432C17.604 8.92563 17.5911 8.92731 17.5735 8.93904C17.563 8.94605 17.5525 8.95336 17.542 8.96052C17.4742 9.00654 17.4083 9.0588 17.3445 9.11548C17.1881 9.25459 17.045 9.41701 16.9244 9.56236C16.7343 9.79167 16.471 10.1368 16.3799 10.4849C16.3288 10.6803 16.3432 10.909 16.4167 11.0677C16.4357 11.1087 16.461 11.1492 16.4893 11.1892C16.5116 11.2208 16.5367 11.2515 16.5643 11.2812C16.5899 11.3089 16.6174 11.335 16.647 11.36C16.7814 11.4733 16.9525 11.5541 17.1384 11.5541Z" fill="url(#paint33_linear)"/>
</g>
<path d="M11.5593 9.34326L12.0339 10.2025H13.5699L12.3273 10.7336L12.8019 11.5928L11.5593 11.0618L10.3167 11.5928L10.7914 10.7336L9.54878 10.2025H11.0847L11.5593 9.34326Z" fill="url(#paint34_linear)"/>
<path d="M30.0203 9.34326L30.4949 10.2025H32.0308L30.7882 10.7336L31.2628 11.5928L30.0203 11.0618L28.7777 11.5928L29.2523 10.7336L28.0097 10.2025H29.5456L30.0203 9.34326Z" fill="url(#paint35_linear)"/>
<path d="M40.1669 9.46459C39.6032 12.7116 31.4594 16.0277 20.7181 16.0277C9.97679 16.0277 1.26924 12.9346 1.26924 9.11916C0.987346 3.59235 1.55111 3.03967 20.7181 2.21065C31.4594 2.21065 41.9991 1.86522 40.1669 9.46459Z" fill="url(#paint36_linear)"/>
<ellipse cx="20.7184" cy="6.90851" rx="19.4488" ry="6.90851" fill="url(#paint37_linear)"/>
<ellipse cx="20.7174" cy="6.9085" rx="16.3483" ry="5.80315" fill="url(#paint38_linear)"/>
<g clip-path="url(#clip3)">
<path d="M23.6186 5.38955C23.575 5.34203 23.5301 5.29524 23.4815 5.25049C23.462 5.26681 23.4415 5.28416 23.4167 5.30413C23.3875 5.3276 23.3554 5.3534 23.3205 5.38168C22.8157 5.78794 22.0812 5.98181 21.3416 6.08253C21.3232 6.08501 21.3043 6.08647 21.2857 6.08851C21.3329 6.15017 21.3621 6.21912 21.3621 6.29346C21.3621 6.53777 21.0738 6.73645 20.7192 6.73645C20.3646 6.73645 20.0763 6.53777 20.0763 6.29346C20.0763 6.21912 20.1055 6.15003 20.1528 6.08837C20.1342 6.08618 20.1154 6.08487 20.097 6.08239C19.4054 6.03122 18.7479 5.78429 18.2438 5.46185C18.1981 5.4327 18.1553 5.40529 18.116 5.38008C18.0815 5.35223 18.05 5.32673 18.0214 5.30369C18.0155 5.29888 18.0115 5.29538 18.0058 5.29072C17.9914 5.35879 17.9643 5.4308 17.956 5.47016C17.8888 5.78721 17.8175 6.10644 17.8367 6.42786C17.8456 6.57786 17.8729 6.72843 17.9436 6.871C17.9626 6.90933 17.9842 6.94709 18.0062 6.98484C18.072 7.09723 18.1422 7.20874 18.1604 7.3306C18.2135 7.68919 17.758 8.01032 17.2423 8.01032C17.0246 8.01032 16.8223 7.94895 16.651 7.85581C16.5668 8.52809 16.761 9.17224 17.5427 9.57719C17.5431 9.57719 17.7599 9.67194 18.1771 9.67194C18.4746 9.67194 18.8006 9.62238 19.1456 9.52938C19.2146 9.51086 19.075 9.25227 19.0547 9.22428C18.9487 9.08041 18.7538 8.95607 18.5366 8.89426C18.4926 8.88173 18.4511 8.87006 18.4128 8.85899C18.3745 8.84587 18.336 8.84426 18.303 8.83843C18.2694 8.83362 18.24 8.8294 18.2158 8.82575C18.1668 8.81875 18.1388 8.81467 18.1388 8.81467C18.1388 8.81467 18.1672 8.81409 18.2169 8.81321C18.2421 8.81278 18.2727 8.81219 18.3079 8.81161C18.343 8.81219 18.3842 8.80738 18.4265 8.81438C18.9133 8.89397 19.4041 9.07297 19.5281 9.43754C19.5359 9.46072 19.5427 9.48113 19.5484 9.49789C19.5501 9.50285 19.5508 9.50503 19.5522 9.50911C19.8698 9.52821 20.4203 9.55809 20.7188 9.55809C20.9202 9.55809 21.1216 9.54876 21.3223 9.53929C21.4497 9.53331 21.7442 9.56042 21.8529 9.51174C21.9149 9.4839 21.9096 9.42982 21.9335 9.38055C21.987 9.26991 22.0801 9.16466 22.1967 9.07997C22.436 8.90694 22.7835 8.80563 23.1297 8.81161C23.1648 8.81219 23.1952 8.81278 23.2206 8.81321C23.2701 8.81409 23.2987 8.81467 23.2987 8.81467C23.2987 8.81467 23.2705 8.81875 23.2217 8.82575C23.1976 8.82925 23.1682 8.83362 23.1345 8.83843C23.1015 8.84441 23.063 8.84587 23.0247 8.85899C22.9862 8.87006 22.9445 8.88173 22.9007 8.89426C22.8561 8.90432 22.814 8.92283 22.7721 8.94266C22.7307 8.96292 22.6839 8.97852 22.645 9.00286C22.6073 9.02749 22.5697 9.05257 22.5314 9.07764C22.4931 9.10155 22.4698 9.13493 22.4389 9.1616L22.3966 9.20256L22.3687 9.2479C22.3522 9.27749 22.3285 9.30489 22.3198 9.33069C22.3141 9.35664 22.3078 9.37953 22.3012 9.40022C22.2974 9.41043 22.2942 9.42005 22.2908 9.42923C22.2908 9.44264 22.2908 9.45547 22.2913 9.46742C22.2913 9.49133 22.2913 9.51217 22.2917 9.52938C22.6367 9.62238 22.9627 9.67194 23.2602 9.67194C23.6801 9.67194 23.8974 9.57573 23.8993 9.57456C25.8166 8.58232 24.1887 6.14463 23.6186 5.38955ZM20.7185 8.86569C19.9633 8.86569 19.3489 8.44253 19.3489 7.92199C19.3489 7.40174 19.9635 6.97828 20.7185 6.97828C21.4736 6.97828 22.0882 7.40159 22.0882 7.92199C22.0882 8.44253 21.4736 8.86569 20.7185 8.86569Z" fill="url(#paint39_linear)"/>
<path d="M20.7193 7.04675C20.0974 7.04675 19.5918 7.41856 19.5918 7.87577C19.5918 8.33299 20.0977 8.7048 20.7193 8.7048C21.3411 8.7048 21.8467 8.33299 21.8467 7.87577C21.8467 7.41856 21.3411 7.04675 20.7193 7.04675ZM20.7254 7.44218C20.8849 7.46732 21.0039 7.4184 21.1088 7.33662C21.1516 7.30315 21.2379 7.29634 21.2943 7.31648C21.3479 7.33541 21.3607 7.39629 21.3114 7.43415C21.2834 7.45581 21.2432 7.4755 21.2043 7.48141C21.0972 7.49791 21.0045 7.53456 20.9129 7.57515C20.9001 7.58076 20.8863 7.58515 20.8723 7.58954C20.8492 7.59635 20.7701 7.59908 20.7205 7.56546C20.6906 7.54517 20.6717 7.51791 20.6686 7.48625C20.6657 7.45763 20.6818 7.43552 20.7254 7.44218ZM20.372 7.3083C20.4356 7.32481 20.4997 7.34344 20.5568 7.36934C20.5722 7.3763 20.5835 7.38796 20.594 7.40068C20.6103 7.42052 20.6225 7.46823 20.5901 7.49307C20.5714 7.50746 20.5458 7.51382 20.5125 7.5123C20.3901 7.5067 20.3028 7.439 20.3024 7.34934C20.3022 7.31345 20.3265 7.29649 20.372 7.3083ZM21.4809 8.27029C21.3687 8.376 21.0262 8.47217 20.8027 8.39085C20.633 8.32921 20.5695 8.16564 20.6772 8.051C20.682 8.04585 20.6843 8.03949 20.6861 8.03283C20.6888 8.02238 20.6795 8.01193 20.6655 8.00996C20.6571 8.00875 20.6486 8.00723 20.6404 8.00557C20.607 7.99814 20.5736 7.99072 20.5413 7.98118C20.5209 7.97528 20.5009 7.96891 20.481 7.9624C20.4478 7.95165 20.4204 7.94226 20.4198 7.94165C20.419 7.94105 20.4441 7.92394 20.4482 7.89637C20.4521 7.86911 20.3807 7.85972 20.3704 7.88304C20.3662 7.89259 20.3759 7.90319 20.398 7.9206C20.4019 7.92363 20.4054 7.92712 20.4087 7.93045C20.414 7.93635 20.4186 7.9415 20.4196 7.94196C20.4206 7.94226 20.4703 7.96861 20.4958 8.01602C20.5106 8.04373 20.5158 8.07432 20.5131 8.10719C20.5121 8.12006 20.5112 8.13308 20.5073 8.1455C20.4873 8.20926 20.4937 8.27241 20.5096 8.33617C20.5201 8.37843 20.495 8.4125 20.4437 8.43295C20.4023 8.44961 20.3582 8.45536 20.3178 8.43068C20.2711 8.40221 20.2517 8.33148 20.2736 8.28801C20.2915 8.25242 20.3174 8.21547 20.3176 8.17912C20.3178 8.1143 20.3022 8.04933 20.2892 7.98482C20.288 7.97861 20.2536 7.96861 20.2422 7.9724C20.2128 7.98224 20.1881 7.99996 20.1605 8.01329C20.1036 8.04055 20.0462 8.06736 19.9883 8.09371C19.9772 8.0987 19.9623 8.10295 19.9498 8.10219C19.9302 8.10098 19.8979 8.09825 19.8948 8.09083C19.8886 8.0775 19.8946 8.05479 19.908 8.0463C19.9891 7.99511 20.0789 7.95089 20.1555 7.89652C20.1996 7.86548 20.241 7.83201 20.2818 7.79823C20.3491 7.7422 20.4006 7.69449 20.3973 7.69192C20.394 7.68934 20.3607 7.69692 20.323 7.70873C20.3001 7.71585 20.2773 7.72281 20.254 7.72887C20.1337 7.76067 20.0414 7.73099 19.9984 7.64815C19.9759 7.60499 19.9947 7.55864 20.046 7.53456C20.0952 7.51154 20.1321 7.52881 20.1704 7.55395C20.2315 7.59408 20.3036 7.59666 20.3778 7.57606C20.4196 7.5644 20.4595 7.54941 20.5009 7.53699C20.5603 7.51897 20.5967 7.52578 20.6313 7.56531C20.6519 7.58878 20.6626 7.61725 20.6816 7.64179C20.6931 7.65693 20.709 7.67329 20.7287 7.67995C20.7386 7.68313 20.7613 7.66602 20.7782 7.65845C20.8138 7.64239 20.8476 7.62119 20.8863 7.61271C20.9065 7.60832 20.9522 7.62331 20.9572 7.63588C20.9654 7.65648 20.958 7.68586 20.9419 7.70434C20.9108 7.74008 20.9156 7.77082 20.9693 7.78006C21.0097 7.78703 21.0531 7.79096 21.0939 7.78763C21.1728 7.78127 21.2049 7.73402 21.1705 7.68132C21.158 7.66208 21.1403 7.64467 21.1258 7.62604C21.0985 7.59121 21.1135 7.56773 21.1677 7.57152C21.3032 7.58091 21.428 7.64391 21.3749 7.77128C21.3473 7.83776 21.2795 7.87774 21.1899 7.89667C21.1563 7.9041 21.1215 7.90818 21.0869 7.91242C21.0175 7.92121 20.9658 7.96301 20.9522 8.0142C20.9487 8.02722 20.9421 8.03994 20.9345 8.05251C20.9221 8.07296 20.9384 8.114 20.9724 8.10461C20.9856 8.10113 20.9924 8.0875 20.9988 8.06205C21.0058 8.03449 21.0163 8.00632 21.033 7.98118C21.04 7.97058 21.0676 7.96195 21.0851 7.9624C21.0989 7.96286 21.1176 7.97709 21.1238 7.9883C21.1337 8.00647 21.1401 8.02722 21.1386 8.04661C21.1359 8.08523 21.1627 8.09386 21.207 8.09174C21.2301 8.09038 21.2544 8.08841 21.2764 8.09204C21.2931 8.09507 21.3195 8.10658 21.3195 8.11415C21.3195 8.12657 21.3048 8.14278 21.29 8.1502C21.2665 8.16231 21.2385 8.17291 21.2107 8.17609C21.1693 8.18034 21.1602 8.1973 21.1502 8.2235C21.1403 8.24924 21.1201 8.27711 21.0929 8.29392C21.0486 8.32148 21.0031 8.30876 20.9926 8.26106C20.9819 8.21168 20.9504 8.20123 20.8921 8.20548C20.882 8.20638 20.8717 8.20517 20.8612 8.20381C20.8443 8.20139 20.8179 8.23516 20.8498 8.26636C20.8674 8.28362 20.895 8.2968 20.9302 8.30255C21.083 8.32754 21.2245 8.31013 21.3386 8.22425C21.4344 8.15232 21.3967 8.04025 21.2661 8.00511C21.2369 7.99739 21.2045 7.99512 21.1773 7.98467C21.1615 7.97876 21.1454 7.96255 21.1444 7.94998C21.1436 7.94135 21.1672 7.93075 21.1815 7.92242C21.1868 7.91924 21.1961 7.91894 21.2037 7.91818C21.2943 7.90803 21.4694 7.9674 21.5147 8.02328C21.5693 8.09098 21.5534 8.20229 21.4809 8.27029Z" fill="url(#paint40_linear)"/>
<path d="M20.8191 7.93922C20.8262 7.93899 20.8331 7.93781 20.8403 7.9364C20.8518 7.93451 20.8607 7.92815 20.8599 7.92274C20.8592 7.91732 20.8181 7.89942 20.768 7.8827C20.718 7.86598 20.6963 7.88176 20.674 7.9046C20.6628 7.91614 20.6429 7.92226 20.6214 7.92933C20.602 7.93569 20.5888 7.96348 20.5785 7.9835C20.5752 7.99033 20.5926 8.01482 20.5949 8.01388C20.6151 8.00893 20.6421 8.00375 20.6506 7.99009C20.6912 7.92462 20.7575 7.94111 20.8191 7.93922Z" fill="url(#paint41_linear)"/>
<path d="M18.1176 5.22193C18.1531 5.23951 18.1926 5.25889 18.2357 5.28006C18.2802 5.29809 18.3282 5.31762 18.3796 5.33848C19.2372 5.68697 20.187 5.85972 21.1748 5.78669C21.4585 5.76567 21.7401 5.72185 22.0113 5.65835C22.472 5.55059 22.91 5.41674 23.3125 5.22148C23.3437 5.20627 23.3709 5.19331 23.3965 5.18123C23.28 5.07481 23.1519 4.97509 22.9988 4.88849C22.8566 4.80816 22.711 4.7302 22.6047 4.62378C22.3112 4.32985 22.4445 3.90579 22.841 3.69786C22.8372 3.69205 22.8339 3.68639 22.8301 3.68057C22.5758 3.2756 22.2675 3.03979 21.9986 3.03979C21.8948 3.03979 21.7887 3.07348 21.6833 3.13981C21.409 3.31226 21.0647 3.40736 20.7147 3.40736C20.3647 3.40736 20.0206 3.31226 19.7463 3.13981C19.6409 3.07348 19.5348 3.03979 19.431 3.03979C19.1581 3.03979 18.8572 3.26963 18.6055 3.67029C18.3185 4.12758 18.0543 4.54865 18.0543 5.0839C18.0543 5.09627 18.0491 5.10805 18.041 5.11893C18.0522 5.13786 18.056 5.16275 18.0545 5.19167C18.0749 5.20136 18.0941 5.2106 18.1176 5.22193ZM19.3534 5.04962C19.3056 5.06587 19.2407 5.08375 19.1733 5.09344C19.1063 5.10402 19.0369 5.10656 18.9838 5.10537C18.9308 5.10417 18.8938 5.09747 18.8938 5.09747C18.8938 5.09747 18.9239 5.08062 18.9718 5.06423C19.0196 5.04783 19.0845 5.03009 19.1519 5.02041C19.2189 5.00982 19.2883 5.00759 19.3414 5.00848C19.3944 5.00967 19.4314 5.01623 19.4314 5.01623C19.4314 5.01623 19.401 5.03322 19.3534 5.04962ZM22.446 5.10537C22.3932 5.10656 22.3237 5.10402 22.2567 5.09344C22.1893 5.08375 22.1242 5.06572 22.0766 5.04962C22.029 5.03322 21.9986 5.01653 21.9986 5.01653C21.9986 5.01653 22.0358 5.00997 22.0887 5.00878C22.1415 5.00774 22.2114 5.01012 22.2784 5.0207C22.3455 5.03039 22.4104 5.04813 22.4583 5.06453C22.5061 5.08092 22.5363 5.09776 22.5363 5.09776C22.5363 5.09776 22.499 5.10417 22.446 5.10537ZM22.6602 4.8566C22.7411 4.86554 22.7948 4.87746 22.7948 4.87746C22.7948 4.87746 22.7409 4.88939 22.6602 4.89833C22.5795 4.90713 22.4722 4.91518 22.3643 4.91473C22.2567 4.91518 22.1492 4.90742 22.0683 4.89848C21.9876 4.88954 21.9339 4.87746 21.9339 4.87746C21.9339 4.87746 21.9878 4.86539 22.0683 4.85645C22.1492 4.84751 22.2565 4.83975 22.3643 4.8402C22.472 4.83975 22.5795 4.8478 22.6602 4.8566ZM21.9337 4.74123C21.9337 4.74123 21.9666 4.72946 22.0142 4.71887C22.0618 4.70844 22.1238 4.69726 22.1852 4.6904C22.2465 4.68295 22.3083 4.67952 22.3526 4.67356C22.3742 4.67013 22.3932 4.66745 22.4029 4.66283C22.4148 4.6594 22.4183 4.65001 22.4187 4.65135C22.4167 4.65195 22.4256 4.65642 22.4204 4.66983C22.4148 4.68221 22.4017 4.69935 22.379 4.71082C22.3355 4.73631 22.2698 4.75658 22.2022 4.76389C22.135 4.77223 22.0668 4.76821 22.0165 4.76076C21.9664 4.7536 21.9337 4.74123 21.9337 4.74123ZM21.6288 3.49291C21.6939 3.41004 21.7975 3.30928 21.9383 3.29572C22.0724 3.2829 22.1991 3.34207 22.2806 3.41362C22.3139 3.44268 22.4227 3.56371 22.461 3.63779C22.5425 3.7943 22.3339 3.73468 22.2209 3.69533C22.0756 3.64465 21.9422 3.62811 21.7863 3.60441C21.6735 3.58741 21.5787 3.55686 21.6288 3.49291ZM21.3264 4.39394C21.4125 4.30585 21.541 4.24712 21.6889 4.22849C21.8364 4.20926 21.9851 4.23341 22.1082 4.29497C22.1436 4.3127 22.1521 4.34758 22.1276 4.37277C22.1026 4.39811 22.0539 4.40422 22.019 4.38663C21.8362 4.29452 21.5826 4.32686 21.4547 4.45803C21.4397 4.47353 21.4154 4.48188 21.3907 4.48188C21.3753 4.48188 21.3597 4.47875 21.3459 4.47189C21.3102 4.45401 21.3016 4.41913 21.3264 4.39394ZM20.3112 5.10239C20.4146 5.07481 20.5119 5.03472 20.5918 4.98001C20.6766 4.92188 20.7174 4.85585 20.7611 4.77984C20.7636 4.77492 20.7654 4.77194 20.7673 4.76851C20.6725 4.76553 20.5964 4.70695 20.5964 4.67192C20.5964 4.636 20.676 4.60679 20.7744 4.60679C20.8728 4.60679 20.9524 4.636 20.9524 4.67192C20.9524 4.70695 20.8763 4.76553 20.7815 4.76851C20.7833 4.77194 20.7852 4.77492 20.7877 4.77984C20.7958 4.79385 20.8033 4.81755 20.8193 4.83931C20.9219 4.97837 21.0789 5.04634 21.27 5.11192C21.27 5.11192 21.258 5.11431 21.2361 5.11669C21.2147 5.11684 21.1808 5.12623 21.1429 5.12057C21.1053 5.11535 21.0568 5.11386 21.013 5.09642C20.9067 5.05409 20.8012 4.98419 20.7744 4.8958C20.7856 4.93247 20.7049 5.00207 20.6739 5.02637C20.5986 5.08539 20.5117 5.10611 20.4058 5.12057C20.3678 5.12623 20.3339 5.11684 20.3127 5.11669C20.2906 5.11431 20.2788 5.11192 20.2788 5.11192C20.2788 5.11192 20.2908 5.1079 20.3112 5.10239ZM20.1003 4.39394C20.1248 4.41913 20.1163 4.45401 20.081 4.47174C20.0674 4.47845 20.0516 4.48173 20.0362 4.48173C20.0117 4.48173 19.9876 4.47338 19.9722 4.45788C19.8443 4.32672 19.5914 4.29437 19.4079 4.38649C19.3726 4.40378 19.3243 4.39811 19.2993 4.37262C19.2748 4.34728 19.2833 4.31256 19.3187 4.29482C19.4414 4.23311 19.5901 4.20911 19.738 4.22834C19.8857 4.24697 20.0142 4.30585 20.1003 4.39394ZM19.4959 4.74123C19.4959 4.74123 19.4634 4.7536 19.4131 4.76076C19.363 4.76806 19.2948 4.77223 19.2276 4.76389C19.1604 4.75658 19.0943 4.73631 19.0508 4.71082C19.0281 4.69935 19.015 4.68221 19.0092 4.66983C19.0038 4.65642 19.0129 4.65195 19.0109 4.65135C19.0115 4.65016 19.015 4.6594 19.0269 4.66283C19.0367 4.66745 19.0556 4.67013 19.0772 4.67356C19.1213 4.67952 19.1831 4.68295 19.2444 4.6904C19.306 4.69726 19.368 4.70844 19.4156 4.71887C19.4632 4.7296 19.4959 4.74123 19.4959 4.74123ZM18.9688 3.63779C19.0075 3.56371 19.1159 3.44268 19.1492 3.41362C19.2309 3.34207 19.3578 3.2829 19.4917 3.29572C19.6327 3.30928 19.7361 3.40989 19.8012 3.49291C19.8513 3.55686 19.7567 3.58727 19.6436 3.60441C19.4876 3.62811 19.3543 3.64465 19.2087 3.69533C19.0959 3.73483 18.8873 3.7943 18.9688 3.63779ZM18.7696 4.8566C18.8503 4.8478 18.9578 4.8399 19.0656 4.8402C19.1731 4.83975 19.2808 4.84751 19.3615 4.85645C19.4422 4.86539 19.4961 4.87746 19.4961 4.87746C19.4961 4.87746 19.4422 4.88939 19.3615 4.89848C19.2808 4.90742 19.1733 4.91518 19.0656 4.91473C18.958 4.91518 18.8503 4.90713 18.7696 4.89833C18.6889 4.88939 18.635 4.87746 18.635 4.87746C18.635 4.87746 18.6889 4.86554 18.7696 4.8566Z" fill="url(#paint42_linear)"/>
<path d="M22.8184 4.55041C23.0588 4.7842 23.4501 4.92512 23.6958 5.16039C24.0295 5.48022 24.2547 5.86666 24.4463 6.23677C24.4595 6.26214 24.4725 6.28736 24.4853 6.31332C24.489 6.32029 24.4924 6.3286 24.4973 6.33928C24.5039 6.35352 24.5195 6.36094 24.5261 6.35218C24.5299 6.34759 24.5336 6.34195 24.537 6.33587C24.5427 6.32548 24.5487 6.31451 24.5549 6.30264C24.5611 6.29062 24.5666 6.27994 24.5713 6.27134C24.6411 6.1451 24.6923 5.99572 24.7322 5.80139C24.7552 5.6885 24.7699 5.57472 24.781 5.47829C24.8137 5.19496 24.839 4.77797 24.6803 4.4298C24.5909 4.2334 24.4068 4.03432 24.2114 3.92292C23.871 3.72859 23.3511 3.64373 22.9952 3.85067C22.7002 4.02364 22.5793 4.31825 22.8184 4.55041Z" fill="url(#paint43_linear)"/>
<path d="M20.79 5.94141C20.6794 5.94141 20.582 5.98234 20.5172 6.04509C20.4683 6.09252 20.4375 6.15215 20.4375 6.21775C20.4375 6.37008 20.5956 6.49409 20.7898 6.49409C20.9841 6.49409 21.1422 6.37008 21.1422 6.21775C21.1422 6.15215 21.1116 6.09266 21.0627 6.04522C20.9982 5.98247 20.9006 5.94141 20.79 5.94141Z" fill="url(#paint44_linear)"/>
<path d="M17.1384 7.87572C17.3102 7.87572 17.4788 7.81143 17.6014 7.69944C17.7174 7.5937 17.7723 7.46343 17.7562 7.333C17.7444 7.23732 17.6975 7.14194 17.6476 7.04092L17.6339 7.01319C17.6134 6.97114 17.5933 6.92908 17.5758 6.88642C17.5156 6.74046 17.4827 6.57971 17.4729 6.38027C17.4565 6.04979 17.5128 5.72403 17.5687 5.40849C17.5699 5.40209 17.571 5.39569 17.5721 5.38929L17.5789 5.35089C17.5824 5.33063 17.5894 5.30305 17.5977 5.27166C17.599 5.26709 17.6003 5.26176 17.6018 5.25597C17.604 5.24729 17.5911 5.24896 17.5735 5.26069C17.563 5.2677 17.5525 5.27502 17.542 5.28218C17.4742 5.32819 17.4083 5.38045 17.3445 5.43713C17.1881 5.57624 17.045 5.73866 16.9244 5.88402C16.7343 6.11333 16.471 6.45843 16.3799 6.80658C16.3288 7.00191 16.3432 7.23061 16.4167 7.38938C16.4357 7.43036 16.461 7.47089 16.4893 7.51081C16.5116 7.5425 16.5367 7.57313 16.5643 7.60284C16.5899 7.63057 16.6174 7.65662 16.647 7.68161C16.7814 7.79497 16.9525 7.87572 17.1384 7.87572Z" fill="url(#paint45_linear)"/>
</g>
<path d="M11.5593 5.66492L12.0339 6.52418H13.5699L12.3273 7.05523L12.8019 7.91449L11.5593 7.38344L10.3167 7.91449L10.7914 7.05523L9.54878 6.52418H11.0847L11.5593 5.66492Z" fill="url(#paint46_linear)"/>
<path d="M30.0203 5.66492L30.4949 6.52418H32.0308L30.7882 7.05523L31.2628 7.91449L30.0203 7.38344L28.7777 7.91449L29.2523 7.05523L28.0097 6.52418H29.5456L30.0203 5.66492Z" fill="url(#paint47_linear)"/>
<defs>
<linearGradient id="paint0_linear" x1="3.49939" y1="22.7793" x2="37.6752" y2="22.0606" gradientUnits="userSpaceOnUse">
<stop stop-color="#876F19"/>
<stop offset="0.453125" stop-color="#EAD075"/>
<stop offset="1" stop-color="#88701C"/>
</linearGradient>
<linearGradient id="paint1_linear" x1="20.4117" y1="11.0349" x2="20.4117" y2="24.8519" gradientUnits="userSpaceOnUse">
<stop stop-color="#B0901D"/>
<stop offset="0.427083" stop-color="#EAD075"/>
<stop offset="1" stop-color="#B8961D"/>
</linearGradient>
<linearGradient id="paint2_linear" x1="20.4108" y1="12.1403" x2="20.4108" y2="23.7466" gradientUnits="userSpaceOnUse">
<stop stop-color="#FDDC67"/>
<stop offset="0.484375" stop-color="#FFEFB5" stop-opacity="0.515625"/>
<stop offset="1" stop-color="#F0D266"/>
</linearGradient>
<linearGradient id="paint3_linear" x1="20.4132" y1="16.2854" x2="20.4132" y2="20.7068" gradientUnits="userSpaceOnUse">
<stop stop-color="#D6AD1C"/>
<stop offset="1" stop-color="#826910" stop-opacity="0.86"/>
</linearGradient>
<linearGradient id="paint4_linear" x1="20.4126" y1="18.0817" x2="20.4126" y2="19.7397" gradientUnits="userSpaceOnUse">
<stop stop-color="#D6AD1C"/>
<stop offset="1" stop-color="#826910" stop-opacity="0.86"/>
</linearGradient>
<linearGradient id="paint5_linear" x1="20.4124" y1="18.9106" x2="20.4124" y2="19.0488" gradientUnits="userSpaceOnUse">
<stop stop-color="#D6AD1C"/>
<stop offset="1" stop-color="#826910" stop-opacity="0.86"/>
</linearGradient>
<linearGradient id="paint6_linear" x1="20.4121" y1="14.0747" x2="20.4121" y2="16.8381" gradientUnits="userSpaceOnUse">
<stop stop-color="#D6AD1C"/>
<stop offset="1" stop-color="#826910" stop-opacity="0.86"/>
</linearGradient>
<linearGradient id="paint7_linear" x1="23.4418" y1="14.7656" x2="23.4418" y2="17.3909" gradientUnits="userSpaceOnUse">
<stop stop-color="#D6AD1C"/>
<stop offset="1" stop-color="#826910" stop-opacity="0.86"/>
</linearGradient>
<linearGradient id="paint8_linear" x1="20.4832" y1="16.9763" x2="20.4832" y2="17.529" gradientUnits="userSpaceOnUse">
<stop stop-color="#D6AD1C"/>
<stop offset="1" stop-color="#826910" stop-opacity="0.86"/>
</linearGradient>
<linearGradient id="paint9_linear" x1="16.7476" y1="16.2854" x2="16.7476" y2="18.9106" gradientUnits="userSpaceOnUse">
<stop stop-color="#D6AD1C"/>
<stop offset="1" stop-color="#826910" stop-opacity="0.86"/>
</linearGradient>
<linearGradient id="paint10_linear" x1="11.2527" y1="16.6998" x2="11.2527" y2="19.1869" gradientUnits="userSpaceOnUse">
<stop stop-color="#D6AD1C"/>
<stop offset="1" stop-color="#967C1F"/>
</linearGradient>
<linearGradient id="paint11_linear" x1="29.7136" y1="16.6998" x2="29.7136" y2="19.1869" gradientUnits="userSpaceOnUse">
<stop stop-color="#D6AD1C"/>
<stop offset="1" stop-color="#967C1F"/>
</linearGradient>
<linearGradient id="paint12_linear" x1="3.49939" y1="19.1011" x2="37.6752" y2="18.3823" gradientUnits="userSpaceOnUse">
<stop stop-color="#876F19"/>
<stop offset="0.453125" stop-color="#EAD075"/>
<stop offset="1" stop-color="#88701C"/>
</linearGradient>
<linearGradient id="paint13_linear" x1="20.4117" y1="7.35669" x2="20.4117" y2="21.1737" gradientUnits="userSpaceOnUse">
<stop stop-color="#B0901D"/>
<stop offset="0.427083" stop-color="#EAD075"/>
<stop offset="1" stop-color="#B8961D"/>
</linearGradient>
<linearGradient id="paint14_linear" x1="20.4108" y1="8.46204" x2="20.4108" y2="20.0683" gradientUnits="userSpaceOnUse">
<stop stop-color="#FDDC67"/>
<stop offset="0.484375" stop-color="#FFEFB5" stop-opacity="0.515625"/>
<stop offset="1" stop-color="#F0D266"/>
</linearGradient>
<linearGradient id="paint15_linear" x1="20.4132" y1="12.6072" x2="20.4132" y2="17.0286" gradientUnits="userSpaceOnUse">
<stop stop-color="#D6AD1C"/>
<stop offset="1" stop-color="#826910" stop-opacity="0.86"/>
</linearGradient>
<linearGradient id="paint16_linear" x1="20.4126" y1="14.4034" x2="20.4126" y2="16.0615" gradientUnits="userSpaceOnUse">
<stop stop-color="#D6AD1C"/>
<stop offset="1" stop-color="#826910" stop-opacity="0.86"/>
</linearGradient>
<linearGradient id="paint17_linear" x1="20.4124" y1="15.2324" x2="20.4124" y2="15.3706" gradientUnits="userSpaceOnUse">
<stop stop-color="#D6AD1C"/>
<stop offset="1" stop-color="#826910" stop-opacity="0.86"/>
</linearGradient>
<linearGradient id="paint18_linear" x1="20.4121" y1="10.3965" x2="20.4121" y2="13.1599" gradientUnits="userSpaceOnUse">
<stop stop-color="#D6AD1C"/>
<stop offset="1" stop-color="#826910" stop-opacity="0.86"/>
</linearGradient>
<linearGradient id="paint19_linear" x1="23.4418" y1="11.0874" x2="23.4418" y2="13.7126" gradientUnits="userSpaceOnUse">
<stop stop-color="#D6AD1C"/>
<stop offset="1" stop-color="#826910" stop-opacity="0.86"/>
</linearGradient>
<linearGradient id="paint20_linear" x1="20.4832" y1="13.2981" x2="20.4832" y2="13.8508" gradientUnits="userSpaceOnUse">
<stop stop-color="#D6AD1C"/>
<stop offset="1" stop-color="#826910" stop-opacity="0.86"/>
</linearGradient>
<linearGradient id="paint21_linear" x1="16.7476" y1="12.6072" x2="16.7476" y2="15.2324" gradientUnits="userSpaceOnUse">
<stop stop-color="#D6AD1C"/>
<stop offset="1" stop-color="#826910" stop-opacity="0.86"/>
</linearGradient>
<linearGradient id="paint22_linear" x1="11.2527" y1="13.0216" x2="11.2527" y2="15.5087" gradientUnits="userSpaceOnUse">
<stop stop-color="#D6AD1C"/>
<stop offset="1" stop-color="#967C1F"/>
</linearGradient>
<linearGradient id="paint23_linear" x1="29.7136" y1="13.0216" x2="29.7136" y2="15.5087" gradientUnits="userSpaceOnUse">
<stop stop-color="#D6AD1C"/>
<stop offset="1" stop-color="#967C1F"/>
</linearGradient>
<linearGradient id="paint24_linear" x1="3.80603" y1="15.4227" x2="37.9819" y2="14.704" gradientUnits="userSpaceOnUse">
<stop stop-color="#876F19"/>
<stop offset="0.453125" stop-color="#EAD075"/>
<stop offset="1" stop-color="#88701C"/>
</linearGradient>
<linearGradient id="paint25_linear" x1="20.7184" y1="3.67834" x2="20.7184" y2="17.4954" gradientUnits="userSpaceOnUse">
<stop stop-color="#B0901D"/>
<stop offset="0.427083" stop-color="#EAD075"/>
<stop offset="1" stop-color="#B8961D"/>
</linearGradient>
<linearGradient id="paint26_linear" x1="20.7174" y1="4.78369" x2="20.7174" y2="16.39" gradientUnits="userSpaceOnUse">
<stop stop-color="#FDDC67"/>
<stop offset="0.484375" stop-color="#FFEFB5" stop-opacity="0.515625"/>
<stop offset="1" stop-color="#F0D266"/>
</linearGradient>
<linearGradient id="paint27_linear" x1="20.7199" y1="8.92883" x2="20.7199" y2="13.3503" gradientUnits="userSpaceOnUse">
<stop stop-color="#D6AD1C"/>
<stop offset="1" stop-color="#826910" stop-opacity="0.86"/>
</linearGradient>
<linearGradient id="paint28_linear" x1="20.7193" y1="10.7251" x2="20.7193" y2="12.3831" gradientUnits="userSpaceOnUse">
<stop stop-color="#D6AD1C"/>
<stop offset="1" stop-color="#826910" stop-opacity="0.86"/>
</linearGradient>
<linearGradient id="paint29_linear" x1="20.7191" y1="11.5541" x2="20.7191" y2="11.6922" gradientUnits="userSpaceOnUse">
<stop stop-color="#D6AD1C"/>
<stop offset="1" stop-color="#826910" stop-opacity="0.86"/>
</linearGradient>
<linearGradient id="paint30_linear" x1="20.7188" y1="6.71814" x2="20.7188" y2="9.48154" gradientUnits="userSpaceOnUse">
<stop stop-color="#D6AD1C"/>
<stop offset="1" stop-color="#826910" stop-opacity="0.86"/>
</linearGradient>
<linearGradient id="paint31_linear" x1="23.7484" y1="7.40906" x2="23.7484" y2="10.0343" gradientUnits="userSpaceOnUse">
<stop stop-color="#D6AD1C"/>
<stop offset="1" stop-color="#826910" stop-opacity="0.86"/>
</linearGradient>
<linearGradient id="paint32_linear" x1="20.7898" y1="9.61975" x2="20.7898" y2="10.1724" gradientUnits="userSpaceOnUse">
<stop stop-color="#D6AD1C"/>
<stop offset="1" stop-color="#826910" stop-opacity="0.86"/>
</linearGradient>
<linearGradient id="paint33_linear" x1="17.0543" y1="8.92883" x2="17.0543" y2="11.5541" gradientUnits="userSpaceOnUse">
<stop stop-color="#D6AD1C"/>
<stop offset="1" stop-color="#826910" stop-opacity="0.86"/>
</linearGradient>
<linearGradient id="paint34_linear" x1="11.5593" y1="9.34326" x2="11.5593" y2="11.8303" gradientUnits="userSpaceOnUse">
<stop stop-color="#D6AD1C"/>
<stop offset="1" stop-color="#967C1F"/>
</linearGradient>
<linearGradient id="paint35_linear" x1="30.0203" y1="9.34326" x2="30.0203" y2="11.8303" gradientUnits="userSpaceOnUse">
<stop stop-color="#D6AD1C"/>
<stop offset="1" stop-color="#967C1F"/>
</linearGradient>
<linearGradient id="paint36_linear" x1="3.80603" y1="11.7444" x2="37.9819" y2="11.0256" gradientUnits="userSpaceOnUse">
<stop stop-color="#876F19"/>
<stop offset="0.453125" stop-color="#EAD075"/>
<stop offset="1" stop-color="#88701C"/>
</linearGradient>
<linearGradient id="paint37_linear" x1="20.7184" y1="0" x2="20.7184" y2="13.817" gradientUnits="userSpaceOnUse">
<stop stop-color="#B0901D"/>
<stop offset="0.427083" stop-color="#EAD075"/>
<stop offset="1" stop-color="#B8961D"/>
</linearGradient>
<linearGradient id="paint38_linear" x1="20.7174" y1="1.10535" x2="20.7174" y2="12.7116" gradientUnits="userSpaceOnUse">
<stop stop-color="#FDDC67"/>
<stop offset="0.484375" stop-color="#FFEFB5" stop-opacity="0.515625"/>
<stop offset="1" stop-color="#F0D266"/>
</linearGradient>
<linearGradient id="paint39_linear" x1="20.7199" y1="5.25049" x2="20.7199" y2="9.67194" gradientUnits="userSpaceOnUse">
<stop stop-color="#D6AD1C"/>
<stop offset="1" stop-color="#826910" stop-opacity="0.86"/>
</linearGradient>
<linearGradient id="paint40_linear" x1="20.7193" y1="7.04675" x2="20.7193" y2="8.7048" gradientUnits="userSpaceOnUse">
<stop stop-color="#D6AD1C"/>
<stop offset="1" stop-color="#826910" stop-opacity="0.86"/>
</linearGradient>
<linearGradient id="paint41_linear" x1="20.7191" y1="7.87573" x2="20.7191" y2="8.0139" gradientUnits="userSpaceOnUse">
<stop stop-color="#D6AD1C"/>
<stop offset="1" stop-color="#826910" stop-opacity="0.86"/>
</linearGradient>
<linearGradient id="paint42_linear" x1="20.7188" y1="3.03979" x2="20.7188" y2="5.8032" gradientUnits="userSpaceOnUse">
<stop stop-color="#D6AD1C"/>
<stop offset="1" stop-color="#826910" stop-opacity="0.86"/>
</linearGradient>
<linearGradient id="paint43_linear" x1="23.7484" y1="3.73071" x2="23.7484" y2="6.35595" gradientUnits="userSpaceOnUse">
<stop stop-color="#D6AD1C"/>
<stop offset="1" stop-color="#826910" stop-opacity="0.86"/>
</linearGradient>
<linearGradient id="paint44_linear" x1="20.7898" y1="5.94141" x2="20.7898" y2="6.49409" gradientUnits="userSpaceOnUse">
<stop stop-color="#D6AD1C"/>
<stop offset="1" stop-color="#826910" stop-opacity="0.86"/>
</linearGradient>
<linearGradient id="paint45_linear" x1="17.0543" y1="5.25049" x2="17.0543" y2="7.87572" gradientUnits="userSpaceOnUse">
<stop stop-color="#D6AD1C"/>
<stop offset="1" stop-color="#826910" stop-opacity="0.86"/>
</linearGradient>
<linearGradient id="paint46_linear" x1="11.5593" y1="5.66492" x2="11.5593" y2="8.15198" gradientUnits="userSpaceOnUse">
<stop stop-color="#D6AD1C"/>
<stop offset="1" stop-color="#967C1F"/>
</linearGradient>
<linearGradient id="paint47_linear" x1="30.0203" y1="5.66492" x2="30.0203" y2="8.15198" gradientUnits="userSpaceOnUse">
<stop stop-color="#D6AD1C"/>
<stop offset="1" stop-color="#967C1F"/>
</linearGradient>
<clipPath id="clip0">
<rect width="8.87882" height="8.70473" fill="white" transform="translate(16.043 12.9694)"/>
</clipPath>
<clipPath id="clip1">
<rect width="8.87882" height="8.70473" fill="white" transform="translate(16.043 9.29114)"/>
</clipPath>
<clipPath id="clip2">
<rect width="8.87882" height="8.70473" fill="white" transform="translate(16.3496 5.61279)"/>
</clipPath>
<clipPath id="clip3">
<rect width="8.87882" height="8.70473" fill="white" transform="translate(16.3496 1.93445)"/>
</clipPath>
</defs>
</svg>
