<svg width="16" height="13" viewBox="0 0 16 13" fill="none" xmlns="http://www.w3.org/2000/svg">
<mask id="path-1-outside-1" maskUnits="userSpaceOnUse" x="0" y="0" width="16" height="13" fill="black">
<rect fill="white" width="16" height="13"/>
<path d="M14.7769 3.30669C14.7079 3.30669 14.6418 3.33017 14.5931 3.37197C14.5443 3.41378 14.5169 3.47047 14.5169 3.52959V9.87567C14.5165 9.92457 14.4975 9.97203 14.4628 10.0108C14.4281 10.0496 14.3796 10.0777 14.3246 10.0906L8.27835 11.4862V10.8307L13.1718 9.63181C13.3344 9.59141 13.4774 9.50692 13.5793 9.39099C13.6812 9.27507 13.7366 9.13395 13.7371 8.98878V2.44088L14.1892 2.33612C14.2277 2.32711 14.2682 2.32584 14.3073 2.33241C14.3465 2.33899 14.3834 2.35323 14.4151 2.37403C14.4468 2.39483 14.4725 2.42162 14.4902 2.45232C14.5078 2.48302 14.517 2.51681 14.5169 2.55104C14.5169 2.61016 14.5443 2.66686 14.5931 2.70866C14.6418 2.75046 14.7079 2.77395 14.7769 2.77395C14.8458 2.77395 14.9119 2.75046 14.9607 2.70866C15.0094 2.66686 15.0368 2.61016 15.0368 2.55104C15.0368 2.44841 15.0093 2.34714 14.9563 2.25511C14.9034 2.16307 14.8264 2.08274 14.7313 2.02033C14.6363 1.95792 14.5258 1.91512 14.4084 1.89524C14.291 1.87537 14.1698 1.87895 14.0542 1.90571L13.7371 1.97914V1.66865C13.7371 1.56515 13.7091 1.46307 13.6552 1.37044C13.6014 1.2778 13.5232 1.19715 13.4269 1.13483C13.3305 1.0725 13.2186 1.03021 13.0999 1.01128C12.9813 0.99235 12.8591 0.997297 12.743 1.02573L8.01841 2.18325L3.29377 1.02573C3.17772 0.997297 3.05555 0.99235 2.93689 1.01128C2.81823 1.03021 2.70632 1.0725 2.60995 1.13483C2.51359 1.19715 2.43542 1.2778 2.38158 1.37044C2.32774 1.46307 2.29972 1.56515 2.29971 1.66865V1.97911L1.98227 1.90556C1.86672 1.87884 1.74556 1.8753 1.62816 1.89521C1.51077 1.91513 1.4003 1.95795 1.30531 2.02037C1.21033 2.08279 1.13338 2.16312 1.08043 2.25515C1.02749 2.34718 0.999965 2.44842 1 2.55104V9.87567C1.00078 10.0225 1.05762 10.1652 1.16182 10.2817C1.26603 10.3983 1.41187 10.4824 1.57707 10.5212L7.95082 11.9924C7.9951 12.0025 8.04172 12.0025 8.08599 11.9924L14.4612 10.5208C14.626 10.4818 14.7716 10.3977 14.8755 10.2812C14.9794 10.1648 15.0361 10.0223 15.0368 9.87567V3.52959C15.0368 3.47047 15.0094 3.41378 14.9607 3.37197C14.9119 3.33017 14.8458 3.30669 14.7769 3.30669ZM1.51988 9.87567V2.55104C1.51987 2.51685 1.52904 2.48311 1.54668 2.45244C1.56433 2.42178 1.58997 2.39501 1.62163 2.37422C1.65329 2.35343 1.69011 2.33918 1.72924 2.33256C1.76836 2.32594 1.80873 2.32715 1.84723 2.33607L2.29971 2.44084V7.98767C2.29971 8.04679 2.32709 8.10349 2.37584 8.14529C2.42459 8.18709 2.49071 8.21058 2.55965 8.21058C2.62859 8.21058 2.6947 8.18709 2.74345 8.14529C2.7922 8.10349 2.81959 8.04679 2.81959 7.98767V1.66865C2.8196 1.63416 2.82894 1.60014 2.84688 1.56927C2.86482 1.5384 2.89087 1.51153 2.92298 1.49075C2.95509 1.46998 2.99238 1.45588 3.03193 1.44957C3.07147 1.44325 3.11218 1.44489 3.15086 1.45435L7.94695 2.62939C7.99365 2.64095 8.04322 2.64095 8.08992 2.62939L12.8857 1.45435C12.9244 1.44485 12.9651 1.44318 13.0047 1.44947C13.0443 1.45577 13.0816 1.46986 13.1138 1.49064C13.1459 1.51142 13.172 1.53831 13.1899 1.5692C13.2079 1.60009 13.2172 1.63414 13.2172 1.66865V8.98882C13.2171 9.03722 13.1986 9.08427 13.1647 9.12292C13.1307 9.16158 13.0831 9.18976 13.0289 9.20323L8.27835 10.367V3.30669C8.27835 3.24757 8.25096 3.19087 8.20222 3.14907C8.15347 3.10727 8.08735 3.08378 8.01841 3.08378C7.94947 3.08378 7.88335 3.10727 7.8346 3.14907C7.78585 3.19087 7.75847 3.24757 7.75847 3.30669V10.367L3.0082 9.20319C2.95395 9.18974 2.90625 9.16158 2.87224 9.12293C2.83824 9.08427 2.81976 9.0372 2.81959 8.98878C2.81959 8.92966 2.7922 8.87296 2.74345 8.83116C2.6947 8.78936 2.62859 8.76587 2.55965 8.76587C2.49071 8.76587 2.42459 8.78936 2.37584 8.83116C2.32709 8.87296 2.29971 8.92966 2.29971 8.98878C2.30025 9.13398 2.35566 9.27513 2.45762 9.39106C2.55959 9.50699 2.70262 9.59146 2.86529 9.63181L7.75847 10.8307V11.4862L1.71369 10.091C1.65842 10.0781 1.60957 10.0501 1.57458 10.0113C1.53959 9.97239 1.52038 9.92477 1.51988 9.87567Z"/>
</mask>
<path d="M14.7769 3.30669C14.7079 3.30669 14.6418 3.33017 14.5931 3.37197C14.5443 3.41378 14.5169 3.47047 14.5169 3.52959V9.87567C14.5165 9.92457 14.4975 9.97203 14.4628 10.0108C14.4281 10.0496 14.3796 10.0777 14.3246 10.0906L8.27835 11.4862V10.8307L13.1718 9.63181C13.3344 9.59141 13.4774 9.50692 13.5793 9.39099C13.6812 9.27507 13.7366 9.13395 13.7371 8.98878V2.44088L14.1892 2.33612C14.2277 2.32711 14.2682 2.32584 14.3073 2.33241C14.3465 2.33899 14.3834 2.35323 14.4151 2.37403C14.4468 2.39483 14.4725 2.42162 14.4902 2.45232C14.5078 2.48302 14.517 2.51681 14.5169 2.55104C14.5169 2.61016 14.5443 2.66686 14.5931 2.70866C14.6418 2.75046 14.7079 2.77395 14.7769 2.77395C14.8458 2.77395 14.9119 2.75046 14.9607 2.70866C15.0094 2.66686 15.0368 2.61016 15.0368 2.55104C15.0368 2.44841 15.0093 2.34714 14.9563 2.25511C14.9034 2.16307 14.8264 2.08274 14.7313 2.02033C14.6363 1.95792 14.5258 1.91512 14.4084 1.89524C14.291 1.87537 14.1698 1.87895 14.0542 1.90571L13.7371 1.97914V1.66865C13.7371 1.56515 13.7091 1.46307 13.6552 1.37044C13.6014 1.2778 13.5232 1.19715 13.4269 1.13483C13.3305 1.0725 13.2186 1.03021 13.0999 1.01128C12.9813 0.99235 12.8591 0.997297 12.743 1.02573L8.01841 2.18325L3.29377 1.02573C3.17772 0.997297 3.05555 0.99235 2.93689 1.01128C2.81823 1.03021 2.70632 1.0725 2.60995 1.13483C2.51359 1.19715 2.43542 1.2778 2.38158 1.37044C2.32774 1.46307 2.29972 1.56515 2.29971 1.66865V1.97911L1.98227 1.90556C1.86672 1.87884 1.74556 1.8753 1.62816 1.89521C1.51077 1.91513 1.4003 1.95795 1.30531 2.02037C1.21033 2.08279 1.13338 2.16312 1.08043 2.25515C1.02749 2.34718 0.999965 2.44842 1 2.55104V9.87567C1.00078 10.0225 1.05762 10.1652 1.16182 10.2817C1.26603 10.3983 1.41187 10.4824 1.57707 10.5212L7.95082 11.9924C7.9951 12.0025 8.04172 12.0025 8.08599 11.9924L14.4612 10.5208C14.626 10.4818 14.7716 10.3977 14.8755 10.2812C14.9794 10.1648 15.0361 10.0223 15.0368 9.87567V3.52959C15.0368 3.47047 15.0094 3.41378 14.9607 3.37197C14.9119 3.33017 14.8458 3.30669 14.7769 3.30669ZM1.51988 9.87567V2.55104C1.51987 2.51685 1.52904 2.48311 1.54668 2.45244C1.56433 2.42178 1.58997 2.39501 1.62163 2.37422C1.65329 2.35343 1.69011 2.33918 1.72924 2.33256C1.76836 2.32594 1.80873 2.32715 1.84723 2.33607L2.29971 2.44084V7.98767C2.29971 8.04679 2.32709 8.10349 2.37584 8.14529C2.42459 8.18709 2.49071 8.21058 2.55965 8.21058C2.62859 8.21058 2.6947 8.18709 2.74345 8.14529C2.7922 8.10349 2.81959 8.04679 2.81959 7.98767V1.66865C2.8196 1.63416 2.82894 1.60014 2.84688 1.56927C2.86482 1.5384 2.89087 1.51153 2.92298 1.49075C2.95509 1.46998 2.99238 1.45588 3.03193 1.44957C3.07147 1.44325 3.11218 1.44489 3.15086 1.45435L7.94695 2.62939C7.99365 2.64095 8.04322 2.64095 8.08992 2.62939L12.8857 1.45435C12.9244 1.44485 12.9651 1.44318 13.0047 1.44947C13.0443 1.45577 13.0816 1.46986 13.1138 1.49064C13.1459 1.51142 13.172 1.53831 13.1899 1.5692C13.2079 1.60009 13.2172 1.63414 13.2172 1.66865V8.98882C13.2171 9.03722 13.1986 9.08427 13.1647 9.12292C13.1307 9.16158 13.0831 9.18976 13.0289 9.20323L8.27835 10.367V3.30669C8.27835 3.24757 8.25096 3.19087 8.20222 3.14907C8.15347 3.10727 8.08735 3.08378 8.01841 3.08378C7.94947 3.08378 7.88335 3.10727 7.8346 3.14907C7.78585 3.19087 7.75847 3.24757 7.75847 3.30669V10.367L3.0082 9.20319C2.95395 9.18974 2.90625 9.16158 2.87224 9.12293C2.83824 9.08427 2.81976 9.0372 2.81959 8.98878C2.81959 8.92966 2.7922 8.87296 2.74345 8.83116C2.6947 8.78936 2.62859 8.76587 2.55965 8.76587C2.49071 8.76587 2.42459 8.78936 2.37584 8.83116C2.32709 8.87296 2.29971 8.92966 2.29971 8.98878C2.30025 9.13398 2.35566 9.27513 2.45762 9.39106C2.55959 9.50699 2.70262 9.59146 2.86529 9.63181L7.75847 10.8307V11.4862L1.71369 10.091C1.65842 10.0781 1.60957 10.0501 1.57458 10.0113C1.53959 9.97239 1.52038 9.92477 1.51988 9.87567Z" fill="#4F4D50"/>
<path d="M14.7769 3.30669C14.7079 3.30669 14.6418 3.33017 14.5931 3.37197C14.5443 3.41378 14.5169 3.47047 14.5169 3.52959V9.87567C14.5165 9.92457 14.4975 9.97203 14.4628 10.0108C14.4281 10.0496 14.3796 10.0777 14.3246 10.0906L8.27835 11.4862V10.8307L13.1718 9.63181C13.3344 9.59141 13.4774 9.50692 13.5793 9.39099C13.6812 9.27507 13.7366 9.13395 13.7371 8.98878V2.44088L14.1892 2.33612C14.2277 2.32711 14.2682 2.32584 14.3073 2.33241C14.3465 2.33899 14.3834 2.35323 14.4151 2.37403C14.4468 2.39483 14.4725 2.42162 14.4902 2.45232C14.5078 2.48302 14.517 2.51681 14.5169 2.55104C14.5169 2.61016 14.5443 2.66686 14.5931 2.70866C14.6418 2.75046 14.7079 2.77395 14.7769 2.77395C14.8458 2.77395 14.9119 2.75046 14.9607 2.70866C15.0094 2.66686 15.0368 2.61016 15.0368 2.55104C15.0368 2.44841 15.0093 2.34714 14.9563 2.25511C14.9034 2.16307 14.8264 2.08274 14.7313 2.02033C14.6363 1.95792 14.5258 1.91512 14.4084 1.89524C14.291 1.87537 14.1698 1.87895 14.0542 1.90571L13.7371 1.97914V1.66865C13.7371 1.56515 13.7091 1.46307 13.6552 1.37044C13.6014 1.2778 13.5232 1.19715 13.4269 1.13483C13.3305 1.0725 13.2186 1.03021 13.0999 1.01128C12.9813 0.99235 12.8591 0.997297 12.743 1.02573L8.01841 2.18325L3.29377 1.02573C3.17772 0.997297 3.05555 0.99235 2.93689 1.01128C2.81823 1.03021 2.70632 1.0725 2.60995 1.13483C2.51359 1.19715 2.43542 1.2778 2.38158 1.37044C2.32774 1.46307 2.29972 1.56515 2.29971 1.66865V1.97911L1.98227 1.90556C1.86672 1.87884 1.74556 1.8753 1.62816 1.89521C1.51077 1.91513 1.4003 1.95795 1.30531 2.02037C1.21033 2.08279 1.13338 2.16312 1.08043 2.25515C1.02749 2.34718 0.999965 2.44842 1 2.55104V9.87567C1.00078 10.0225 1.05762 10.1652 1.16182 10.2817C1.26603 10.3983 1.41187 10.4824 1.57707 10.5212L7.95082 11.9924C7.9951 12.0025 8.04172 12.0025 8.08599 11.9924L14.4612 10.5208C14.626 10.4818 14.7716 10.3977 14.8755 10.2812C14.9794 10.1648 15.0361 10.0223 15.0368 9.87567V3.52959C15.0368 3.47047 15.0094 3.41378 14.9607 3.37197C14.9119 3.33017 14.8458 3.30669 14.7769 3.30669ZM1.51988 9.87567V2.55104C1.51987 2.51685 1.52904 2.48311 1.54668 2.45244C1.56433 2.42178 1.58997 2.39501 1.62163 2.37422C1.65329 2.35343 1.69011 2.33918 1.72924 2.33256C1.76836 2.32594 1.80873 2.32715 1.84723 2.33607L2.29971 2.44084V7.98767C2.29971 8.04679 2.32709 8.10349 2.37584 8.14529C2.42459 8.18709 2.49071 8.21058 2.55965 8.21058C2.62859 8.21058 2.6947 8.18709 2.74345 8.14529C2.7922 8.10349 2.81959 8.04679 2.81959 7.98767V1.66865C2.8196 1.63416 2.82894 1.60014 2.84688 1.56927C2.86482 1.5384 2.89087 1.51153 2.92298 1.49075C2.95509 1.46998 2.99238 1.45588 3.03193 1.44957C3.07147 1.44325 3.11218 1.44489 3.15086 1.45435L7.94695 2.62939C7.99365 2.64095 8.04322 2.64095 8.08992 2.62939L12.8857 1.45435C12.9244 1.44485 12.9651 1.44318 13.0047 1.44947C13.0443 1.45577 13.0816 1.46986 13.1138 1.49064C13.1459 1.51142 13.172 1.53831 13.1899 1.5692C13.2079 1.60009 13.2172 1.63414 13.2172 1.66865V8.98882C13.2171 9.03722 13.1986 9.08427 13.1647 9.12292C13.1307 9.16158 13.0831 9.18976 13.0289 9.20323L8.27835 10.367V3.30669C8.27835 3.24757 8.25096 3.19087 8.20222 3.14907C8.15347 3.10727 8.08735 3.08378 8.01841 3.08378C7.94947 3.08378 7.88335 3.10727 7.8346 3.14907C7.78585 3.19087 7.75847 3.24757 7.75847 3.30669V10.367L3.0082 9.20319C2.95395 9.18974 2.90625 9.16158 2.87224 9.12293C2.83824 9.08427 2.81976 9.0372 2.81959 8.98878C2.81959 8.92966 2.7922 8.87296 2.74345 8.83116C2.6947 8.78936 2.62859 8.76587 2.55965 8.76587C2.49071 8.76587 2.42459 8.78936 2.37584 8.83116C2.32709 8.87296 2.29971 8.92966 2.29971 8.98878C2.30025 9.13398 2.35566 9.27513 2.45762 9.39106C2.55959 9.50699 2.70262 9.59146 2.86529 9.63181L7.75847 10.8307V11.4862L1.71369 10.091C1.65842 10.0781 1.60957 10.0501 1.57458 10.0113C1.53959 9.97239 1.52038 9.92477 1.51988 9.87567Z" stroke="#4F4D50" stroke-width="0.2" mask="url(#path-1-outside-1)"/>
<path d="M4.3759 3.44161L4.3759 3.44162L4.37636 3.44175L7.0512 4.20592C7.0512 4.20593 7.05121 4.20593 7.05121 4.20593C7.1208 4.22583 7.19543 4.21727 7.25871 4.18214C7.32199 4.14701 7.36872 4.08818 7.38863 4.01859C7.40853 3.949 7.39998 3.87436 7.36485 3.81108C7.32971 3.74779 7.27088 3.70106 7.20129 3.68116L7.20128 3.68115L4.52643 2.91699L4.52643 2.91699L4.526 2.91687C4.45665 2.89773 4.38255 2.90674 4.31981 2.94195C4.25707 2.97716 4.21078 3.03572 4.19099 3.10488C4.17121 3.17405 4.17953 3.24824 4.21416 3.3113C4.24879 3.37436 4.30692 3.42119 4.3759 3.44161Z" fill="#4F4D50" stroke="#4F4D50" stroke-width="0.1"/>
<path d="M7.20134 5.91032L7.20132 5.91031L4.52693 5.14628C4.52685 5.14626 4.52677 5.14624 4.52669 5.14621C4.4922 5.13604 4.45603 5.13278 4.42027 5.13662C4.38443 5.14048 4.34971 5.1514 4.31811 5.16875C4.28651 5.18611 4.25866 5.20955 4.23617 5.23772C4.21368 5.2659 4.197 5.29825 4.18709 5.33291C4.17717 5.36757 4.17422 5.40385 4.17841 5.43966C4.1826 5.47546 4.19384 5.51009 4.21148 5.54152C4.22912 5.57296 4.25282 5.60059 4.2812 5.62282C4.30952 5.645 4.34195 5.66136 4.37661 5.67096C4.37669 5.67098 4.37676 5.671 4.37684 5.67102L7.05124 6.43508C7.05125 6.43508 7.05125 6.43508 7.05126 6.43509C7.12084 6.45499 7.19548 6.44643 7.25876 6.4113C7.32204 6.37617 7.36877 6.31734 7.38867 6.24775C7.40858 6.17816 7.40002 6.10351 7.36489 6.04023C7.32976 5.97695 7.27093 5.93022 7.20134 5.91032Z" fill="#4F4D50" stroke="#4F4D50" stroke-width="0.1"/>
<path d="M7.20134 8.13883L7.20132 8.13883L4.52693 7.3748C4.52685 7.37478 4.52677 7.37475 4.52669 7.37473C4.4922 7.36455 4.45603 7.36129 4.42027 7.36514C4.38443 7.369 4.34971 7.37992 4.31811 7.39727C4.28651 7.41462 4.25866 7.43806 4.23617 7.46624C4.21368 7.49441 4.197 7.52677 4.18709 7.56143C4.17717 7.59609 4.17422 7.63237 4.17841 7.66817C4.1826 7.70398 4.19384 7.7386 4.21148 7.77004C4.22912 7.80148 4.25282 7.82911 4.2812 7.85133C4.30952 7.87351 4.34195 7.88988 4.37661 7.89948C4.37669 7.8995 4.37676 7.89952 4.37684 7.89954L7.05124 8.6636C7.05125 8.6636 7.05125 8.6636 7.05126 8.6636C7.12084 8.6835 7.19548 8.67494 7.25876 8.63981C7.32204 8.60468 7.36877 8.54585 7.38867 8.47626C7.40858 8.40668 7.40002 8.33203 7.36489 8.26875C7.32976 8.20547 7.27093 8.15874 7.20134 8.13883Z" fill="#4F4D50" stroke="#4F4D50" stroke-width="0.1"/>
<path d="M8.9104 4.21665H8.91043L8.97179 4.15795L8.98553 4.20603L8.98559 4.20601C8.98561 4.20601 8.98563 4.206 8.98565 4.20599L11.6599 3.44198C11.6948 3.43271 11.7275 3.4166 11.7562 3.39458C11.785 3.37245 11.809 3.3448 11.827 3.31325C11.845 3.2817 11.8565 3.24688 11.8608 3.21083C11.8651 3.17479 11.8622 3.13824 11.8523 3.10333C11.8423 3.06841 11.8255 3.03584 11.8028 3.00752C11.78 2.97919 11.7519 2.95568 11.72 2.93836C11.6881 2.92105 11.6531 2.91027 11.6169 2.90667C11.581 2.90308 11.5447 2.90667 11.5101 2.91723L8.83579 3.68124L8.84946 3.72933L8.83573 3.68126L8.83576 3.68125C8.77243 3.69925 8.71774 3.73955 8.68179 3.79471C8.64582 3.84988 8.63102 3.91619 8.64011 3.98141C8.6492 4.04663 8.68157 4.10637 8.73124 4.1496C8.78092 4.19283 8.84455 4.21665 8.9104 4.21665Z" fill="#4F4D50" stroke="#4F4D50" stroke-width="0.1"/>
<path d="M8.9104 6.44565H8.91043L8.97179 6.38696L8.98553 6.43503L8.98559 6.43502C8.98561 6.43501 8.98563 6.435 8.98565 6.435L11.6599 5.67099C11.6948 5.66171 11.7275 5.6456 11.7562 5.62358C11.785 5.60145 11.809 5.5738 11.827 5.54225C11.845 5.5107 11.8565 5.47588 11.8608 5.43984C11.8651 5.40379 11.8622 5.36724 11.8523 5.33233C11.8423 5.29742 11.8255 5.26485 11.8028 5.23652C11.78 5.20819 11.7519 5.18468 11.72 5.16737C11.6881 5.15005 11.6531 5.13928 11.6169 5.13567C11.581 5.13209 11.5447 5.13568 11.5101 5.14623L8.83579 5.91024L8.84946 5.95834L8.83573 5.91026L8.83576 5.91025C8.77243 5.92826 8.71774 5.96856 8.68179 6.02371C8.64582 6.07888 8.63102 6.14519 8.64011 6.21041C8.6492 6.27564 8.68157 6.33537 8.73124 6.37861C8.78092 6.42184 8.84455 6.44565 8.9104 6.44565Z" fill="#4F4D50" stroke="#4F4D50" stroke-width="0.1"/>
<path d="M8.9104 8.67465H8.91043L8.98553 8.66404L8.98556 8.66403C8.98559 8.66402 8.98562 8.66401 8.98565 8.664L11.6599 7.89999C11.6948 7.89072 11.7275 7.8746 11.7562 7.85259C11.785 7.83046 11.809 7.80281 11.827 7.77126C11.845 7.7397 11.8565 7.70489 11.8608 7.66884C11.8651 7.6328 11.8622 7.59625 11.8523 7.56133C11.8423 7.52642 11.8255 7.49385 11.8028 7.46552C11.78 7.4372 11.7519 7.41369 11.72 7.39637C11.6881 7.37906 11.6531 7.36828 11.6169 7.36468C11.581 7.36109 11.5447 7.36468 11.5101 7.37523L8.83579 8.13924L8.84946 8.18734L8.83573 8.13926L8.83577 8.13925C8.77244 8.15726 8.71775 8.19756 8.68179 8.25272C8.64582 8.30788 8.63102 8.37419 8.64011 8.43942C8.6492 8.50464 8.68157 8.56438 8.73124 8.60761C8.78092 8.65084 8.84455 8.67465 8.9104 8.67465Z" fill="#4F4D50" stroke="#4F4D50" stroke-width="0.1"/>
</svg>
