<svg width="31" height="28" viewBox="0 0 31 28" fill="none" xmlns="http://www.w3.org/2000/svg">
<path d="M29.753 5.71296C29.605 5.71296 29.463 5.77112 29.3583 5.87466C29.2536 5.97819 29.1948 6.11861 29.1948 6.26503V21.9823C29.1939 22.1035 29.1531 22.221 29.0786 22.3171C29.004 22.4132 28.8998 22.4826 28.7817 22.5147L15.7973 25.9711V24.3475L26.3061 21.3784C26.6553 21.2783 26.9623 21.069 27.1812 20.7819C27.4 20.4948 27.5189 20.1453 27.5201 19.7858V3.56863L28.491 3.30916C28.5737 3.28684 28.6606 3.2837 28.7447 3.29998C28.8288 3.31627 28.908 3.35154 28.9761 3.40305C29.0442 3.45456 29.0994 3.52092 29.1373 3.59696C29.1752 3.673 29.1949 3.75667 29.1948 3.84146C29.1948 3.98787 29.2536 4.1283 29.3583 4.23183C29.463 4.33536 29.605 4.39352 29.753 4.39352C29.9011 4.39352 30.0431 4.33536 30.1477 4.23183C30.2524 4.1283 30.3112 3.98787 30.3112 3.84146C30.3113 3.58726 30.2522 3.33647 30.1384 3.10852C30.0246 2.88058 29.8593 2.68161 29.6552 2.52705C29.4512 2.37248 29.2139 2.26648 28.9617 2.21725C28.7095 2.16802 28.4493 2.17689 28.2012 2.24317L27.5201 2.42502V1.65605C27.5201 1.39971 27.4599 1.14688 27.3443 0.917457C27.2287 0.688032 27.0608 0.488279 26.8538 0.333924C26.6469 0.179569 26.4066 0.0748259 26.1517 0.0279399C25.8969 -0.0189461 25.6346 -0.00669472 25.3853 0.0637297L15.2391 2.93055L5.0929 0.0637297C4.84367 -0.00669472 4.58132 -0.0189461 4.3265 0.0279399C4.07167 0.0748259 3.83133 0.179569 3.62439 0.333924C3.41745 0.488279 3.24957 0.688032 3.13395 0.917457C3.01834 1.14688 2.95815 1.39971 2.95813 1.65605V2.42497L2.27642 2.24279C2.02829 2.17663 1.76809 2.16786 1.51598 2.21718C1.26388 2.26649 1.02664 2.37255 0.822656 2.52714C0.618674 2.68173 0.453428 2.8807 0.339725 3.10862C0.226022 3.33655 0.166918 3.58731 0.166992 3.84146V21.9823C0.16867 22.3461 0.290724 22.6993 0.514506 22.988C0.738288 23.2767 1.05149 23.485 1.40626 23.5811L15.094 27.2247C15.1891 27.25 15.2892 27.25 15.3843 27.2247L29.075 23.58C29.4291 23.4836 29.7416 23.2752 29.9648 22.9868C30.188 22.6983 30.3097 22.3456 30.3112 21.9823V6.26503C30.3112 6.11861 30.2524 5.97819 30.1477 5.87466C30.0431 5.77112 29.9011 5.71296 29.753 5.71296ZM1.28345 21.9823V3.84146C1.28341 3.75677 1.3031 3.67321 1.341 3.59726C1.37889 3.52132 1.43397 3.45503 1.50196 3.40353C1.56995 3.35204 1.64902 3.31673 1.73303 3.30035C1.81705 3.28396 1.90376 3.28694 1.98642 3.30905L2.95813 3.56852V17.3063C2.95813 17.4528 3.01694 17.5932 3.12163 17.6967C3.22632 17.8002 3.3683 17.8584 3.51635 17.8584C3.6644 17.8584 3.80639 17.8002 3.91108 17.6967C4.01577 17.5932 4.07458 17.4528 4.07458 17.3063V1.65605C4.0746 1.57063 4.09466 1.48637 4.13319 1.40992C4.17172 1.33346 4.22766 1.2669 4.29662 1.21545C4.36558 1.164 4.44566 1.12909 4.53058 1.11344C4.6155 1.0978 4.70292 1.10186 4.78598 1.1253L15.0857 4.03551C15.186 4.06413 15.2924 4.06413 15.3927 4.03551L25.6917 1.1253C25.7748 1.10175 25.8623 1.09762 25.9473 1.11321C26.0323 1.12881 26.1124 1.16371 26.1814 1.21517C26.2505 1.26662 26.3065 1.33323 26.345 1.40974C26.3836 1.48625 26.4037 1.57057 26.4037 1.65605V19.7859C26.4033 19.9057 26.3637 20.0223 26.2908 20.118C26.2179 20.2137 26.1156 20.2835 25.9992 20.3169L15.7973 23.1992V5.71296C15.7973 5.56654 15.7385 5.42612 15.6338 5.32259C15.5292 5.21906 15.3872 5.16089 15.2391 5.16089C15.0911 5.16089 14.9491 5.21906 14.8444 5.32259C14.7397 5.42612 14.6809 5.56654 14.6809 5.71296V23.1992L4.47963 20.3168C4.36313 20.2835 4.26069 20.2138 4.18766 20.118C4.11463 20.0223 4.07496 19.9057 4.07458 19.7858C4.07458 19.6394 4.01577 19.4989 3.91108 19.3954C3.80639 19.2919 3.6644 19.2337 3.51635 19.2337C3.3683 19.2337 3.22632 19.2919 3.12163 19.3954C3.01694 19.4989 2.95813 19.6394 2.95813 19.7858C2.9593 20.1454 3.07829 20.495 3.29726 20.7821C3.51623 21.0692 3.8234 21.2784 4.17272 21.3784L14.6809 24.3475V25.9711L1.69966 22.5156C1.58097 22.4838 1.47605 22.4144 1.40091 22.3182C1.32577 22.2219 1.28452 22.1039 1.28345 21.9823Z" fill="#F5F6F7" fillOpacity="0.6"/>
<path d="M6.15367 5.9281L12.8524 7.82075C12.9947 7.86101 13.1474 7.84371 13.2769 7.77264C13.4063 7.70157 13.5019 7.58256 13.5426 7.44178C13.5833 7.30101 13.5658 7.15001 13.494 7.022C13.4221 6.89398 13.3018 6.79945 13.1594 6.75918L6.4607 4.86659C6.31885 4.82786 6.16727 4.84609 6.03894 4.91731C5.9106 4.98854 5.8159 5.107 5.77543 5.24692C5.73496 5.38685 5.752 5.53691 5.82283 5.66448C5.89366 5.79204 6.01257 5.88679 6.15367 5.9281Z" fill="#F5F6F7" fillOpacity="0.6"/>
<path d="M6.1538 11.4495L12.8525 13.3421C12.9949 13.3824 13.1476 13.3651 13.277 13.294C13.4064 13.2229 13.502 13.1039 13.5427 12.9631C13.5835 12.8224 13.566 12.6714 13.4941 12.5433C13.4222 12.4153 13.3019 12.3208 13.1596 12.2805L6.46083 10.3879C6.39012 10.3672 6.31597 10.3606 6.24265 10.3684C6.16933 10.3762 6.09831 10.3983 6.03367 10.4334C5.96903 10.4685 5.91207 10.5159 5.86607 10.5729C5.82007 10.6299 5.78594 10.6954 5.76567 10.7655C5.74539 10.8356 5.73935 10.909 5.74792 10.9814C5.75648 11.0538 5.77947 11.1239 5.81556 11.1875C5.85165 11.2511 5.90012 11.307 5.95818 11.3519C6.01623 11.3969 6.08272 11.43 6.1538 11.4495Z" fill="#F5F6F7" fillOpacity="0.6"/>
<path d="M6.1538 16.969L12.8525 18.8616C12.9949 18.9019 13.1476 18.8846 13.277 18.8135C13.4064 18.7425 13.502 18.6234 13.5427 18.4827C13.5835 18.3419 13.566 18.1909 13.4941 18.0629C13.4222 17.9349 13.3019 17.8403 13.1596 17.8001L6.46083 15.9075C6.39012 15.8868 6.31597 15.8801 6.24265 15.8879C6.16933 15.8957 6.09831 15.9178 6.03367 15.9529C5.96903 15.988 5.91207 16.0354 5.86607 16.0924C5.82007 16.1494 5.78594 16.2149 5.76567 16.285C5.74539 16.3551 5.73935 16.4285 5.74792 16.5009C5.75648 16.5734 5.77947 16.6434 5.81556 16.707C5.85165 16.7706 5.90012 16.8265 5.95818 16.8715C6.01623 16.9164 6.08272 16.9496 6.1538 16.969Z" fill="#F5F6F7" fillOpacity="0.6"/>
<path d="M17.4713 7.84286C17.5233 7.84283 17.5751 7.83559 17.625 7.82133L24.3238 5.92868C24.3956 5.90997 24.4629 5.87727 24.5218 5.8325C24.5806 5.78774 24.6299 5.7318 24.6666 5.66798C24.7034 5.60415 24.7269 5.53372 24.7358 5.4608C24.7446 5.38788 24.7387 5.31395 24.7183 5.24332C24.6979 5.1727 24.6635 5.1068 24.6171 5.0495C24.5706 4.9922 24.5131 4.94464 24.4478 4.90961C24.3825 4.87458 24.3108 4.85279 24.2369 4.8455C24.163 4.83821 24.0884 4.84558 24.0174 4.86717L17.3187 6.75976C17.1891 6.79618 17.0772 6.87771 17.0037 6.98931C16.9301 7.10091 16.8998 7.23505 16.9184 7.36699C16.937 7.49893 17.0032 7.61977 17.1048 7.70723C17.2064 7.79469 17.3366 7.84286 17.4713 7.84286Z" fill="#F5F6F7" fillOpacity="0.6"/>
<path d="M17.4713 13.3634C17.5233 13.3633 17.5751 13.3561 17.625 13.3418L24.3238 11.4492C24.3956 11.4305 24.4629 11.3978 24.5218 11.353C24.5806 11.3082 24.6299 11.2523 24.6666 11.1885C24.7034 11.1247 24.7269 11.0542 24.7358 10.9813C24.7446 10.9084 24.7387 10.8345 24.7183 10.7638C24.6979 10.6932 24.6635 10.6273 24.6171 10.57C24.5706 10.5127 24.5131 10.4652 24.4478 10.4301C24.3825 10.3951 24.3108 10.3733 24.2369 10.366C24.163 10.3587 24.0884 10.3661 24.0174 10.3877L17.3187 12.2803C17.1891 12.3167 17.0772 12.3982 17.0037 12.5098C16.9301 12.6214 16.8998 12.7556 16.9184 12.8875C16.937 13.0194 17.0032 13.1403 17.1048 13.2277C17.2064 13.3152 17.3366 13.3634 17.4713 13.3634Z" fill="#F5F6F7" fillOpacity="0.6"/>
<path d="M17.4713 18.8839C17.5233 18.8838 17.5751 18.8766 17.625 18.8623L24.3238 16.9697C24.3956 16.951 24.4629 16.9183 24.5218 16.8735C24.5806 16.8288 24.6299 16.7728 24.6666 16.709C24.7034 16.6452 24.7269 16.5747 24.7358 16.5018C24.7446 16.4289 24.7387 16.355 24.7183 16.2843C24.6979 16.2137 24.6635 16.1478 24.6171 16.0905C24.5706 16.0332 24.5131 15.9857 24.4478 15.9506C24.3825 15.9156 24.3108 15.8938 24.2369 15.8865C24.163 15.8792 24.0884 15.8866 24.0174 15.9082L17.3187 17.8008C17.1891 17.8372 17.0772 17.9187 17.0037 18.0303C16.9301 18.1419 16.8998 18.2761 16.9184 18.408C16.937 18.5399 17.0032 18.6608 17.1048 18.7482C17.2064 18.8357 17.3366 18.8839 17.4713 18.8839Z" fill="#F5F6F7" fillOpacity="0.6"/>
</svg>
