<svg width="17" height="17" viewBox="0 0 17 17" fill="none" xmlns="http://www.w3.org/2000/svg">
<g clip-path="url(#clip0)">
<path d="M15.1123 4.53479V11.2443H15.8679V4.53479H15.1123Z" fill="white"/>
<path d="M0 4.53479V15.4917C0.000189608 15.5413 0.0101559 15.5904 0.0293299 15.6362C0.0485038 15.682 0.0765099 15.7236 0.111749 15.7586C0.146988 15.7935 0.18877 15.8212 0.23471 15.8401C0.280649 15.8589 0.329847 15.8685 0.379492 15.8683H11.2387V15.1102H0.755609V4.53479H0Z" fill="white"/>
<path d="M8.68945 1.51178V2.26741H12.089V1.51178H8.68945Z" fill="white"/>
<path d="M3.7793 1.51178V2.26741H7.17881V1.51178H3.7793Z" fill="white"/>
<path d="M0.379495 1.51177C0.329606 1.51158 0.280172 1.52127 0.234044 1.54027C0.187915 1.55928 0.146004 1.58722 0.110727 1.6225C0.0754498 1.65778 0.0475039 1.69969 0.0285003 1.74582C0.00949681 1.79195 -0.000188492 1.84139 2.77863e-06 1.89128C2.77863e-06 1.89128 2.77863e-06 4.53478 2.77863e-06 4.91139C-0.000188492 4.96128 0.00949681 5.01071 0.0285003 5.05684C0.0475039 5.10297 0.0754498 5.14488 0.110727 5.18016C0.146004 5.21544 0.187915 5.24339 0.234044 5.26239C0.280172 5.2814 0.329606 5.29108 0.379495 5.29089H15.4917C15.5414 5.2907 15.5906 5.2807 15.6365 5.26147C15.6823 5.24223 15.7239 5.21414 15.7589 5.1788C15.7939 5.14346 15.8216 5.10156 15.8403 5.05551C15.8591 5.00945 15.8686 4.96015 15.8683 4.91042V1.89079C15.8685 1.84115 15.8589 1.79195 15.8401 1.74601C15.8212 1.70007 15.7935 1.65828 15.7586 1.62304C15.7236 1.5878 15.682 1.5598 15.6362 1.54062C15.5904 1.52145 15.5413 1.51148 15.4917 1.51129H13.6019V2.2674H15.1131V4.53381H0.756094V2.2674H2.26779V1.51177H0.379495Z" fill="white"/>
<path d="M12.8451 3.50414e-05C12.6393 -0.0109309 12.4349 0.0390316 12.2573 0.143672C12.0798 0.248312 11.9371 0.402984 11.847 0.588337C11.7634 0.758722 11.7183 0.945409 11.7148 1.13517V2.64643C11.7188 2.83634 11.7646 3.02304 11.8489 3.19326C11.94 3.37759 12.0831 3.53124 12.2604 3.63526C12.4378 3.73928 12.6417 3.78913 12.8471 3.77867C13.0525 3.78945 13.2565 3.73973 13.4339 3.63567C13.6114 3.53162 13.7544 3.37779 13.8452 3.19326C13.9292 3.02285 13.9756 2.83635 13.9812 2.64643V1.13517C13.9755 0.945211 13.9289 0.758709 13.8447 0.588337C13.7545 0.402748 13.6116 0.247916 13.4337 0.143259C13.2559 0.038602 13.0512 -0.0112221 12.8451 3.50414e-05ZM12.8451 0.755666C12.9101 0.745937 12.9766 0.757196 13.0348 0.787808C13.093 0.81842 13.1399 0.86679 13.1687 0.925887C13.1997 0.991741 13.2186 1.06262 13.2246 1.13517V2.64643C13.2186 2.71897 13.1997 2.78985 13.1687 2.85571C13.1392 2.91413 13.0921 2.96175 13.034 2.9918C12.9759 3.02185 12.9098 3.03278 12.8451 3.02304C12.7805 3.03256 12.7144 3.02152 12.6564 2.9915C12.5983 2.96148 12.5512 2.91398 12.5216 2.85571C12.4907 2.78996 12.4727 2.71893 12.4685 2.64643V1.13517C12.4727 1.06267 12.4907 0.991636 12.5216 0.925887C12.5512 0.867512 12.5983 0.819787 12.6563 0.789297C12.7142 0.758808 12.7802 0.747056 12.8451 0.755666Z" fill="white"/>
<path d="M13.6007 10.2008C12.9283 10.2008 12.2711 10.4002 11.712 10.7737C11.153 11.1473 10.7172 11.6782 10.4599 12.2994C10.2026 12.9206 10.1353 13.6042 10.2665 14.2637C10.3977 14.9231 10.7214 15.5289 11.1969 16.0043C11.6723 16.4798 12.278 16.8035 12.9375 16.9347C13.5969 17.0659 14.2804 16.9986 14.9016 16.7413C15.5228 16.4839 16.0537 16.0482 16.4273 15.4891C16.8008 14.9301 17.0002 14.2728 17.0002 13.6004C16.9988 12.6992 16.6402 11.8353 16.003 11.1981C15.3657 10.5608 14.5019 10.2022 13.6007 10.2008ZM13.6007 10.9564C14.1234 10.9569 14.6342 11.1123 15.0686 11.4031C15.503 11.6938 15.8414 12.1068 16.0411 12.5899C16.2408 13.0729 16.2929 13.6043 16.1907 14.117C16.0884 14.6296 15.8365 15.1004 15.4668 15.4699C15.097 15.8393 14.6261 16.0909 14.1134 16.1928C13.6007 16.2946 13.0694 16.2422 12.5865 16.0421C12.1036 15.842 11.6908 15.5033 11.4004 15.0687C11.11 14.6341 10.9549 14.1231 10.9549 13.6004C10.9538 13.2527 11.0215 12.9081 11.1541 12.5866C11.2866 12.2651 11.4815 11.973 11.7274 11.7271C11.9733 11.4812 12.2654 11.2863 12.5869 11.1537C12.9084 11.0211 13.2529 10.9534 13.6007 10.9545V10.9564Z" fill="white"/>
<path d="M13.5954 11.7067C13.4957 11.7085 13.4008 11.7497 13.3313 11.8212C13.2618 11.8928 13.2235 11.9889 13.2246 12.0886V13.5999C13.2241 13.7 13.2633 13.7963 13.3336 13.8675L14.0892 14.6232C14.1606 14.6922 14.2562 14.7304 14.3555 14.7295C14.4548 14.7287 14.5498 14.6889 14.62 14.6187C14.6902 14.5485 14.73 14.4535 14.7308 14.3542C14.7317 14.2549 14.6935 14.1593 14.6245 14.0879L13.9802 13.4466V12.0891C13.9808 12.0385 13.9713 11.9883 13.9521 11.9415C13.9329 11.8947 13.9046 11.8522 13.8687 11.8166C13.8328 11.7809 13.7901 11.7528 13.7432 11.7339C13.6963 11.7151 13.646 11.7058 13.5954 11.7067Z" fill="white"/>
<path d="M7.93494 1.99925e-05C7.72915 -0.010946 7.5247 0.0390165 7.34716 0.143657C7.16962 0.248297 7.02687 0.402969 6.93679 0.588322C6.85252 0.758554 6.80675 0.945248 6.80273 1.13515V2.64641C6.80675 2.83632 6.85252 3.02301 6.93679 3.19325C7.02789 3.37758 7.17094 3.53123 7.34831 3.63525C7.52567 3.73927 7.72959 3.78912 7.93494 3.77865C8.14034 3.78943 8.3444 3.73971 8.52182 3.63566C8.69924 3.5316 8.84224 3.37778 8.9331 3.19325C9.0173 3.02287 9.06384 2.83637 9.06956 2.64641V1.13515C9.06384 0.945195 9.0173 0.758694 8.9331 0.588322C8.84301 0.402969 8.70027 0.248297 8.52273 0.143657C8.34519 0.0390165 8.14073 -0.010946 7.93494 1.99925e-05ZM7.93494 0.75565C7.99997 0.745922 8.0664 0.757181 8.12459 0.787793C8.18277 0.818405 8.22968 0.866774 8.2585 0.925872C8.28951 0.991726 8.30846 1.06261 8.31444 1.13515V2.64641C8.30844 2.71896 8.28949 2.78983 8.2585 2.8557C8.22906 2.91411 8.18193 2.96174 8.12383 2.99178C8.06573 3.02183 7.99962 3.03276 7.93494 3.02302C7.87028 3.03254 7.80426 3.02151 7.74621 2.99148C7.68815 2.96146 7.64099 2.91396 7.61139 2.8557C7.58055 2.78995 7.56254 2.71892 7.55834 2.64641V1.13515C7.56254 1.06265 7.58055 0.99162 7.61139 0.925872C7.64106 0.867497 7.68813 0.819772 7.74608 0.789282C7.80404 0.758792 7.87003 0.747041 7.93494 0.75565Z" fill="white"/>
<path d="M3.02335 2.5759e-05C2.81796 -0.0104561 2.61403 0.0397365 2.43696 0.144349C2.2599 0.248961 2.11753 0.403368 2.02761 0.588328C1.94334 0.758559 1.89757 0.945253 1.89355 1.13516V2.64642C1.89757 2.83633 1.94334 3.02302 2.02761 3.19325C2.11871 3.37759 2.26177 3.53123 2.43913 3.63525C2.61649 3.73927 2.82041 3.78913 3.02576 3.77866C3.23116 3.78944 3.43522 3.73972 3.61264 3.63566C3.79006 3.53161 3.93306 3.37778 4.02392 3.19325C4.10812 3.02288 4.15466 2.83638 4.16038 2.64642V1.13516C4.15466 0.945201 4.10812 0.7587 4.02392 0.588328C3.93367 0.40258 3.79055 0.247643 3.61253 0.142974C3.43452 0.0383058 3.22954 -0.0114258 3.02335 2.5759e-05ZM3.02335 0.755656C3.08838 0.745927 3.15481 0.757187 3.213 0.787799C3.27118 0.818411 3.31809 0.86678 3.34691 0.925878C3.37792 0.991732 3.39687 1.06261 3.40284 1.13516V2.64642C3.39684 2.71896 3.3779 2.78984 3.34691 2.8557C3.31747 2.91412 3.27034 2.96174 3.21224 2.99179C3.15414 3.02184 3.08803 3.03277 3.02335 3.02303C2.95869 3.03255 2.89267 3.02151 2.83462 2.99149C2.77656 2.96147 2.7294 2.91397 2.6998 2.8557C2.66895 2.78995 2.65095 2.71892 2.64675 2.64642V1.13516C2.65095 1.06266 2.66895 0.991626 2.6998 0.925878C2.72947 0.867503 2.77654 0.819777 2.83449 0.789288C2.89245 0.758798 2.95844 0.747047 3.02335 0.755656Z" fill="white"/>
</g>
<defs>
<clipPath id="clip0">
<rect width="17" height="17" fill="white"/>
</clipPath>
</defs>
</svg>
