<svg width="29" height="29" viewBox="0 0 29 29" fill="none" xmlns="http://www.w3.org/2000/svg">
<g clip-path="url(#clip0)">
<path d="M28.9934 7.36273C28.9687 7.22156 28.8757 7.10186 28.7449 7.04307L18.097 2.25056C17.942 2.1807 17.7603 2.20825 17.633 2.32108L14.5 5.09427L11.3669 2.32108C11.2397 2.20831 11.0579 2.1807 10.903 2.25056L0.254972 7.04307C0.12434 7.10186 0.0312104 7.22156 0.00649446 7.36273C-0.0182214 7.50378 0.0285081 7.64799 0.131326 7.74777L3.49486 11.0104L1.5984 14.359C1.48101 14.5663 1.55338 14.8296 1.76034 14.9476L3.60342 15.9995V20.3015C3.60342 20.4558 3.68567 20.5985 3.8192 20.6757L14.2835 26.7295C14.3505 26.7682 14.4252 26.7876 14.5 26.7876C14.5714 26.7876 14.6427 26.7695 14.7074 26.7341C14.7073 26.7343 14.7069 26.7347 14.7068 26.735L25.1807 20.6758C25.3143 20.5986 25.3965 20.4559 25.3965 20.3015V15.9996L27.2397 14.9477C27.4467 14.8296 27.519 14.5664 27.4015 14.359L25.5052 11.0105L28.8686 7.74784C28.9714 7.64799 29.0182 7.50378 28.9934 7.36273ZM18.363 14.076L14.9323 12.0887V6.37317L24.0363 10.9502L18.363 14.076ZM4.96365 10.9502L14.0677 6.37317V12.0887L10.6369 14.076L4.96365 10.9502ZM1.19049 7.57035L11.003 3.15391L13.7352 5.57218L4.11619 10.4082L1.19049 7.57035ZM2.56331 14.4103L4.20141 11.5177L13.8512 16.8343L11.7102 19.6306L2.56331 14.4103ZM14.0676 25.6054L4.46814 20.0521V16.4931L11.6096 20.5689C11.6769 20.6073 11.7506 20.6258 11.8237 20.6258C11.9544 20.6258 12.0828 20.5664 12.1673 20.4562L14.0677 17.9741L14.0676 25.6054ZM14.5 16.2044L11.5211 14.5632L14.5 12.8377L17.4788 14.5632L14.5 16.2044ZM24.5317 20.0521L14.9323 25.6054V17.974L16.8327 20.4561C16.9171 20.5664 17.0455 20.6257 17.1763 20.6257C17.2492 20.6257 17.3231 20.6072 17.3904 20.5688L24.5317 16.4931V20.0521ZM26.4367 14.4103L17.2898 19.6305L15.1488 16.8342L24.7986 11.5176L26.4367 14.4103ZM24.8838 10.4082L15.2648 5.57218L17.9968 3.15391L27.8095 7.57035L24.8838 10.4082Z" fill="#F4F5F6" fillOpacity="0.6"/>
</g>
<defs>
<clipPath id="clip0">
<rect width="29" height="29" fill="white"/>
</clipPath>
</defs>
</svg>
