<svg width="11" height="11" viewBox="0 0 11 11" fill="none" xmlns="http://www.w3.org/2000/svg">
<path d="M1.36322 4.05289L1.0897 4.19509C0.767908 4.36888 0.68746 4.77968 0.896624 5.06408L1.07361 5.31687C1.2345 5.52227 1.2345 5.80667 1.07361 6.01207L0.896624 6.26487C0.68746 6.54926 0.783998 6.96006 1.10579 7.13386L1.37931 7.27605C1.60456 7.40245 1.73328 7.63945 1.68501 7.89225L1.63674 8.19244C1.57239 8.54004 1.84591 8.87184 2.19988 8.88764L2.50558 8.90344C2.76301 8.91924 2.98827 9.09304 3.05262 9.33003L3.13307 9.63023C3.22961 9.97783 3.61576 10.1516 3.95364 10.0094L4.24325 9.88303C4.48459 9.78823 4.75812 9.83563 4.9351 10.0252L5.14427 10.2464C5.38561 10.515 5.82003 10.515 6.04528 10.2464L6.25445 10.0094C6.43143 9.81983 6.70495 9.75663 6.9463 9.85143L7.23591 9.96203C7.57379 10.1042 7.95994 9.91463 8.05648 9.56703L8.13692 9.26683C8.20128 9.01404 8.42654 8.84024 8.68397 8.82444L8.98967 8.80864C9.35973 8.79284 9.61716 8.46104 9.5528 8.11345L9.52063 7.84485C9.47236 7.59205 9.60107 7.33925 9.82633 7.21285L10.0998 7.07066C10.4216 6.89686 10.5021 6.48606 10.2929 6.20167L10.1159 5.94887C9.95504 5.74347 9.95504 5.45907 10.1159 5.25367L10.2929 5.00088C10.5021 4.71648 10.4056 4.30568 10.0838 4.13189L9.81024 3.98969C9.58498 3.86329 9.45627 3.62629 9.50454 3.37349L9.5528 3.0733C9.61716 2.7257 9.34364 2.3939 8.98967 2.3781L8.68397 2.3623C8.42654 2.34651 8.20128 2.17271 8.13692 1.93571L8.05648 1.63551C7.95994 1.28792 7.57379 1.11412 7.23591 1.25632L6.9463 1.38272C6.70495 1.47751 6.43143 1.43011 6.25445 1.24052L6.04528 1.01932C5.80394 0.750722 5.36952 0.750722 5.14427 1.01932L4.9351 1.25632C4.75812 1.44591 4.48459 1.50911 4.24325 1.41431L3.95364 1.30372C3.61576 1.16152 3.22961 1.35112 3.13307 1.69871L3.02045 1.96731C2.95609 2.22011 2.73083 2.3939 2.4734 2.4097L2.1677 2.4255C1.79764 2.4413 1.54021 2.7731 1.60456 3.1207L1.66892 3.42089C1.71719 3.67369 1.58848 3.92649 1.36322 4.05289ZM5.59477 2.5203C7.34854 2.5203 8.76442 3.91069 8.76442 5.63287C8.76442 7.35505 7.34854 8.74544 5.59477 8.74544C3.84101 8.74544 2.42513 7.35505 2.42513 5.63287C2.42513 3.91069 3.84101 2.5203 5.59477 2.5203ZM4.29152 6.02787C4.13062 5.86987 4.13062 5.60127 4.29152 5.42747C4.45242 5.26947 4.72594 5.26947 4.90292 5.42747L5.19254 5.71187L6.28663 4.63748C6.44752 4.47948 6.72104 4.47948 6.89803 4.63748C7.05892 4.79548 7.05892 5.06408 6.89803 5.23788L5.80394 6.31226L5.49824 6.61246C5.33734 6.77046 5.06382 6.77046 4.90292 6.61246L4.59722 6.31226L4.29152 6.02787Z" fill="#2F1642"/>
</svg>
