<svg width="11" height="9" viewBox="0 0 11 9" fill="none" xmlns="http://www.w3.org/2000/svg">
<path fill-rule="evenodd" clip-rule="evenodd" d="M4.02331 5.53735L2.48281 4.02055C1.97819 3.5237 1.55736 3.40933 1.25079 3.50495C1.12701 3.54245 1.01847 3.61557 0.928976 3.70931C0.83567 3.80681 0.76331 3.92868 0.711897 4.06179C0.570985 4.42553 0.59574 4.86238 0.843287 5.10612L3.13023 7.35788C3.5682 7.78911 3.86526 8.0066 4.13756 8.0066C4.41176 8.0066 4.70691 7.79098 5.14488 7.35976L10.1567 2.425C10.4043 2.18126 10.429 1.74628 10.2881 1.38068C10.2367 1.24756 10.1625 1.12569 10.0711 1.0282C9.98156 0.93445 9.87302 0.863204 9.74924 0.823831C9.44076 0.72821 9.02184 0.84258 8.51722 1.33943L4.25371 5.53735L4.13946 5.64984L4.02521 5.53735H4.02331Z" fill="#23B548"/>
</svg>
