<svg width="28" height="28" viewBox="0 0 28 28" fill="none" xmlns="http://www.w3.org/2000/svg">
<path d="M14.3569 0.5C11.663 0.5 9.02959 1.29176 6.7897 2.77516C4.54982 4.25856 2.80404 6.36697 1.77314 8.83377C0.74223 11.3006 0.472498 14.015 0.998049 16.6337C1.5236 19.2525 2.82083 21.6579 4.7257 23.5459C6.63056 25.434 9.05751 26.7197 11.6996 27.2406C14.3418 27.7615 17.0804 27.4942 19.5692 26.4724C22.058 25.4506 24.1853 23.7203 25.6819 21.5002C27.1786 19.2801 27.9774 16.67 27.9774 14C27.9733 10.4208 26.537 6.98942 23.9835 4.45856C21.43 1.9277 17.968 0.504076 14.3569 0.5ZM14.3569 26.5C11.8625 26.5 9.4242 25.7669 7.35024 24.3934C5.27627 23.0199 3.65981 21.0676 2.70526 18.7835C1.75072 16.4995 1.50097 13.9861 1.98759 11.5614C2.47421 9.13661 3.67535 6.90932 5.43912 5.16117C7.20288 3.41301 9.45005 2.2225 11.8965 1.74018C14.3429 1.25787 16.8787 1.50541 19.1831 2.45151C21.4876 3.3976 23.4573 4.99976 24.843 7.05537C26.2288 9.11099 26.9685 11.5277 26.9685 14C26.9647 17.3141 25.6348 20.4913 23.2705 22.8347C20.9062 25.1781 17.7005 26.4963 14.3569 26.5ZM18.8204 16.765C18.7853 16.8207 18.7395 16.869 18.6855 16.9071C18.6316 16.9452 18.5706 16.9724 18.506 16.9871C18.4415 17.0019 18.3746 17.0038 18.3093 16.993C18.244 16.9821 18.1815 16.9585 18.1253 16.9237L14.0896 14.4237C14.0171 14.3788 13.9573 14.3163 13.9158 14.2422C13.8743 14.1681 13.8525 14.0848 13.8524 14V8.5C13.8524 8.36739 13.9056 8.24021 14.0002 8.14645C14.0948 8.05268 14.2231 8 14.3569 8C14.4907 8 14.619 8.05268 14.7136 8.14645C14.8082 8.24021 14.8613 8.36739 14.8613 8.5V13.7226L18.6599 16.0762C18.7734 16.1464 18.854 16.2585 18.8841 16.3876C18.9142 16.5168 18.8913 16.6526 18.8204 16.765ZM24.4146 19.7224C25.4267 17.9821 25.9595 16.0086 25.9595 13.9999C25.9595 11.9912 25.4267 10.0177 24.4146 8.2774C24.4101 8.2685 24.4103 8.2587 24.4052 8.24995C24.4001 8.2412 24.3916 8.2367 24.3862 8.22855C23.3704 6.50242 21.9213 5.06614 20.1798 4.05935C20.1716 4.05395 20.1669 4.04545 20.1582 4.0405C20.1495 4.03555 20.1395 4.03575 20.1306 4.0313C18.3747 3.02809 16.3837 2.50002 14.357 2.50002C12.3303 2.50002 10.3392 3.02809 8.58338 4.0313C8.5744 4.03575 8.56451 4.0355 8.55568 4.04055C8.54685 4.0456 8.54231 4.054 8.53409 4.0594C6.79257 5.06618 5.34349 6.50244 4.32772 8.22855C4.32227 8.23675 4.31364 8.2414 4.30865 8.25C4.30365 8.2586 4.3036 8.26855 4.29931 8.27745C3.28716 10.0178 2.75437 11.9912 2.75437 14C2.75437 16.0087 3.28716 17.9821 4.29931 19.7225C4.3038 19.7313 4.30355 19.7411 4.30865 19.7499C4.31591 19.7625 4.3264 19.7716 4.33463 19.7833C5.35014 21.5041 6.79662 22.9361 8.53409 23.9405C8.54231 23.9459 8.547 23.9544 8.55568 23.9594C8.5687 23.9668 8.58282 23.9698 8.59604 23.9759C10.3488 24.9744 12.3352 25.4999 14.3569 25.4999C16.3786 25.4999 18.3649 24.9744 20.1177 23.9759C20.1311 23.9698 20.1452 23.9668 20.1581 23.9594C20.1667 23.9544 20.1714 23.9459 20.1796 23.9405C21.9172 22.936 23.3638 21.504 24.3793 19.783C24.3874 19.7714 24.3978 19.7623 24.4051 19.7499C24.4103 19.7413 24.4101 19.7314 24.4146 19.7225V19.7224ZM20.0789 22.823L19.5862 21.9771C19.5531 21.9202 19.509 21.8703 19.4565 21.8303C19.4039 21.7904 19.3439 21.761 19.2799 21.744C19.2159 21.727 19.1492 21.7227 19.0835 21.7312C19.0178 21.7398 18.9544 21.7611 18.897 21.7939C18.8397 21.8268 18.7894 21.8705 18.749 21.9226C18.7087 21.9747 18.6791 22.0341 18.6619 22.0976C18.6448 22.161 18.6404 22.2272 18.649 22.2923C18.6577 22.3574 18.6792 22.4202 18.7123 22.4771L19.206 23.3247C17.8584 24.0142 16.3763 24.4065 14.8613 24.4746V23.5C14.8613 23.3674 14.8082 23.2402 14.7136 23.1464C14.619 23.0527 14.4907 23 14.3569 23C14.2231 23 14.0948 23.0527 14.0002 23.1464C13.9056 23.2402 13.8524 23.3674 13.8524 23.5V24.4746C12.3374 24.4065 10.8553 24.0142 9.50776 23.3246L10.0014 22.477C10.0683 22.3621 10.0864 22.2256 10.0518 22.0975C10.0171 21.9694 9.93258 21.8602 9.81669 21.7939C9.7008 21.7276 9.56308 21.7096 9.43383 21.744C9.30458 21.7783 9.19439 21.8621 9.12749 21.977L8.63483 22.823C7.36094 22.0084 6.27692 20.934 5.45504 19.6714L6.30834 19.1831C6.36573 19.1502 6.41602 19.1065 6.45636 19.0544C6.4967 19.0023 6.52629 18.9429 6.54345 18.8794C6.5606 18.816 6.56498 18.7498 6.55634 18.6847C6.5477 18.6196 6.5262 18.5568 6.49308 18.5C6.45995 18.4431 6.41585 18.3932 6.36329 18.3532C6.31073 18.3133 6.25074 18.2839 6.18674 18.2669C6.12274 18.2499 6.05599 18.2456 5.9903 18.2541C5.92461 18.2627 5.86126 18.284 5.80388 18.3169L4.94886 18.8061C4.25321 17.4705 3.85743 16.0015 3.7887 14.5H4.77205C4.90584 14.5 5.03415 14.4473 5.12876 14.3536C5.22336 14.2598 5.27651 14.1326 5.27651 14C5.27651 13.8674 5.22336 13.7402 5.12876 13.6464C5.03415 13.5527 4.90584 13.5 4.77205 13.5H3.7887C3.85745 11.9985 4.25327 10.5294 4.94896 9.19385L5.80398 9.6831C5.86136 9.71593 5.92471 9.73724 5.9904 9.7458C6.05609 9.75437 6.12284 9.75003 6.18684 9.73302C6.25084 9.71602 6.31083 9.68669 6.36339 9.64671C6.41595 9.60673 6.46006 9.55688 6.49318 9.5C6.5263 9.44312 6.5478 9.38034 6.55644 9.31523C6.56508 9.25012 6.5607 9.18396 6.54355 9.12053C6.5264 9.0571 6.4968 8.99763 6.45646 8.94554C6.41612 8.89344 6.36583 8.84973 6.30844 8.8169L5.45514 8.3286C6.27702 7.066 7.36104 5.99158 8.63493 5.177L9.12759 6.02295C9.19449 6.13782 9.30468 6.22164 9.43393 6.25597C9.56318 6.29031 9.7009 6.27235 9.81679 6.20605C9.93268 6.13975 10.0173 6.03053 10.0519 5.90242C10.0865 5.77432 10.0684 5.63782 10.0015 5.52295L9.50786 4.6753C10.8554 3.98579 12.3375 3.59349 13.8524 3.52535V4.5C13.8524 4.63261 13.9056 4.75979 14.0002 4.85355C14.0948 4.94732 14.2231 5 14.3569 5C14.4907 5 14.619 4.94732 14.7136 4.85355C14.8082 4.75979 14.8613 4.63261 14.8613 4.5V3.52535C16.3763 3.59349 17.8584 3.98581 19.206 4.67535L18.7123 5.523C18.6792 5.57988 18.6577 5.64266 18.649 5.70777C18.6404 5.77288 18.6448 5.83904 18.6619 5.90247C18.6966 6.03058 18.7812 6.1398 18.897 6.2061C19.0129 6.2724 19.1507 6.29036 19.2799 6.25602C19.3439 6.23902 19.4039 6.20969 19.4565 6.16971C19.509 6.12973 19.5531 6.07988 19.5862 6.023L20.0789 5.17705C21.3528 5.99163 22.4368 7.06605 23.2587 8.32865L22.4054 8.81695C22.2895 8.88325 22.2049 8.99247 22.1703 9.12058C22.1356 9.24868 22.1538 9.38518 22.2207 9.50005C22.2876 9.61491 22.3977 9.69874 22.527 9.73307C22.6562 9.76741 22.794 9.74945 22.9099 9.68315L23.7649 9.1939C24.4605 10.5295 24.8563 11.9985 24.925 13.5H23.9417C23.8079 13.5 23.6796 13.5527 23.585 13.6464C23.4904 13.7402 23.4372 13.8674 23.4372 14C23.4372 14.1326 23.4904 14.2598 23.585 14.3536C23.6796 14.4473 23.8079 14.5 23.9417 14.5H24.925C24.8563 16.0015 24.4605 17.4706 23.7648 18.8062L22.9098 18.3169C22.8524 18.2841 22.789 18.2628 22.7233 18.2542C22.6576 18.2456 22.5909 18.25 22.5269 18.267C22.4629 18.284 22.4029 18.3133 22.3503 18.3533C22.2978 18.3933 22.2537 18.4431 22.2206 18.5C22.1874 18.5569 22.1659 18.6197 22.1573 18.6848C22.1487 18.7499 22.153 18.816 22.1702 18.8795C22.1873 18.9429 22.2169 19.0024 22.2573 19.0545C22.2976 19.1066 22.3479 19.1503 22.4053 19.1831L23.2586 19.6714C22.4367 20.934 21.3528 22.0084 20.0789 22.823Z" fill="#F5F6F7" fill-opacity="0.6"/>
</svg>
