<svg width="37" height="24" viewBox="0 0 37 24" fill="none" xmlns="http://www.w3.org/2000/svg">
<path d="M0 5C0 2.23858 2.23858 0 5 0H32C34.7614 0 37 2.23858 37 5V19C37 21.7614 34.7614 24 32 24H5C2.23858 24 0 21.7614 0 19V5Z" fill="white" fillOpacity="0.15"/>
<path d="M2 15C2 14.4477 2.44772 14 3 14H11C11.5523 14 12 14.4477 12 15V18C12 18.5523 11.5523 19 11 19H3C2.44772 19 2 18.5523 2 18V15Z" fill="white" fillOpacity="0.15"/>
<path d="M14 16.5C14 16.2239 14.2239 16 14.5 16H18.5C18.7761 16 19 16.2239 19 16.5C19 16.7761 18.7761 17 18.5 17H14.5C14.2239 17 14 16.7761 14 16.5Z" fill="white" fillOpacity="0.15"/>
<path d="M20 16.5C20 16.2239 20.2239 16 20.5 16H25.5C25.7761 16 26 16.2239 26 16.5C26 16.7761 25.7761 17 25.5 17H20.5C20.2239 17 20 16.7761 20 16.5Z" fill="white" fillOpacity="0.15"/>
<path d="M27 16.5C27 16.2239 27.2239 16 27.5 16H32.5C32.7761 16 33 16.2239 33 16.5C33 16.7761 32.7761 17 32.5 17H27.5C27.2239 17 27 16.7761 27 16.5Z" fill="white" fillOpacity="0.15"/>
</svg>
