<svg width="143" height="161" viewBox="0 0 143 161" fill="none" xmlns="http://www.w3.org/2000/svg">
<path d="M122.933 55.4488C122.197 54.2843 121.44 53.1376 120.618 52.041C120.29 52.4411 119.943 52.8662 119.525 53.3555C119.032 53.9306 118.489 54.5629 117.9 55.2559C109.377 65.2113 96.9749 69.9621 84.4869 72.4304C84.1761 72.4911 83.8582 72.5269 83.5439 72.5769C84.3404 74.0879 84.8334 75.7775 84.8334 77.5992C84.8334 83.586 79.9646 88.4548 73.9778 88.4548C67.9911 88.4548 63.1223 83.586 63.1223 77.5992C63.1223 75.7775 63.6153 74.0843 64.4154 72.5733C64.1011 72.5197 63.7831 72.4876 63.4724 72.4268C51.7953 71.173 40.6933 65.122 32.181 57.2205C31.4094 56.5061 30.6879 55.8346 30.0235 55.2166C29.4412 54.5343 28.909 53.9092 28.4268 53.3448C28.3267 53.2269 28.2589 53.1412 28.1624 53.0269C27.9195 54.6951 27.4623 56.4597 27.323 57.4241C26.1871 65.1934 24.9833 73.0162 25.3083 80.8927C25.4584 84.5683 25.9192 88.2583 27.1122 91.7518C27.4337 92.6912 27.7981 93.6164 28.1696 94.5416C29.2805 97.2956 30.4664 100.028 30.7736 103.015C31.6702 111.802 23.9795 119.671 15.2708 119.671C11.5951 119.671 8.18023 118.167 5.28685 115.885C3.86516 132.359 7.14433 148.144 20.3431 158.067C20.3503 158.067 24.0117 160.389 31.0558 160.389C36.0781 160.389 41.5827 159.175 47.4088 156.896C48.5733 156.442 46.2157 150.105 45.8728 149.419C44.0832 145.894 40.7933 142.847 37.1248 141.332C36.3818 141.025 35.6816 140.739 35.0351 140.468C34.3885 140.146 33.7384 140.107 33.1812 139.964C32.6132 139.846 32.1167 139.743 31.7095 139.653C30.8808 139.482 30.4093 139.382 30.4093 139.382C30.4093 139.382 30.8879 139.368 31.7273 139.346C32.1524 139.335 32.6704 139.321 33.2633 139.307C33.8563 139.321 34.5529 139.203 35.2673 139.375C43.4866 141.325 51.7738 145.712 53.8671 154.645C53.9992 155.213 54.1135 155.713 54.21 156.124C54.2386 156.246 54.2493 156.299 54.2743 156.399C59.636 156.867 68.9305 157.599 73.9707 157.599C77.3713 157.599 80.7719 157.371 84.1618 157.139C86.3122 156.992 91.2846 157.657 93.1206 156.463C94.1672 155.781 94.0779 154.456 94.4816 153.249C95.3853 150.537 96.957 147.958 98.9252 145.883C102.965 141.643 108.834 139.16 114.678 139.307C115.271 139.321 115.785 139.335 116.214 139.346C117.05 139.368 117.532 139.382 117.532 139.382C117.532 139.382 117.057 139.482 116.232 139.653C115.825 139.739 115.328 139.846 114.76 139.964C114.203 140.111 113.553 140.146 112.906 140.468C112.256 140.739 111.553 141.025 110.813 141.332C110.059 141.579 109.349 142.032 108.641 142.518C107.941 143.015 107.152 143.397 106.494 143.993C105.859 144.597 105.223 145.211 104.576 145.826C103.93 146.412 103.537 147.23 103.015 147.883L102.301 148.887L101.829 149.998C101.551 150.723 101.151 151.395 101.004 152.027C100.908 152.663 100.801 153.224 100.69 153.731C100.626 153.981 100.572 154.217 100.515 154.442C100.515 154.77 100.515 155.085 100.522 155.378C100.522 155.963 100.522 156.474 100.529 156.896C106.355 159.175 111.86 160.389 116.882 160.389C123.973 160.389 127.641 158.032 127.673 158.003C160.047 133.688 132.56 73.9521 122.933 55.4488ZM73.9671 140.632C61.2148 140.632 50.8415 130.262 50.8415 117.506C50.8415 104.758 61.2184 94.3808 73.9671 94.3808C86.7159 94.3808 97.0928 104.754 97.0928 117.506C97.0928 130.262 86.7159 140.632 73.9671 140.632Z" fill="#6B7781"/>
<path d="M73.9676 97.957C63.1835 97.957 54.4141 106.726 54.4141 117.511C54.4141 128.295 63.1871 137.064 73.9676 137.064C84.7517 137.064 93.5211 128.295 93.5211 117.511C93.5211 106.726 84.7517 97.957 73.9676 97.957ZM74.0748 107.284C76.8396 107.877 78.9042 106.723 80.7224 104.794C81.4654 104.005 82.9621 103.844 83.9408 104.319C84.8696 104.765 85.091 106.201 84.2373 107.094C83.7515 107.605 83.055 108.07 82.3798 108.209C80.5224 108.598 78.9149 109.463 77.3254 110.42C77.1039 110.552 76.8646 110.656 76.6217 110.759C76.2216 110.92 74.8499 110.984 73.989 110.191C73.4711 109.713 73.1425 109.07 73.0889 108.323C73.0389 107.648 73.3175 107.127 74.0748 107.284ZM67.9451 104.126C69.0489 104.515 70.1598 104.955 71.1492 105.566C71.4171 105.73 71.6136 106.005 71.7958 106.305C72.078 106.773 72.2887 107.898 71.7279 108.484C71.4029 108.823 70.9599 108.973 70.3812 108.938C68.2594 108.805 66.7449 107.209 66.7377 105.094C66.7342 104.247 67.1557 103.847 67.9451 104.126ZM87.1771 126.816C85.2304 129.309 79.29 131.577 75.4143 129.659C72.4709 128.205 71.3707 124.348 73.2389 121.643C73.3211 121.522 73.3603 121.372 73.3925 121.215C73.4389 120.968 73.2782 120.722 73.0353 120.675C72.8888 120.647 72.7424 120.611 72.5995 120.572C72.0208 120.397 71.4421 120.222 70.8813 119.997C70.5277 119.857 70.1812 119.707 69.8347 119.554C69.2596 119.3 68.7845 119.079 68.7738 119.064C68.7595 119.05 69.1953 118.646 69.2668 117.996C69.3346 117.353 68.0951 117.132 67.9165 117.682C67.8451 117.907 68.013 118.157 68.3952 118.568C68.463 118.639 68.5238 118.721 68.5809 118.8C68.6738 118.939 68.7524 119.061 68.7702 119.072C68.7881 119.079 69.649 119.7 70.0919 120.818C70.3491 121.472 70.4384 122.194 70.392 122.969C70.3741 123.272 70.3598 123.58 70.2919 123.872C69.9454 125.376 70.0562 126.866 70.3312 128.37C70.5134 129.366 70.0776 130.17 69.1882 130.652C68.4702 131.045 67.7058 131.181 67.0056 130.599C66.1948 129.927 65.859 128.259 66.2376 127.234C66.5484 126.394 66.9985 125.523 67.0021 124.665C67.0056 123.137 66.7341 121.604 66.5091 120.082C66.4877 119.936 65.8911 119.7 65.6947 119.79C65.1839 120.022 64.7552 120.44 64.2766 120.754C63.2907 121.397 62.2941 122.029 61.2903 122.651C61.0974 122.769 60.8402 122.869 60.6223 122.851C60.283 122.822 59.7222 122.758 59.6686 122.583C59.5614 122.269 59.665 121.733 59.8972 121.533C61.3046 120.325 62.862 119.282 64.1908 118C64.9553 117.268 65.6732 116.478 66.3805 115.682C67.5486 114.36 68.4416 113.235 68.3844 113.174C68.3273 113.113 67.7486 113.292 67.0949 113.571C66.6984 113.738 66.3019 113.903 65.8983 114.046C63.8122 114.796 62.2119 114.096 61.4653 112.142C61.076 111.124 61.401 110.031 62.2905 109.463C63.1442 108.92 63.7836 109.327 64.448 109.92C65.5089 110.867 66.7592 110.927 68.0451 110.441C68.7702 110.166 69.4632 109.813 70.1812 109.52C71.21 109.095 71.8422 109.256 72.4423 110.188C72.7995 110.741 72.9853 111.413 73.3139 111.992C73.514 112.349 73.789 112.735 74.1319 112.892C74.3034 112.967 74.6963 112.563 74.9892 112.385C75.6072 112.006 76.193 111.506 76.8646 111.306C77.2146 111.202 78.0076 111.556 78.0933 111.852C78.2362 112.338 78.1076 113.031 77.829 113.467C77.2896 114.31 77.3718 115.035 78.3041 115.253C79.0042 115.417 79.7579 115.51 80.4652 115.432C81.8333 115.282 82.3906 114.167 81.794 112.924C81.5761 112.47 81.2689 112.06 81.0189 111.62C80.5438 110.799 80.8046 110.245 81.744 110.334C84.0944 110.556 86.2591 112.042 85.3375 115.046C84.8589 116.614 83.6836 117.557 82.1298 118.004C81.5475 118.179 80.9439 118.275 80.3438 118.375C79.14 118.582 78.2434 119.568 78.0076 120.775C77.9469 121.083 77.8326 121.383 77.7004 121.679C77.4861 122.161 77.7683 123.129 78.3577 122.908C78.5863 122.826 78.7042 122.504 78.8149 121.904C78.9364 121.254 79.1185 120.59 79.4079 119.997C79.5293 119.747 80.008 119.543 80.3116 119.554C80.5509 119.565 80.876 119.9 80.9832 120.165C81.1546 120.593 81.2654 121.083 81.2403 121.54C81.1939 122.451 81.6583 122.654 82.4263 122.604C82.8264 122.572 83.2479 122.526 83.6301 122.611C83.9194 122.683 84.3766 122.954 84.3766 123.133C84.3766 123.426 84.123 123.808 83.8658 123.983C83.4586 124.269 82.9728 124.519 82.4906 124.594C81.7726 124.694 81.6154 125.094 81.4404 125.712C81.2689 126.319 80.9189 126.977 80.4473 127.373C79.6793 128.023 78.8899 127.723 78.7077 126.598C78.522 125.433 77.9755 125.187 76.9646 125.287C76.7895 125.308 76.6109 125.28 76.4288 125.248C76.1359 125.191 75.6786 125.987 76.2323 126.723C76.5359 127.13 77.0146 127.441 77.6254 127.577C80.2759 128.166 82.7299 127.755 84.7088 125.73C86.3699 124.033 85.7162 121.39 83.4515 120.561C82.9442 120.379 82.3834 120.325 81.9119 120.079C81.6368 119.94 81.3582 119.557 81.3404 119.261C81.3261 119.057 81.7369 118.807 81.9833 118.611C82.0762 118.536 82.237 118.529 82.3691 118.511C83.9408 118.271 86.9771 119.672 87.763 120.99C88.7096 122.586 88.4345 125.212 87.1771 126.816Z" fill="#6B7781"/>
<path d="M76.9587 119.082C77.0587 119.079 77.1551 119.061 77.2551 119.039C77.4159 119.011 77.5409 118.914 77.5302 118.832C77.5195 118.75 76.9444 118.478 76.2442 118.225C75.5441 117.971 75.2405 118.211 74.9297 118.557C74.7726 118.732 74.4939 118.825 74.1939 118.932C73.9224 119.029 73.7367 119.45 73.5938 119.754C73.5473 119.857 73.7902 120.229 73.8224 120.214C74.1046 120.139 74.4832 120.061 74.6011 119.854C75.1691 118.861 76.0978 119.111 76.9587 119.082Z" fill="#6B7781"/>
<path d="M71.1742 114.931C70.4169 115.531 70.5312 116.164 71.3492 115.867C71.8886 115.671 72.3673 115.346 72.5709 114.928C72.6459 114.774 72.6423 114.581 72.6209 114.388C72.5852 114.088 71.9315 114.331 71.1742 114.931Z" fill="#6B7781"/>
<path d="M29.3594 52.2952C29.9703 52.7167 30.649 53.1811 31.3884 53.6883C32.1528 54.1205 32.978 54.5885 33.8603 55.0885C48.5879 63.4401 64.9016 67.5801 81.8654 65.8298C86.7377 65.3261 91.5743 64.2759 96.2323 62.7542C104.144 60.1716 111.667 56.9639 118.579 52.2845C119.115 51.9201 119.583 51.6093 120.022 51.32C118.022 48.7695 115.822 46.3798 113.192 44.3044C110.749 42.3791 108.249 40.5109 106.423 37.9604C101.383 30.9163 103.673 20.7538 110.481 15.7707C110.417 15.6314 110.36 15.4957 110.296 15.3563C105.927 5.65102 100.633 0 96.0144 0C94.2319 0 92.4102 0.807289 90.5991 2.39686C85.8875 6.52975 79.9758 8.80874 73.964 8.80874C67.9521 8.80874 62.0439 6.52975 57.3324 2.39686C55.5213 0.807289 53.6996 0 51.9171 0C47.2305 0 42.0617 5.50814 37.7395 15.1099C32.8101 26.069 28.2735 36.1601 28.2735 48.9874C28.2735 49.2839 28.1842 49.5661 28.0449 49.8269C28.2378 50.2805 28.3021 50.8771 28.2771 51.57C28.6272 51.8022 28.9558 52.0237 29.3594 52.2952ZM50.5847 48.1659C49.7631 48.5552 48.6487 48.9839 47.4913 49.216C46.3411 49.4697 45.148 49.5304 44.2371 49.5018C43.3263 49.4732 42.6904 49.3125 42.6904 49.3125C42.6904 49.3125 43.2084 48.9089 44.03 48.5159C44.8515 48.123 45.966 47.6979 47.1234 47.4657C48.2736 47.2121 49.4667 47.1585 50.3775 47.18C51.2884 47.2085 51.9242 47.3657 51.9242 47.3657C51.9242 47.3657 51.4027 47.7729 50.5847 48.1659ZM103.698 49.5018C102.791 49.5304 101.598 49.4697 100.447 49.216C99.29 48.9839 98.1719 48.5516 97.3539 48.1659C96.5359 47.7729 96.0144 47.3729 96.0144 47.3729C96.0144 47.3729 96.6538 47.2157 97.5611 47.1871C98.4684 47.1621 99.6686 47.2193 100.819 47.4729C101.973 47.7051 103.087 48.1301 103.909 48.5231C104.73 48.916 105.248 49.3196 105.248 49.3196C105.248 49.3196 104.609 49.4732 103.698 49.5018ZM107.377 43.54C108.767 43.7543 109.688 44.0401 109.688 44.0401C109.688 44.0401 108.763 44.3259 107.377 44.5402C105.991 44.751 104.148 44.9439 102.294 44.9331C100.447 44.9439 98.6006 44.7581 97.211 44.5438C95.8251 44.3295 94.9035 44.0401 94.9035 44.0401C94.9035 44.0401 95.8286 43.7508 97.211 43.5364C98.6006 43.3221 100.444 43.1364 102.294 43.1471C104.144 43.1364 105.991 43.3293 107.377 43.54ZM94.8999 40.7752C94.8999 40.7752 95.4643 40.493 96.2823 40.2394C97.1003 39.9894 98.1648 39.7215 99.2185 39.5572C100.272 39.3786 101.333 39.2964 102.094 39.1535C102.466 39.0714 102.791 39.0071 102.958 38.8963C103.162 38.8142 103.223 38.5891 103.23 38.6213C103.194 38.6356 103.348 38.7427 103.259 39.0642C103.162 39.3607 102.937 39.7715 102.548 40.0465C101.801 40.6574 100.672 41.1432 99.5114 41.3182C98.3577 41.5182 97.186 41.4218 96.3216 41.2432C95.4607 41.0717 94.8999 40.7752 94.8999 40.7752ZM89.6632 10.8591C90.7813 8.87303 92.5602 6.45831 94.9785 6.13325C97.2825 5.82605 99.4579 7.24417 100.858 8.95876C101.43 9.65532 103.298 12.5558 103.955 14.3312C105.355 18.0818 101.773 16.653 99.8329 15.71C97.336 14.4955 95.0463 14.099 92.3673 13.531C90.4312 13.1238 88.8024 12.3915 89.6632 10.8591ZM84.4694 32.4523C85.9483 30.3412 88.1558 28.9338 90.6956 28.4873C93.2282 28.0265 95.7822 28.6052 97.8969 30.0804C98.5041 30.5055 98.6506 31.3414 98.2291 31.9451C97.8004 32.5523 96.9645 32.6988 96.3644 32.2773C93.2246 30.0697 88.8702 30.8449 86.6734 33.9883C86.4162 34.3598 85.9983 34.5598 85.5732 34.5598C85.3089 34.5598 85.041 34.4848 84.8052 34.3205C84.1908 33.8918 84.0443 33.056 84.4694 32.4523ZM67.0341 49.4304C68.8095 48.7695 70.4812 47.8087 71.8529 46.4977C73.3103 45.1046 74.0104 43.5222 74.7605 41.7004C74.8034 41.5825 74.8355 41.5111 74.8677 41.4289C73.2388 41.3575 71.9314 39.9537 71.9314 39.1142C71.9314 38.2534 73.2995 37.5532 74.9891 37.5532C76.6787 37.5532 78.0468 38.2534 78.0468 39.1142C78.0468 39.9537 76.7395 41.3575 75.1106 41.4289C75.1427 41.5111 75.1749 41.5825 75.2178 41.7004C75.3571 42.0362 75.4857 42.6041 75.7607 43.1257C77.5217 46.4584 80.2187 48.0873 83.5014 49.659C83.5014 49.659 83.2942 49.7161 82.9191 49.7733C82.5512 49.7769 81.969 50.0019 81.3189 49.8662C80.6723 49.7411 79.84 49.7054 79.0863 49.2875C77.261 48.273 75.4499 46.5977 74.9891 44.4795C75.182 45.3582 73.7961 47.0264 73.2638 47.6086C71.9707 49.0232 70.4776 49.5197 68.6594 49.8662C68.0057 50.0019 67.4235 49.7769 67.0591 49.7733C66.6805 49.7161 66.4769 49.659 66.4769 49.659C66.4769 49.659 66.6841 49.5625 67.0341 49.4304ZM63.412 32.4523C63.8335 33.056 63.6871 33.8918 63.0798 34.3169C62.8477 34.4777 62.5762 34.5563 62.3118 34.5563C61.8903 34.5563 61.476 34.3562 61.2116 33.9847C59.0148 30.8413 54.6712 30.0662 51.5206 32.2737C50.9134 32.6881 50.0846 32.5523 49.656 31.9415C49.2345 31.3342 49.3809 30.5019 49.9882 30.0769C52.0957 28.598 54.6497 28.0229 57.1895 28.4837C59.7257 28.9302 61.9332 30.3412 63.412 32.4523ZM53.0316 40.7752C53.0316 40.7752 52.4743 41.0717 51.6099 41.2432C50.749 41.4182 49.5774 41.5182 48.4236 41.3182C47.2698 41.1432 46.1339 40.6574 45.3874 40.0465C44.998 39.7715 44.773 39.3607 44.6729 39.0642C44.5801 38.7427 44.7372 38.6356 44.7015 38.6213C44.7122 38.5927 44.773 38.8142 44.9766 38.8963C45.1444 39.0071 45.4695 39.0714 45.841 39.1535C46.5983 39.2964 47.6592 39.3786 48.7129 39.5572C49.7703 39.7215 50.8348 39.9894 51.6528 40.2394C52.4708 40.4966 53.0316 40.7752 53.0316 40.7752ZM43.98 14.3312C44.6444 12.5558 46.5054 9.65532 47.0769 8.95876C48.4808 7.24417 50.6597 5.82605 52.9601 6.13325C55.382 6.45831 57.1573 8.86946 58.2754 10.8591C59.1363 12.3915 57.511 13.1202 55.5678 13.531C52.8887 14.099 50.599 14.4955 48.0986 15.71C46.1625 16.6566 42.5797 18.0818 43.98 14.3312ZM40.5579 43.54C41.9439 43.3293 43.7906 43.14 45.641 43.1471C47.4877 43.1364 49.3381 43.3221 50.724 43.5364C52.11 43.7508 53.0352 44.0401 53.0352 44.0401C53.0352 44.0401 52.11 44.3259 50.724 44.5438C49.3381 44.7581 47.4913 44.9439 45.641 44.9331C43.7942 44.9439 41.9439 44.751 40.5579 44.5402C39.1719 44.3259 38.2468 44.0401 38.2468 44.0401C38.2468 44.0401 39.1719 43.7543 40.5579 43.54Z" fill="#6B7781"/>
<path d="M109.197 35.9744C113.222 41.604 119.774 44.9975 123.889 50.6628C129.475 58.3642 133.247 67.6694 136.455 76.5818C136.677 77.1926 136.895 77.7998 137.109 78.425C137.17 78.5928 137.227 78.7929 137.309 79.0501C137.42 79.393 137.68 79.5716 137.791 79.3608C137.855 79.2501 137.916 79.1144 137.973 78.9679C138.07 78.7179 138.17 78.4535 138.273 78.1678C138.377 77.8784 138.47 77.6212 138.548 77.4141C139.716 74.3742 140.574 70.7771 141.242 66.0977C141.628 63.3794 141.874 60.6396 142.06 58.3177C142.606 51.4951 143.031 41.454 140.374 33.0703C138.877 28.3409 135.794 23.5472 132.522 20.8645C126.821 16.1851 118.116 14.1419 112.158 19.1249C107.218 23.29 105.192 30.3841 109.197 35.9744Z" fill="#6B7781"/>
<path d="M73.9687 70.3164C71.6825 70.3164 69.6679 71.3952 68.3284 73.049C67.3175 74.2993 66.6816 75.871 66.6816 77.5999C66.6816 81.6149 69.9501 84.8833 73.9651 84.8833C77.9801 84.8833 81.2486 81.6149 81.2486 77.5999C81.2486 75.871 80.6163 74.3028 79.6054 73.0526C78.273 71.3987 76.2548 70.3164 73.9687 70.3164Z" fill="#6B7781"/>
<path d="M15.2572 116.096C18.5792 116.096 21.8405 114.588 24.2124 111.963C26.4557 109.484 27.5166 106.43 27.2058 103.372C26.9772 101.129 26.0699 98.8925 25.1054 96.5242L24.8411 95.8741C24.4446 94.8882 24.0552 93.9023 23.7159 92.9021C22.5514 89.4801 21.9156 85.7115 21.7262 81.0357C21.4083 73.2879 22.4978 65.6508 23.5801 58.253C23.6016 58.103 23.623 57.953 23.6444 57.8029L23.7766 56.9028C23.8445 56.4277 23.9802 55.7811 24.141 55.0453C24.166 54.9381 24.191 54.8131 24.2195 54.6774C24.2624 54.4738 24.0124 54.513 23.673 54.7881C23.4694 54.9524 23.2658 55.1239 23.0622 55.2918C21.7512 56.3705 20.476 57.5957 19.2436 58.9246C16.2181 62.1859 13.4497 65.9937 11.1172 69.4015C7.4415 74.7774 2.34773 82.8682 0.586693 91.0304C-0.402772 95.6098 -0.12415 100.971 1.29754 104.694C1.66546 105.654 2.15483 106.605 2.70136 107.54C3.13358 108.283 3.61938 109.001 4.15162 109.698C4.64814 110.348 5.18038 110.959 5.75191 111.545C8.35238 114.202 11.6601 116.096 15.2572 116.096Z" fill="#6B7781"/>
</svg>
