<svg width="35" height="39" viewBox="0 0 35 39" fill="none" xmlns="http://www.w3.org/2000/svg">
<path d="M14.6848 15C13.5844 15 12.7157 16.1261 12.7157 17.5C12.7157 18.8739 13.6037 20 14.6848 20C15.7852 20 16.654 18.8739 16.654 17.5C16.6733 16.1261 15.7852 15 14.6848 15ZM21.7313 15C20.6309 15 19.7621 16.1261 19.7621 17.5C19.7621 18.8739 20.6502 20 21.7313 20C22.8317 20 23.7004 18.8739 23.7004 17.5C23.7004 16.1261 22.8317 15 21.7313 15Z" fill="#F4F5F6"/>
<path d="M30.7078 0H4.70965C2.51726 0 0.732315 1.794 0.732315 4.017V30.381C0.732315 32.604 2.51726 34.398 4.70965 34.398H26.7111L25.6828 30.7905L28.1662 33.111L30.5138 35.295L34.6852 39V4.017C34.6852 1.794 32.9002 0 30.7078 0ZM23.2188 25.467C23.2188 25.467 22.5203 24.6285 21.9383 23.8875C24.4799 23.166 25.45 21.567 25.45 21.567C24.6545 22.0935 23.8979 22.464 23.2188 22.7175C22.2487 23.127 21.3174 23.4 20.4056 23.556C18.543 23.907 16.8357 23.8095 15.3805 23.5365C14.2746 23.322 13.324 23.01 12.5285 22.698C12.0823 22.5225 11.5972 22.308 11.1122 22.035C11.054 21.996 10.9958 21.9765 10.9376 21.9375C10.8988 21.918 10.8794 21.8985 10.86 21.879C10.5107 21.684 10.3167 21.5475 10.3167 21.5475C10.3167 21.5475 11.248 23.1075 13.712 23.8485C13.13 24.5895 12.4121 25.467 12.4121 25.467C8.12433 25.3305 6.4946 22.503 6.4946 22.503C6.4946 16.224 9.28843 11.1345 9.28843 11.1345C12.0823 9.0285 14.7403 9.087 14.7403 9.087L14.9343 9.321C11.442 10.335 9.83168 11.8755 9.83168 11.8755C9.83168 11.8755 10.2585 11.6415 10.9764 11.31C13.0523 10.3935 14.7015 10.14 15.3805 10.0815C15.4969 10.062 15.594 10.0425 15.7104 10.0425C16.8939 9.8865 18.2326 9.8475 19.6295 10.0035C21.4726 10.218 23.4516 10.764 25.4694 11.8755C25.4694 11.8755 23.9367 10.413 20.6384 9.399L20.91 9.087C20.91 9.087 23.568 9.0285 26.3619 11.1345C26.3619 11.1345 29.1557 16.224 29.1557 22.503C29.1557 22.503 27.5066 25.3305 23.2188 25.467Z" fill="#F4F5F6"/>
</svg>
