<svg width="40" height="35" viewBox="0 0 40 35" fill="none" xmlns="http://www.w3.org/2000/svg">
<mask id="path-1-inside-1" fill="white">
<path d="M2.92547 31.5237C2.72583 31.5235 2.53549 31.4393 2.40102 31.2917C2.26655 31.1441 2.20034 30.9468 2.21859 30.748L3.02826 21.9415C1.04627 19.5949 0 16.8605 0 14.0136C0 6.28632 7.71949 0 17.2076 0C26.6958 0 34.4153 6.28632 34.4153 14.0136C34.4153 21.7408 26.6958 28.0281 17.2076 28.0281C15.4744 28.0283 13.748 27.812 12.0684 27.3843L3.2251 31.4568C3.13131 31.5008 3.02904 31.5236 2.92547 31.5237ZM17.2076 1.42056C8.50201 1.42056 1.41959 7.06981 1.41959 14.0136C1.41959 16.6055 2.41349 19.1024 4.29464 21.2366C4.42396 21.383 4.48711 21.5763 4.46918 21.7709L3.74484 29.6523L11.7019 25.9841C11.8538 25.9145 12.0253 25.9001 12.1867 25.9433C13.824 26.3839 15.5121 26.6075 17.2076 26.6085C25.9133 26.6085 32.9947 20.9583 32.9947 14.0145C32.9947 7.07078 25.9123 1.42056 17.2076 1.42056Z"/>
</mask>
<path d="M2.92547 31.5237C2.72583 31.5235 2.53549 31.4393 2.40102 31.2917C2.26655 31.1441 2.20034 30.9468 2.21859 30.748L3.02826 21.9415C1.04627 19.5949 0 16.8605 0 14.0136C0 6.28632 7.71949 0 17.2076 0C26.6958 0 34.4153 6.28632 34.4153 14.0136C34.4153 21.7408 26.6958 28.0281 17.2076 28.0281C15.4744 28.0283 13.748 27.812 12.0684 27.3843L3.2251 31.4568C3.13131 31.5008 3.02904 31.5236 2.92547 31.5237ZM17.2076 1.42056C8.50201 1.42056 1.41959 7.06981 1.41959 14.0136C1.41959 16.6055 2.41349 19.1024 4.29464 21.2366C4.42396 21.383 4.48711 21.5763 4.46918 21.7709L3.74484 29.6523L11.7019 25.9841C11.8538 25.9145 12.0253 25.9001 12.1867 25.9433C13.824 26.3839 15.5121 26.6075 17.2076 26.6085C25.9133 26.6085 32.9947 20.9583 32.9947 14.0145C32.9947 7.07078 25.9123 1.42056 17.2076 1.42056Z" fill="#F4F5F6"/>
<path d="M2.92547 31.5237L2.92293 33.5238L2.92829 33.5237L2.92547 31.5237ZM2.21859 30.748L0.226989 30.5649L0.226961 30.5652L2.21859 30.748ZM3.02826 21.9415L5.01986 22.1246L5.09653 21.2908L4.55618 20.651L3.02826 21.9415ZM17.2076 28.0281V26.0281H17.2074L17.2076 28.0281ZM12.0684 27.3843L12.562 25.4461L11.8754 25.2712L11.2318 25.5676L12.0684 27.3843ZM3.2251 31.4568L2.38848 29.6402L2.37687 29.6456L3.2251 31.4568ZM4.29464 21.2366L2.79426 22.559L2.79556 22.5605L4.29464 21.2366ZM4.46918 21.7709L2.47762 21.5873L2.47757 21.5878L4.46918 21.7709ZM3.74484 29.6523L1.75323 29.4693L1.4362 32.9189L4.58215 31.4686L3.74484 29.6523ZM11.7019 25.9841L10.8696 24.1655L10.8646 24.1678L11.7019 25.9841ZM12.1867 25.9433L12.7064 24.012L12.704 24.0114L12.1867 25.9433ZM17.2076 26.6085L17.2065 28.6085H17.2076V26.6085ZM2.92801 29.5237C3.29016 29.5242 3.6354 29.677 3.87931 29.9446L0.922729 32.6388C1.43558 33.2016 2.16149 33.5228 2.92293 33.5237L2.92801 29.5237ZM3.87931 29.9446C4.12322 30.2123 4.24332 30.5702 4.21022 30.9308L0.226961 30.5652C0.157362 31.3234 0.409873 32.076 0.922729 32.6388L3.87931 29.9446ZM4.21019 30.9311L5.01986 22.1246L1.03666 21.7584L0.226989 30.5649L4.21019 30.9311ZM4.55618 20.651C2.85226 18.6336 2 16.3482 2 14.0136H-2C-2 17.3728 -0.759725 20.5563 1.50034 23.2321L4.55618 20.651ZM2 14.0136C2 7.75515 8.42064 2 17.2076 2V-2C7.01834 -2 -2 4.8175 -2 14.0136H2ZM17.2076 2C25.9946 2 32.4153 7.75515 32.4153 14.0136H36.4153C36.4153 4.8175 27.3969 -2 17.2076 -2V2ZM32.4153 14.0136C32.4153 20.2722 25.9944 26.0281 17.2076 26.0281V30.0281C27.3971 30.0281 36.4153 23.2095 36.4153 14.0136H32.4153ZM17.2074 26.0281C15.6408 26.0283 14.0802 25.8328 12.562 25.4461L11.5748 29.3224C13.4158 29.7912 15.3081 30.0283 17.2079 30.0281L17.2074 26.0281ZM11.2318 25.5676L2.3885 29.6402L4.0617 33.2735L12.905 29.2009L11.2318 25.5676ZM2.37687 29.6456C2.54771 29.5656 2.73401 29.524 2.92266 29.5237L2.92829 33.5237C3.32407 33.5232 3.71492 33.4359 4.07333 33.2681L2.37687 29.6456ZM17.2076 -0.579444C7.84298 -0.579444 -0.580413 5.56704 -0.580413 14.0136H3.41959C3.41959 8.57259 9.16103 3.42056 17.2076 3.42056V-0.579444ZM-0.580413 14.0136C-0.580413 17.1414 0.625072 20.098 2.79427 22.559L5.79501 19.9141C4.20191 18.1067 3.41959 16.0696 3.41959 14.0136H-0.580413ZM2.79556 22.5605C2.55999 22.2938 2.44495 21.9416 2.47762 21.5873L6.46073 21.9545C6.52927 21.211 6.28793 20.4723 5.79372 19.9127L2.79556 22.5605ZM2.47757 21.5878L1.75323 29.4693L5.73644 29.8353L6.46078 21.9539L2.47757 21.5878ZM4.58215 31.4686L12.5392 27.8003L10.8646 24.1678L2.90752 27.836L4.58215 31.4686ZM12.5342 27.8027C12.2632 27.9267 11.9574 27.9524 11.6695 27.8753L12.704 24.0114C12.0932 23.8479 11.4445 23.9023 10.8696 24.1655L12.5342 27.8027ZM11.6671 27.8746C13.4734 28.3607 15.3358 28.6074 17.2065 28.6085L17.2088 24.6085C15.6884 24.6076 14.1746 24.4071 12.7064 24.012L11.6671 27.8746ZM17.2076 28.6085C26.5727 28.6085 34.9947 22.4608 34.9947 14.0145H30.9947C30.9947 19.4558 25.2539 24.6085 17.2076 24.6085V28.6085ZM34.9947 14.0145C34.9947 5.56825 26.5716 -0.579444 17.2076 -0.579444V3.42056C25.253 3.42056 30.9947 8.57332 30.9947 14.0145H34.9947Z" fill="#F4F5F6" mask="url(#path-1-inside-1)"/>
<mask id="path-3-inside-2" fill="white">
<path d="M36.6387 34.8837C36.5362 34.8837 36.435 34.8615 36.342 34.8187L29.1538 31.5054C27.7843 31.8506 26.3773 32.0255 24.9649 32.0261C20.583 32.0261 16.5143 30.4155 13.8041 27.6073C13.5318 27.3251 13.5398 26.8755 13.822 26.6032C14.1042 26.3309 14.5538 26.3389 14.8261 26.6212C17.2706 29.1539 20.966 30.6065 24.9649 30.6065C26.3401 30.606 27.7092 30.4254 29.0375 30.0693C29.1989 30.0257 29.3705 30.0401 29.5223 30.11L35.8251 33.019L35.2433 26.7938C35.2254 26.5992 35.2885 26.4059 35.4179 26.2595C36.9344 24.5393 37.7363 22.5263 37.7363 20.4415C37.7363 17.4869 36.1189 14.6817 33.2992 12.7443C33.0901 12.6006 32.9736 12.3562 32.9936 12.1032C33.0135 11.8503 33.1669 11.6272 33.396 11.518C33.625 11.4089 33.8949 11.4302 34.104 11.5739C37.3184 13.778 39.1608 17.0089 39.1608 20.4396C39.1608 22.7813 38.3075 25.0309 36.6901 26.9625L37.3465 34.1079C37.3648 34.3067 37.2986 34.5041 37.1641 34.6516C37.0296 34.7992 36.8393 34.8834 36.6396 34.8837H36.6387Z"/>
</mask>
<path d="M36.6387 34.8837C36.5362 34.8837 36.435 34.8615 36.342 34.8187L29.1538 31.5054C27.7843 31.8506 26.3773 32.0255 24.9649 32.0261C20.583 32.0261 16.5143 30.4155 13.8041 27.6073C13.5318 27.3251 13.5398 26.8755 13.822 26.6032C14.1042 26.3309 14.5538 26.3389 14.8261 26.6212C17.2706 29.1539 20.966 30.6065 24.9649 30.6065C26.3401 30.606 27.7092 30.4254 29.0375 30.0693C29.1989 30.0257 29.3705 30.0401 29.5223 30.11L35.8251 33.019L35.2433 26.7938C35.2254 26.5992 35.2885 26.4059 35.4179 26.2595C36.9344 24.5393 37.7363 22.5263 37.7363 20.4415C37.7363 17.4869 36.1189 14.6817 33.2992 12.7443C33.0901 12.6006 32.9736 12.3562 32.9936 12.1032C33.0135 11.8503 33.1669 11.6272 33.396 11.518C33.625 11.4089 33.8949 11.4302 34.104 11.5739C37.3184 13.778 39.1608 17.0089 39.1608 20.4396C39.1608 22.7813 38.3075 25.0309 36.6901 26.9625L37.3465 34.1079C37.3648 34.3067 37.2986 34.5041 37.1641 34.6516C37.0296 34.7992 36.8393 34.8834 36.6396 34.8837H36.6387Z" fill="#F4F5F6"/>
<path d="M36.6387 34.8837V32.8837H36.6379L36.6387 34.8837ZM36.342 34.8187L35.5047 36.635L35.5055 36.6354L36.342 34.8187ZM29.1538 31.5054L29.9911 29.689L29.3497 29.3934L28.6649 29.566L29.1538 31.5054ZM24.9649 32.0261V34.0261H24.9657L24.9649 32.0261ZM13.8041 27.6073L12.3648 28.996L12.365 28.9962L13.8041 27.6073ZM14.8261 26.6212L13.3869 28.0099L13.387 28.0101L14.8261 26.6212ZM24.9649 30.6065V32.6065H24.9656L24.9649 30.6065ZM29.0375 30.0693L29.5554 32.0011L29.5594 32L29.0375 30.0693ZM29.5223 30.11L30.3604 28.2941L30.359 28.2935L29.5223 30.11ZM35.8251 33.019L34.987 34.8349L38.1395 36.2899L37.8164 32.8329L35.8251 33.019ZM35.2433 26.7938L33.2518 26.9774L33.252 26.9799L35.2433 26.7938ZM35.4179 26.2595L36.9169 27.5834L36.9181 27.5821L35.4179 26.2595ZM33.2992 12.7443L32.1659 14.3923L32.1666 14.3927L33.2992 12.7443ZM32.9936 12.1032L34.9874 12.2607V12.2607L32.9936 12.1032ZM33.396 11.518L34.2565 13.3234V13.3234L33.396 11.518ZM34.104 11.5739L32.9707 13.2219L32.973 13.2234L34.104 11.5739ZM36.6901 26.9625L35.1567 25.6785L34.6223 26.3166L34.6985 27.1455L36.6901 26.9625ZM37.3465 34.1079L39.3382 33.9251L39.3381 33.925L37.3465 34.1079ZM36.6396 34.8837V36.8837L36.6422 36.8837L36.6396 34.8837ZM36.6379 32.8837C36.8245 32.8836 37.0089 32.924 37.1784 33.002L35.5055 36.6354C35.8611 36.7991 36.248 36.8838 36.6394 36.8837L36.6379 32.8837ZM37.1792 33.0024L29.9911 29.689L28.3166 33.3217L35.5047 36.635L37.1792 33.0024ZM28.6649 29.566C27.455 29.8711 26.212 30.0256 24.9641 30.0261L24.9657 34.0261C26.5427 34.0255 28.1136 33.8302 29.6427 33.4447L28.6649 29.566ZM24.9649 30.0261C21.0524 30.0261 17.5284 28.5862 15.2432 26.2184L12.365 28.9962C15.5002 32.2447 20.1136 34.0261 24.9649 34.0261V30.0261ZM15.2433 26.2186C15.738 26.7312 15.7234 27.5478 15.2107 28.0425L12.4333 25.164C11.3562 26.2033 11.3255 27.9189 12.3648 28.996L15.2433 26.2186ZM15.2107 28.0425C14.6981 28.5371 13.8815 28.5225 13.3869 28.0099L16.2654 25.2324C15.2261 24.1553 13.5104 24.1247 12.4333 25.164L15.2107 28.0425ZM13.387 28.0101C16.2611 30.9879 20.5041 32.6065 24.9649 32.6065V28.6065C21.4279 28.6065 18.2801 27.3199 16.2652 25.2322L13.387 28.0101ZM24.9656 32.6065C26.5154 32.6059 28.0585 32.4024 29.5554 32.0011L28.5196 28.1375C27.36 28.4484 26.1647 28.6061 24.9642 28.6065L24.9656 32.6065ZM29.5594 32C29.2686 32.0786 28.9593 32.0526 28.6856 31.9266L30.359 28.2935C29.7816 28.0275 29.1292 27.9727 28.5155 28.1386L29.5594 32ZM28.6842 31.9259L34.987 34.8349L36.6632 31.2031L30.3604 28.2941L28.6842 31.9259ZM37.8164 32.8329L37.2346 26.6077L33.252 26.9799L33.8338 33.2051L37.8164 32.8329ZM37.2349 26.6102C37.2675 26.9645 37.1525 27.3167 36.9169 27.5834L33.9188 24.9356C33.4246 25.4952 33.1832 26.2339 33.2518 26.9774L37.2349 26.6102ZM36.9181 27.5821C38.7222 25.5358 39.7363 23.0631 39.7363 20.4415H35.7363C35.7363 21.9894 35.1467 23.5428 33.9176 24.9369L36.9181 27.5821ZM39.7363 20.4415C39.7363 16.7162 37.6953 13.3382 34.4317 11.0959L32.1666 14.3927C34.5426 16.0252 35.7363 18.2576 35.7363 20.4415H39.7363ZM34.4324 11.0964C34.8121 11.3575 35.0236 11.8013 34.9874 12.2607L30.9998 11.9458C30.9236 12.9111 31.3681 13.8437 32.1659 14.3923L34.4324 11.0964ZM34.9874 12.2607C34.9511 12.72 34.6725 13.1252 34.2565 13.3234L32.5354 9.71265C31.6614 10.1293 31.076 10.9805 30.9998 11.9458L34.9874 12.2607ZM34.2565 13.3234C33.8406 13.5217 33.3504 13.483 32.9707 13.2219L35.2372 9.92597C34.4394 9.37734 33.4095 9.29602 32.5354 9.71265L34.2565 13.3234ZM32.973 13.2234C35.7293 15.1134 37.1608 17.766 37.1608 20.4396H41.1608C41.1608 16.2518 38.9075 12.4426 35.235 9.92445L32.973 13.2234ZM37.1608 20.4396C37.1608 22.2738 36.4979 24.0767 35.1567 25.6785L38.2235 28.2465C40.117 25.9852 41.1608 23.2888 41.1608 20.4396H37.1608ZM34.6985 27.1455L35.3549 34.2909L39.3381 33.925L38.6817 26.7795L34.6985 27.1455ZM35.3549 34.2907C35.3218 33.9301 35.4419 33.5722 35.6858 33.3045L38.6424 35.9987C39.1552 35.4359 39.4078 34.6834 39.3382 33.9251L35.3549 34.2907ZM35.6858 33.3045C35.9297 33.0369 36.275 32.8841 36.6371 32.8837L36.6422 36.8837C37.4036 36.8827 38.1295 36.5615 38.6424 35.9987L35.6858 33.3045ZM36.6396 32.8837H36.6387V36.8837H36.6396V32.8837Z" fill="#F4F5F6" mask="url(#path-3-inside-2)"/>
<path d="M10.7077 14.254C10.7077 14.8601 10.2164 15.3514 9.61032 15.3514C9.00425 15.3514 8.51294 14.8601 8.51294 14.254C8.51294 13.648 9.00425 13.1567 9.61032 13.1567C10.2164 13.1567 10.7077 13.648 10.7077 14.254Z" fill="#F4F5F6" stroke="#F4F5F6" stroke-width="2"/>
<path d="M25.9013 14.254C25.9013 14.8601 25.41 15.3514 24.8039 15.3514C24.1979 15.3514 23.7065 14.8601 23.7065 14.254C23.7065 13.648 24.1979 13.1567 24.8039 13.1567C25.41 13.1567 25.9013 13.648 25.9013 14.254Z" fill="#F4F5F6" stroke="#F4F5F6" stroke-width="2"/>
<path d="M18.304 14.254C18.304 14.8601 17.8127 15.3514 17.2066 15.3514C16.6006 15.3514 16.1093 14.8601 16.1093 14.254C16.1093 13.648 16.6006 13.1567 17.2066 13.1567C17.8127 13.1567 18.304 13.648 18.304 14.254Z" fill="#F4F5F6" stroke="#F4F5F6" stroke-width="2"/>
<path d="M36.2812 15.1L34.2188 13L32.1562 20.7L25.9688 26.3L16 28.05L21.5 31.2H30.0938L36.2812 34L35.9375 27L38 22.8V19.3L36.2812 15.1Z" fill="#F4F5F6" stroke="#F4F5F6"/>
</svg>
