<svg width="13" height="14" viewBox="0 0 13 14" fill="none" xmlns="http://www.w3.org/2000/svg">
<path d="M10.2732 0.922619L5.40037 5.75154C5.33907 5.81227 5.29932 5.89107 5.28707 5.9761L5.00404 7.93965C4.99523 8.00066 5.00088 8.06287 5.02054 8.12134C5.04021 8.17981 5.07335 8.23293 5.11733 8.2765C5.16154 8.31974 5.21518 8.35234 5.2741 8.37181C5.33303 8.39128 5.39567 8.39708 5.45722 8.38878L7.43847 8.10827C7.52427 8.09614 7.60378 8.05674 7.66505 7.99599L12.5375 3.16667C12.8339 2.86709 13 2.46424 13 2.04465C13 1.62505 12.8339 1.2222 12.5375 0.922619C12.2326 0.633822 11.8271 0.472656 11.4054 0.472656C10.9836 0.472656 10.5781 0.633822 10.2732 0.922619ZM11.9714 2.60566L7.19346 7.34174L5.87236 7.52822L6.06092 6.21892L10.8393 1.48363C10.9918 1.33928 11.1945 1.25873 11.4054 1.25873C11.6162 1.25873 11.819 1.33928 11.9714 1.48363C12.1197 1.6334 12.2028 1.83483 12.2028 2.04465C12.2028 2.25446 12.1197 2.4559 11.9714 2.60566Z" fill="#F5F6F7"/>
<path d="M1.32 13.3428H9.68C10.0301 13.3428 10.3658 13.2052 10.6134 12.9601C10.8609 12.715 11 12.3827 11 12.0361V7.2446C11 7.12908 10.9536 7.01828 10.8711 6.9366C10.7886 6.85491 10.6767 6.80901 10.56 6.80901C10.4433 6.80901 10.3314 6.85491 10.2489 6.9366C10.1664 7.01828 10.12 7.12908 10.12 7.2446V12.0361C10.12 12.1516 10.0736 12.2624 9.99113 12.3441C9.90861 12.4258 9.79669 12.4717 9.68 12.4717H1.32C1.2033 12.4717 1.09139 12.4258 1.00887 12.3441C0.926357 12.2624 0.88 12.1516 0.88 12.0361V3.75989C0.88 3.64437 0.926357 3.53357 1.00887 3.45188C1.09139 3.3702 1.2033 3.3243 1.32 3.3243H6.16C6.2767 3.3243 6.38861 3.27841 6.47113 3.19672C6.55364 3.11503 6.6 3.00424 6.6 2.88871C6.6 2.77319 6.55364 2.66239 6.47113 2.58071C6.38861 2.49902 6.2767 2.45312 6.16 2.45312H1.32C0.969914 2.45312 0.634167 2.5908 0.386619 2.83587C0.139071 3.08093 0 3.41332 0 3.75989V12.0361C0 12.3827 0.139071 12.715 0.386619 12.9601C0.634167 13.2052 0.969914 13.3428 1.32 13.3428Z" fill="#F5F6F7"/>
</svg>
