<svg width="29" height="29" viewBox="0 0 29 29" fill="none" xmlns="http://www.w3.org/2000/svg">
<path d="M22.8977 17.8653C22.3286 16.6788 20.2925 15.0318 18.3254 13.4404C17.2282 12.5535 16.1914 11.7149 15.5305 11.054C15.3649 10.8872 15.1172 10.834 14.8986 10.9126C14.4914 11.06 14.24 11.1736 14.0419 11.2618C13.7398 11.3971 13.6383 11.443 13.2311 11.4841C13.051 11.5022 12.8891 11.5989 12.7888 11.7487C11.9345 13.0259 11.05 12.9171 10.4591 12.719C10.2706 12.6562 10.2368 12.5752 10.2187 12.4979C10.0918 11.9675 10.7286 10.7325 11.5539 9.9072C13.5174 7.94245 14.53 7.45064 16.6687 8.40645C19.0951 9.49152 21.5262 10.341 21.5504 10.3495C21.8682 10.4594 22.2102 10.2926 22.3201 9.97727C22.4289 9.66189 22.2633 9.31752 21.9479 9.20758C21.9237 9.19914 19.5409 8.36658 17.1629 7.30202C14.3922 6.06346 12.8721 6.87908 10.7008 9.0517C9.87425 9.8782 8.75169 11.5505 9.04169 12.777C9.16613 13.299 9.5335 13.6857 10.0796 13.8657C11.4487 14.3176 12.6981 13.885 13.6285 12.6501C14.0128 12.591 14.2218 12.504 14.5359 12.3626C14.6495 12.3118 14.7824 12.2526 14.9589 12.1813C15.6501 12.8302 16.5829 13.5854 17.5653 14.3793C19.3415 15.816 21.3558 17.4448 21.8089 18.3873C22.0325 18.8525 21.792 19.1558 21.6289 19.2948C21.3896 19.5002 21.0622 19.5654 20.8846 19.441C20.6888 19.3068 20.4339 19.2984 20.2321 19.4192C20.0291 19.54 19.9155 19.7684 19.9409 20.0028C19.9819 20.3871 19.6303 20.607 19.4781 20.6831C19.0914 20.8789 18.6878 20.8451 18.5368 20.7049C18.3676 20.5478 18.1247 20.5019 17.9096 20.5816C17.6946 20.6626 17.5447 20.8608 17.5229 21.0903C17.4867 21.4866 17.1931 21.8673 16.81 22.0159C16.6251 22.086 16.3569 22.1283 16.1164 21.9083C15.9666 21.773 15.7588 21.721 15.5643 21.7681C15.3673 21.8165 15.209 21.9591 15.1401 22.1488C15.1172 22.2092 15.0652 22.3542 14.4997 22.3542C14.0973 22.3542 13.3735 22.0823 13.0195 21.8479C12.5954 21.5688 9.93582 19.5847 7.63882 17.661C7.31619 17.3891 6.75794 16.8067 6.26494 16.292C5.82751 15.8352 5.42757 15.4208 5.22213 15.2468C4.96476 15.0293 4.58413 15.0619 4.37026 15.3181C4.15519 15.573 4.18657 15.9549 4.44157 16.17C4.62888 16.3283 4.99138 16.7113 5.39132 17.1281C5.93025 17.6912 6.48726 18.2736 6.86188 18.5878C9.11181 20.4716 11.8161 22.5053 12.3549 22.8593C12.7996 23.1517 13.7578 23.5625 14.4998 23.5625C15.0954 23.5625 15.5534 23.426 15.8712 23.159C16.2965 23.3245 16.7799 23.3257 17.2451 23.1445C17.7949 22.9318 18.2468 22.5028 18.5029 21.9833C18.979 22.0848 19.524 22.0135 20.0194 21.7646C20.5039 21.5205 20.8543 21.1471 21.0283 20.7109C21.5093 20.7363 22.0046 20.5659 22.4143 20.2143C23.1079 19.621 23.2988 18.6979 22.8977 17.8653Z" fill="#F4F5F6" fill-opacity="0.6"/>
<path d="M12.0837 7.854H6.64618C6.31268 7.854 6.04199 8.12469 6.04199 8.45819C6.04199 8.79169 6.31268 9.06237 6.64618 9.06237H12.0837C12.4172 9.06237 12.6879 8.79169 12.6879 8.45819C12.6879 8.12469 12.4172 7.854 12.0837 7.854Z" fill="#F4F5F6" fill-opacity="0.6"/>
<path d="M24.6681 16.5792C24.4808 16.3025 24.1062 16.2263 23.8295 16.4148L22.063 17.6014C21.7863 17.7875 21.7125 18.1633 21.8987 18.44C22.0158 18.6128 22.2068 18.707 22.4013 18.707C22.5162 18.707 22.6333 18.6744 22.7373 18.6043L24.5038 17.4178C24.7805 17.2317 24.8542 16.8559 24.6681 16.5792Z" fill="#F4F5F6" fill-opacity="0.6"/>
<path d="M20.9175 19.4625C20.485 19.1218 18.5504 17.1414 17.3542 15.8944C17.1234 15.6527 16.7403 15.6442 16.4999 15.8762C16.2582 16.107 16.2509 16.49 16.4817 16.7305C16.7923 17.0544 19.5315 19.9097 20.1684 20.4124C20.2783 20.4994 20.4112 20.5417 20.5417 20.5417C20.7193 20.5417 20.897 20.4619 21.0178 20.3109C21.2245 20.0498 21.1798 19.6692 20.9175 19.4625Z" fill="#F4F5F6" fill-opacity="0.6"/>
<path d="M18.5029 20.6744C17.7791 20.0955 15.9606 18.1634 15.5497 17.7164C15.3225 17.4699 14.9419 17.4554 14.6954 17.6801C14.4501 17.906 14.4332 18.2891 14.6592 18.5344C14.6809 18.5574 16.8511 20.9004 17.7477 21.6181C17.8588 21.7063 17.993 21.7498 18.1247 21.7498C18.3011 21.7498 18.4775 21.6712 18.5971 21.5239C18.805 21.2628 18.7627 20.8822 18.5029 20.6744Z" fill="#F4F5F6" fill-opacity="0.6"/>
<path d="M16.0987 21.8914C15.2372 21.1652 13.4742 19.2886 13.1299 18.92C12.9015 18.676 12.5184 18.6627 12.2755 18.891C12.0315 19.1194 12.0194 19.5012 12.2465 19.7454C12.742 20.2758 14.4288 22.0642 15.3194 22.8157C15.4329 22.9112 15.5707 22.9583 15.7084 22.9583C15.88 22.9583 16.0516 22.8846 16.1712 22.7432C16.3863 22.487 16.3537 22.1064 16.0987 21.8914Z" fill="#F4F5F6" fill-opacity="0.6"/>
<path d="M7.0615 6.81101C6.02594 5.82982 1.885 5.51201 0.640436 5.43832C0.468871 5.42988 0.310561 5.48664 0.189746 5.60145C0.068875 5.71501 0 5.87451 0 6.04126V16.9163C0 17.2498 0.270686 17.5205 0.604186 17.5205H4.22919C4.49019 17.5205 4.72219 17.3525 4.80313 17.1036C4.89131 16.8329 6.97331 10.4433 7.24756 7.30157C7.26331 7.11789 7.19563 6.93664 7.0615 6.81101ZM3.78813 16.3121H1.20831V6.68895C3.15013 6.84239 5.24538 7.17589 6.00663 7.54564C5.68644 10.1919 4.23763 14.8935 3.78813 16.3121Z" fill="#F4F5F6" fill-opacity="0.6"/>
<path d="M28.3961 6.64551C23.6522 6.64551 21.0204 7.85988 20.9105 7.91063C20.7534 7.98432 20.6362 8.12088 20.5879 8.28644C20.5396 8.452 20.5637 8.62963 20.6543 8.77701C21.4011 9.97932 23.7392 16.6566 24.1887 18.2854C24.2612 18.5476 24.4992 18.7288 24.7711 18.7288H28.3961C28.7296 18.7288 29.0003 18.4581 29.0003 18.1246V7.24964C29.0003 6.91495 28.7296 6.64551 28.3961 6.64551ZM27.792 17.5205H25.2231C24.6503 15.6548 22.9586 10.7901 22.0149 8.77944C22.9369 8.4665 24.9174 7.92876 27.792 7.86113V17.5205Z" fill="#F4F5F6" fill-opacity="0.6"/>
</svg>
