<svg width="1440" height="384" viewBox="0 0 1440 384" fill="none" xmlns="http://www.w3.org/2000/svg">
<path fill-rule="evenodd" clip-rule="evenodd" d="M0.000488281 0H1445V355.389L1443.97 355.473L1440.43 357.338L1436.09 359.935L1429.57 362.929L1424.41 364.733L1421.68 367.135L1416.26 368.678L1410.91 364.985L1404.15 364.734L1400.96 361.379L1394.75 360.647L1389.62 361.2L1384.46 361.759L1377.7 363.268L1374.97 365.651L1367.99 362.156L1355.87 359.214L1349.13 358.717L1344.28 357.786L1338.11 353.323L1327.34 352.181L1322.46 352.983L1320.32 350.657L1317.65 348.325L1311.47 345.858L1305.55 343.64C1302.97 342.342 1301.42 342.527 1300.48 342.637C1300.25 342.665 1300.06 342.688 1299.9 342.682C1299.09 342.655 1295 344.747 1295 344.747L1287.71 346.221L1282.5 350.523L1278.97 352.125L1275.98 354.762L1275.94 357.757L1271.34 359.077L1267.51 362.43L1262.66 361.26C1256.99 361.554 1255.09 362.724 1255.09 362.724L1248.89 362.791C1244.82 361.267 1241.31 361.476 1241.31 361.476L1236.47 362.74L1232.64 359.464L1228.03 358.227L1227.99 355.237L1224.99 352.661L1218.45 348.545L1210.6 347.497C1208.95 345.598 1204.87 343.584 1204.05 343.632C1203.52 343.66 1201.63 344.018 1198.41 344.705L1192.49 347.032L1186.31 349.625L1183.64 352.01L1181.5 354.383L1176.63 353.669L1170.16 354.04L1165.85 355.025L1163.18 357.912L1159.7 359.608L1154.85 360.638L1151.1 362.587L1139.5 365.003L1131.16 366.98L1126.28 365.751L1119.52 364.383L1114.36 363.929L1109.23 363.475L1103.02 364.324L1099.83 367.743L1095.23 367.254L1089.32 370.091L1082.3 370.492L1079.58 368.142L1077.37 365.026L1067.89 363.579L1063.54 361.068L1060 359.276L1053.79 358.885L1047.29 358.25L1039.71 357.188L1032.11 354.633L1025.1 355.034L1015.67 357.296C1014.09 359.389 1008.96 360.421 1008.15 360.47C1007.34 360.518 1003.01 360.513 1003.01 360.513L994.589 356.761L986.745 356.204L977.23 352.004L969.938 351.665L965.317 349.684L957.452 347.875L951.777 347.217L947.758 349.678L943.465 351.673L937.249 352.768L935.144 356.125L927.83 354.557L924.291 352.765C919.699 352.522 919.687 351.521 919.678 350.778C919.668 350.017 914.247 348.834 914.247 348.834L910.954 344.903L902.298 344.284L895.879 349.134L894.028 351.738L888.934 355.024L888.974 358.002L889.009 360.747L884.584 356.03L878.039 351.914L870.194 350.865C868.546 348.961 864.462 346.953 863.645 346.995C863.108 347.029 861.225 347.387 857.999 348.068L852.084 350.401L845.902 352.995L839.172 351.351L839.125 347.864L835.035 345.345L833.62 340.196L831.711 345.597L828.156 342.179L822.454 339.769L819.711 337.18L815.894 338.602L813.168 342.945L809.344 339.418L803.408 339.751L800.156 334L796.147 336.977L793.743 339.352L791.065 336.799L787.858 339.475L786.015 342.33L782.815 346.008L778.235 347.263L778.248 342.582L771.544 344.468L767.53 347.187L765.398 349.671L759.461 350.01L757.331 352.756L750.644 357.62L746.073 359.624L740.965 361.165L732.33 361.653L729.581 358.565L724.443 358.357L721.796 362.25L713.381 362.254L706.912 360.099L700.138 358.993L696.594 356.944L692.508 358.123L684.691 358.398L679.866 358.937L675.263 356.909L669.336 358.733L661.995 354.912L656.02 353.008L646.042 353.573L642.493 351.283L637.077 349.848L631.228 347.18L626.793 348.583L626.795 354.358L617.044 351.245L611.368 350.585L607.349 353.047L603.057 355.043L596.843 356.138L594.737 359.494L587.425 357.926L583.882 356.133C579.291 355.891 579.278 354.891 579.27 354.147C579.259 353.386 573.839 352.203 573.839 352.203L570.545 348.267L561.893 347.648L555.47 352.497L553.619 355.107L548.525 358.387L548.561 361.073L543.047 357.835L540.035 355.253L532.19 354.211C530.541 352.307 526.457 350.297 525.641 350.341C525.103 350.369 523.22 350.732 519.994 351.414L514.08 353.741L507.894 356.334L504.214 359.841L498.217 360.378L491.747 360.75L487.439 361.733L482.061 362.505C481.015 361.229 480.033 360.11 479.118 359.164C475.438 358.107 475.217 357.923 475.07 357.582C473.962 355.064 473.838 354.904 473.699 354.821C472.031 353.855 470.395 352.765 468.797 351.556C467.886 350.463 466.325 349.946 464.123 350.013L458.175 350.351L454.251 353.282C454.213 353.299 453.398 354.098 451.803 355.663C450.018 356.935 448.285 357.627 446.602 357.742L446.6 357.746C445.872 359.857 445.677 360.422 445.373 360.646L444.036 363.129L440.964 366.696C439.452 366.848 437.883 367.302 436.256 368.066L436.29 370.664L430.815 370.183L424.609 371.038L421.421 374.458L410.239 360.983L405.667 362.993L400.556 364.529L391.924 365.021L389.173 361.928L384.038 361.726L381.388 365.614L375.373 365.594L368.878 364.966L365.191 363.254L359.786 362.369L356.189 360.308L346.686 361.743L340.545 362.775L334.855 360.273L328.928 362.102L321.587 358.28L315.612 356.377L305.633 356.941L302.085 354.652L296.671 353.218L290.823 350.549L286.385 351.952L286.388 356.276L279.039 354.584L273.363 353.924L269.341 356.392L265.052 358.388L258.836 359.478L256.729 362.833L249.417 361.265L245.875 359.474C241.286 359.23 241.274 358.23 241.263 357.487C241.252 356.726 235.834 355.549 235.834 355.549L232.54 351.613L223.885 350.993L217.465 355.842L215.615 358.447L210.521 361.726L210.561 364.711L210.597 367.449L206.009 367.979L202.81 370.89L202.846 373.633L195.838 375.275L189.383 377.632L182.911 378.747L181.361 383.578L176.209 382.118L176.145 377.384L174.22 375.008L174.136 368.525L171.347 366.156L167.017 365.151L160.764 365.479L160.718 361.991L156.627 359.473L155.21 354.325L149.745 351.853L145.402 348.39L142.661 350.984L137.479 346.791L134.756 351.14L130.932 347.607L124.995 347.945L121.744 342.196L117.735 345.166L115.326 341.615L109.411 343.691L107.581 347.536L106.267 351.112L102.233 345.417L99.8358 348.051L95.2627 349.3L89.1171 353.895L86.9823 356.385L81.049 356.724L78.9187 359.465L72.2312 364.328L67.6597 366.333L62.548 367.874L53.9198 368.361L51.1682 365.273L46.0298 365.072L43.3832 368.965L37.4441 369.297L32.0419 369.607L28.4993 366.808L21.7249 365.702L18.184 363.652L13.3424 365.168L7.14856 366.533L0.000488281 364.977V0Z" fill="#F5F6F7"/>
<circle cx="1179" cy="127" r="69" fill="#DD0C18"/>
<path d="M1036.63 42.86C1013.39 57.0951 979.192 71.6984 965 77.2206C1076.2 142.26 1210.5 85.8109 1194.91 85.8109C1181.15 85.8109 1123.84 74.4631 1109 68C1078 54.4999 1059.87 28.6248 1036.63 42.86Z" fill="url(#paint0_linear)"/>
<path d="M1278.19 140.412C1260.28 152.025 1252.94 166.495 1242 171C1290 247 1411.35 182.959 1400.16 175.451C1391.2 169.444 1349.5 163.5 1356.5 134C1341.32 129.161 1296.1 128.799 1278.19 140.412Z" fill="url(#paint1_linear)"/>
<defs>
<linearGradient id="paint0_linear" x1="1080.5" y1="34.9999" x2="1080.5" y2="111" gradientUnits="userSpaceOnUse">
<stop stop-color="white"/>
<stop offset="1" stop-color="white" stop-opacity="0"/>
</linearGradient>
<linearGradient id="paint1_linear" x1="1312" y1="134" x2="1312" y2="196" gradientUnits="userSpaceOnUse">
<stop stop-color="white"/>
<stop offset="1" stop-color="white" stop-opacity="0"/>
</linearGradient>
</defs>
</svg>
