<svg width="1322" height="1206" viewBox="0 0 1322 1206" fill="none" xmlns="http://www.w3.org/2000/svg">
<g filter="url(#filter0_d)">
<path fill-rule="evenodd" clip-rule="evenodd" d="M1872.8 844.549L514.256 -514L138 -137.744L139.88 -135.864L178.431 -174.414L183.409 -169.267L187.888 -162.934L201.492 -162.89L204.059 -156.923L209.22 -150.843L210.723 -145.935L212.286 -139.631L215.455 -130.995L218.477 -124.681L218.754 -120.019L222.249 -113.707L230.469 -112.228L236.815 -106.34L242.768 -106.513L249.054 -101.563L253.193 -96.4137L257.349 -91.2386L262.091 -83.7409L262.388 -79.0932L271.897 -75.9646L285.554 -67.6786L292.11 -62.0299L297.352 -58.4875L307.004 -56.9827L317.801 -48.2702L321.482 -43.1268L325.54 -43.3132L330.087 -43.0232L337.939 -39.675L345.32 -36.3445C348.836 -35.1978 350.078 -33.6185 350.82 -32.6748C351.003 -32.4411 351.156 -32.2464 351.306 -32.1068C352.069 -31.3937 353.854 -25.7887 353.854 -25.7887L359.112 -17.8395L359.899 -9.19918L361.63 -4.54408L361.938 0.577487L359.237 3.34443L362.2 8.71629L362.601 15.2384L368.057 18.5601C372.926 23.9647 373.58 26.7548 373.58 26.7548L379.124 32.4211C384.201 34.7157 387.186 38.0826 387.186 38.0826L390.42 43.623L396.874 44.098L402.172 47.1366L404.937 44.4444L410.005 44.8091L419.686 46.9761L427.745 53.1211C430.97 52.8809 436.505 54.7385 437.2 55.522C437.66 56.0336 439.039 58.0655 441.331 61.6118L444.564 69.0922L447.792 77.0527L448.032 81.6475L447.798 85.7455L452.862 89.5064L458.378 95.7L461.381 100.5L461.163 105.554L462.768 110.255L466.217 115.583L467.834 120.758L476.126 133.462L481.868 142.813L487.413 146.114L494.782 150.985L499.864 155.238L504.923 159.468L509.765 165.861L509.53 171.867L514.142 175.588L516.901 183.525L522.889 190.245L527.501 190.567L532.348 189.725L542.243 196.978L548.474 198.626L553.315 200.196L559.298 205.465L565.756 210.764L573.588 216.657L582.804 221.207L588.78 227.916L595.247 238.512C594.772 241.859 598.474 247.445 599.165 248.225C599.854 249.002 603.77 252.909 603.77 252.909L614.821 257.11L622.43 263.703L634.876 268.482L641.786 274.773L647.777 277.147L656.548 282.616L662.287 287.152L663.678 293.036L665.743 298.744L670.37 305.37L669.211 310.338L677.263 315.528L682.102 317.096C686.481 321.031 687.405 320.129 688.091 319.457C688.795 318.773 694.781 322.6 694.781 322.6L701.351 321.993L709.751 329.263L711.135 339.5L710.433 343.553L712.045 351.163L709.291 353.845L706.752 356.319L715.064 356.018L724.745 358.186L732.805 364.33C736.034 364.084 741.564 365.948 742.265 366.725C742.72 367.243 744.097 369.274 746.396 372.815L749.62 380.299L752.849 388.263L760.442 392.854L763.667 389.713L769.668 391.117L775.649 387.698L772.447 394.356L778.785 394.453L786.147 397.415L790.992 397.535L793.149 402.288L791.653 408.72L798.334 408.962L803.403 414.639L811.595 412.333L812.508 418.68L812.515 423.024L817.27 423.117L817.73 428.463L816.793 432.738L816.332 438.991L819.332 444.283L823.593 439.998L827.94 447.787L829.092 453.903L828.754 458.1L833.819 463.783L833.241 468.218L834.853 478.711L837.162 484.678L840.379 490.709L847.751 498.97L853.057 498.64L857.898 503.101L856.74 509.051L864.354 516.671L872.177 520.56L879.318 525.682L884.396 527.02L887.019 531.794L893.844 539.121L897.719 543.98L903.737 546.297L907.437 553.325L917.57 556.483L924.716 560.154L933.233 569.701L938.535 570.824L944.748 574.417L952.477 577.276L955.211 582.571L949.938 587.84L961.606 593.825L967.347 598.361L968.737 604.245L970.8 609.953L975.426 616.577L974.269 621.547L982.319 626.734L987.161 628.305C991.539 632.239 992.464 631.338 993.15 630.667C993.854 629.982 999.84 633.809 999.84 633.809L1006.41 633.197L1014.81 640.464L1016.2 650.704L1015.49 654.762L1017.11 662.367L1014.62 664.786L1022.57 666.821L1027.66 667.192L1035.71 673.342C1038.94 673.096 1044.47 674.959 1045.17 675.738C1045.63 676.25 1047 678.286 1049.3 681.828L1052.53 689.306L1055.76 697.272L1055.89 703.805L1060.83 709.722L1066.35 715.919L1069.35 720.716L1073.51 726.288C1075.63 726.07 1077.54 725.939 1079.23 725.903C1083.52 728.269 1083.89 728.302 1084.34 728.123C1087.64 726.827 1087.89 726.794 1088.1 726.844C1090.49 727.472 1092.96 727.958 1095.51 728.301C1097.34 728.128 1099.22 729.069 1101.15 731.123L1106.23 736.816L1107.1 743.043C1107.12 743.094 1107.13 744.559 1107.15 747.433C1107.6 750.209 1108.54 752.41 1109.96 754.038L1109.96 754.042C1108.69 756.629 1108.35 757.322 1108.42 757.802L1107.36 761.278L1106.89 767.315C1108.12 768.821 1109.12 770.656 1109.9 772.826L1107.5 775.168L1112.89 779.684L1117.73 786.082L1117.49 792.089L1139.92 789.912L1142.22 795.885L1145.44 801.913L1152.81 810.176L1158.12 809.843L1162.95 814.307L1161.8 820.255L1167.27 825.681L1173.72 830.986L1178.62 832.762L1184.32 836.846L1189.46 838.221L1196.75 848.133L1201.37 854.634L1208.8 857.5L1212.5 864.535L1222.63 867.692L1229.77 871.363L1238.29 880.91L1243.59 882.032L1249.8 885.624L1257.53 888.482L1260.27 893.78L1256.32 897.723L1264.52 902.832L1270.26 907.367L1271.64 913.26L1273.71 918.965L1278.34 925.586L1277.18 930.556L1285.23 935.744L1290.07 937.314C1294.45 941.245 1295.37 940.345 1296.06 939.677L1296.06 939.676C1296.77 938.991 1302.75 942.821 1302.75 942.821L1309.32 942.209L1317.72 949.478L1319.1 959.716L1318.4 963.768L1320.02 971.373L1317.26 974.06L1314.73 976.528L1318.4 981.164L1318.63 986.717L1316.1 989.189L1320.94 997.031L1324.63 1005.02L1329.47 1011.9L1326.47 1017.71L1332.47 1021.05L1336.84 1016.78L1340.76 1016.36L1346.75 1010.51L1351.44 1010.88L1356.27 1013.88L1361.63 1019.84L1364.86 1016.7L1370.86 1018.1L1376.84 1014.68L1384.04 1017.37L1391.14 1018.15L1391.25 1022.99L1399.77 1023.86L1398.26 1030.29L1404.95 1030.53L1410.02 1036.21L1418.21 1033.91L1419.12 1040.25L1424.55 1039.18L1428 1046.43L1426.15 1051.6L1424.08 1056.05L1432.93 1054.51L1432.69 1059.08L1435.69 1064.36L1437.06 1074.12L1436.72 1078.32L1441.78 1084L1441.21 1088.43L1442.82 1098.93L1445.13 1104.89L1448.35 1110.93L1455.72 1119.18L1461.03 1118.85L1465.86 1123.32L1464.7 1129.27L1469.78 1134.95L1474.38 1140.12L1480.15 1140.78L1487.29 1145.9L1492.36 1147.23L1495.36 1153L1499.72 1159.85L1507.79 1165.02L1512.86 1170.7L1518.63 1173.3L1525.53 1176.7L1532.68 1180.37L1534.71 1182.65L1872.8 844.549Z" fill="url(#paint0_linear)"/>
</g>
<g filter="url(#filter1_d)">
<path fill-rule="evenodd" clip-rule="evenodd" d="M497.328 -692L2129.75 940.418L1728.26 1341.9L1727.01 1340.83L1720.9 1338.94L1713.06 1336.97L1702.31 1332.98L1694.44 1329.19L1688.65 1328.83L1680.79 1324.45L1678.91 1314.22L1671.55 1306.31L1671.74 1298.91L1665.55 1291.07L1659.13 1285.9L1652.68 1280.71L1643.34 1274.78L1637.56 1274.38L1633.62 1262.55L1623.25 1245.53L1616.2 1237.35L1611.77 1230.82L1609.85 1218.82L1598.96 1205.35L1592.55 1200.75L1592.76 1195.71L1592.38 1190.06L1588.18 1180.28L1584 1171.09C1582.56 1166.71 1580.59 1165.16 1579.41 1164.24C1579.12 1164.01 1578.87 1163.81 1578.7 1163.63C1577.81 1162.68 1570.83 1160.43 1570.83 1160.43L1560.93 1153.85L1550.19 1152.83L1544.39 1150.65L1538.02 1150.24L1534.6 1153.59L1527.91 1149.88L1519.8 1149.34L1515.64 1142.55C1508.9 1136.47 1505.43 1135.64 1505.43 1135.64L1498.36 1128.72C1495.48 1122.4 1491.28 1118.67 1491.28 1118.67L1484.38 1114.62L1483.75 1106.6L1479.95 1100L1483.28 1096.58L1482.8 1090.28L1480.06 1078.23L1472.38 1068.18C1472.66 1064.18 1470.32 1057.29 1469.35 1056.42C1468.71 1055.85 1466.18 1054.12 1461.76 1051.26L1452.44 1047.2L1442.53 1043.15L1436.82 1042.82L1431.73 1043.09L1427.03 1036.78L1419.3 1029.89L1413.32 1026.14L1407.04 1026.38L1401.19 1024.36L1394.55 1020.05L1388.11 1018.01L1372.28 1007.64L1360.63 1000.45L1356.5 993.545L1350.4 984.361L1345.09 978.022L1339.81 971.713L1331.84 965.662L1324.37 965.922L1319.72 960.171L1309.85 956.702L1301.46 949.225L1301.04 943.49L1302.06 937.472L1292.99 925.136L1290.91 917.383L1288.94 911.358L1282.36 903.895L1275.74 895.841L1268.37 886.077L1262.67 874.6L1254.3 867.137L1241.1 859.045C1236.94 859.617 1229.98 854.988 1229.01 854.125C1228.04 853.265 1223.16 848.378 1223.16 848.378L1217.88 834.621L1209.65 825.13L1203.65 809.637L1195.79 801.016L1192.81 793.558L1185.97 782.629L1180.3 775.473L1172.98 773.713L1165.88 771.118L1157.62 765.333L1151.45 766.747L1144.96 756.713L1142.98 750.69C1138.07 745.228 1139.19 744.084 1140.02 743.235C1140.86 742.363 1136.08 734.903 1136.08 734.903L1136.8 726.742L1127.72 716.265L1114.99 714.491L1109.95 715.342L1100.49 713.299L1097.17 716.709L1094.11 719.85L1094.44 709.522L1091.69 697.478L1084.01 687.43C1084.3 683.418 1081.96 676.535 1080.99 675.66C1080.34 675.091 1077.81 673.37 1073.4 670.494L1064.08 666.448L1054.17 662.394L1048.42 652.934L1052.31 648.941L1050.53 641.476L1054.75 634.061L1046.49 638.005L1046.34 630.127L1042.62 620.963L1042.44 614.94L1036.53 612.235L1028.54 614.061L1028.2 605.756L1021.12 599.427L1023.95 589.257L1016.05 588.09L1010.65 588.058L1010.51 582.148L1003.87 581.548L998.559 582.692L990.789 583.231L984.197 579.476L989.501 574.203L979.797 568.759L972.19 567.295L966.976 567.694L959.886 561.37L954.378 562.065L941.328 560.007L933.9 557.106L926.388 553.077L916.082 543.872L916.465 537.279L910.896 531.239L903.507 532.647L893.997 523.145L889.123 513.403L882.72 504.501L881.03 498.182L875.083 494.898L865.941 486.377L859.883 481.536L856.972 474.045L848.217 469.41L844.24 456.8L839.641 447.9L827.731 437.265L826.308 430.669L821.81 422.929L818.218 413.307L811.622 409.883L805.101 416.408L797.601 401.876L791.935 394.718L784.614 392.959L777.509 390.366L769.253 384.583L763.082 385.995L756.593 375.963L754.616 369.936C749.704 364.475 750.819 363.33 751.65 362.481C752.497 361.61 747.71 354.15 747.71 354.15L748.436 345.983L739.362 335.509L726.627 333.731L721.587 334.589L712.128 332.539L709.134 335.614L706.563 325.726L706.076 319.407L698.391 309.367C698.679 305.353 696.336 298.469 695.364 297.596C694.726 297.021 692.188 295.303 687.773 292.429L678.463 288.377L668.546 284.319L660.426 284.123L653.046 277.955L645.316 271.065L639.338 267.31L632.391 262.106C632.651 259.483 632.804 257.11 632.841 255.007C629.877 249.656 629.834 249.198 630.054 248.647C631.648 244.55 631.688 244.23 631.625 243.98C630.832 241.003 630.214 237.923 629.775 234.753C629.981 232.488 628.801 230.142 626.238 227.729L619.137 221.391L611.393 220.271C611.33 220.246 609.508 220.228 605.937 220.194C602.484 219.615 599.744 218.439 597.714 216.667L597.709 216.669C594.5 218.232 593.64 218.65 593.044 218.56L588.729 219.854L581.228 220.413C579.349 218.878 577.064 217.618 574.363 216.643L571.465 219.616L565.824 212.888L557.847 206.843L550.383 207.105L552.973 179.249L545.537 176.356L538.028 172.316L527.72 163.121L528.107 156.518L522.534 150.489L515.148 151.887L508.376 145.071L501.748 137.024L499.516 130.924L494.41 123.819L492.675 117.426L480.318 108.313L472.215 102.54L468.613 93.2853L459.852 88.6566L455.876 76.046L451.276 67.1458L439.366 56.5101L437.944 49.9153L433.448 42.1794L429.855 32.5575L423.257 29.1298L418.376 34.018L411.984 23.8036L406.318 16.6462L398.987 14.891L391.887 12.2999L383.633 6.50909L377.462 7.91959L370.973 -2.11184L368.996 -8.13744C364.089 -13.5942 365.202 -14.7398 366.029 -15.5917L366.03 -15.5929C366.877 -16.4644 362.086 -23.9151 362.086 -23.9151L362.812 -32.0823L353.735 -42.56L341.004 -44.3346L335.971 -43.4829L326.511 -45.5327L323.185 -42.1158L320.132 -38.9819L314.351 -43.5655L307.448 -43.8913L304.389 -40.7517L294.618 -46.8143L284.664 -51.4433L276.092 -57.4942L268.883 -53.7889L264.712 -61.2581L269.988 -66.6781L270.497 -71.5371L277.727 -78.9569L277.252 -84.7823L273.497 -90.8095L266.062 -97.5034L269.95 -101.496L268.174 -108.962L272.388 -116.379L269.006 -125.344L268.012 -134.163L261.985 -134.329L260.868 -144.92L252.879 -143.084L252.55 -151.394L245.462 -157.72L248.284 -167.887L240.399 -169.061L241.69 -175.794L232.662 -180.131L226.251 -177.855L220.727 -175.298L222.603 -186.29L216.92 -186.023L210.342 -189.778L198.208 -191.529L192.984 -191.128L185.898 -197.448L180.395 -196.758L167.346 -198.819L159.916 -201.718L152.401 -205.752L142.103 -214.949L142.484 -221.547L136.906 -227.579L129.518 -226.171L122.434 -232.505L115.981 -238.258L115.141 -245.422L108.737 -254.325L107.053 -260.64L99.8706 -264.397L91.3314 -269.852L85.0142 -279.686L497.328 -692Z" fill="url(#paint1_linear)"/>
</g>
<path d="M1147.12 183.506C1127.61 195.535 1098.91 207.874 1087 212.54C1180.33 267.496 1293.04 219.798 1279.96 219.798C1268.41 219.798 1220.31 210.21 1207.86 204.749C1181.84 193.342 1166.62 171.478 1147.12 183.506Z" fill="url(#paint2_linear)"/>
<circle cx="1086" cy="234" r="58" fill="#DD0C18"/>
<path d="M938.104 213.211C915.786 226.787 906.628 243.703 893 248.97C952.817 337.817 1104.04 262.951 1090.1 254.173C1078.94 247.151 1026.97 240.202 1035.69 205.715C1016.77 200.059 960.422 199.635 938.104 213.211Z" fill="url(#paint3_linear)"/>
<defs>
<filter id="filter0_d" x="84" y="-564" width="1842.8" height="1842.8" filterUnits="userSpaceOnUse" color-interpolation-filters="sRGB">
<feFlood flood-opacity="0" result="BackgroundImageFix"/>
<feColorMatrix in="SourceAlpha" type="matrix" values="0 0 0 0 0 0 0 0 0 0 0 0 0 0 0 0 0 0 127 0"/>
<feOffset dy="4"/>
<feGaussianBlur stdDeviation="27"/>
<feColorMatrix type="matrix" values="0 0 0 0 0 0 0 0 0 0 0 0 0 0 0 0 0 0 0.42 0"/>
<feBlend mode="normal" in2="BackgroundImageFix" result="effect1_dropShadow"/>
<feBlend mode="normal" in="SourceGraphic" in2="effect1_dropShadow" result="shape"/>
</filter>
<filter id="filter1_d" x="0" y="-752" width="2193.75" height="2193.75" filterUnits="userSpaceOnUse" color-interpolation-filters="sRGB">
<feFlood flood-opacity="0" result="BackgroundImageFix"/>
<feColorMatrix in="SourceAlpha" type="matrix" values="0 0 0 0 0 0 0 0 0 0 0 0 0 0 0 0 0 0 127 0"/>
<feOffset dy="4"/>
<feGaussianBlur stdDeviation="32"/>
<feColorMatrix type="matrix" values="0 0 0 0 0 0 0 0 0 0 0 0 0 0 0 0 0 0 0.25 0"/>
<feBlend mode="normal" in2="BackgroundImageFix" result="effect1_dropShadow"/>
<feBlend mode="normal" in="SourceGraphic" in2="effect1_dropShadow" result="shape"/>
</filter>
<linearGradient id="paint0_linear" x1="370.07" y1="-318.548" x2="1734.11" y2="1045.49" gradientUnits="userSpaceOnUse">
<stop stop-color="white"/>
<stop offset="1" stop-color="#D9D9D9"/>
</linearGradient>
<linearGradient id="paint1_linear" x1="1284" y1="138.5" x2="880.209" y2="557.537" gradientUnits="userSpaceOnUse">
<stop stop-color="#E8E8E8"/>
<stop offset="1" stop-color="#F5F6F7"/>
</linearGradient>
<linearGradient id="paint2_linear" x1="1183.94" y1="176.865" x2="1183.94" y2="241.082" gradientUnits="userSpaceOnUse">
<stop stop-color="white"/>
<stop offset="1" stop-color="white" stop-opacity="0"/>
</linearGradient>
<linearGradient id="paint3_linear" x1="980.234" y1="205.715" x2="980.234" y2="278.196" gradientUnits="userSpaceOnUse">
<stop stop-color="white"/>
<stop offset="1" stop-color="white" stop-opacity="0"/>
</linearGradient>
</defs>
</svg>
