<svg width="28" height="23" viewBox="0 0 28 23" fill="none" xmlns="http://www.w3.org/2000/svg">
<path fill-rule="evenodd" clip-rule="evenodd" d="M23.8076 12.974L23.8832 12.923C25.4954 11.8341 26.5001 10.0946 26.5001 8.17089C26.5001 5.01109 23.7381 2.28711 20.124 2.28711C18.1858 2.28711 16.4692 3.08282 15.3091 4.31517L14.217 5.47523L13.1248 4.31525C11.9647 3.08309 10.2482 2.28751 8.31011 2.28751C4.69606 2.28751 1.93408 5.01149 1.93408 8.17129C1.93408 9.64304 2.51928 10.9987 3.51179 12.0446L3.67646 12.2182L3.75672 12.2893L3.77021 12.3013L3.7834 12.3136C3.85625 12.3814 3.93092 12.4476 4.00736 12.5122L4.02108 12.5238L4.03453 12.5357L13.1735 20.64C13.6979 21.105 14.446 21.1085 14.9739 20.6498L23.7388 13.0337L23.8076 12.974ZM3.54214 14.1039L3.0393 13.658C2.94459 13.578 2.85196 13.4958 2.7615 13.4116L2.51867 13.1963L2.40468 13.0952L2.40296 13.0937L2.42371 13.0771C2.42266 13.076 2.42162 13.0749 2.42057 13.0738C2.30781 12.9549 2.19909 12.8325 2.09461 12.7068C2.02854 12.6273 1.96416 12.5466 1.90153 12.4645C1.80198 12.3342 1.70685 12.2006 1.61633 12.0641C0.866905 10.9339 0.434082 9.59999 0.434082 8.17129C0.434082 4.09334 3.9603 0.78751 8.31011 0.78751C10.3196 0.78751 12.1532 1.493 13.5447 2.65419C13.7821 2.85228 14.0066 3.06362 14.2169 3.28699C14.4272 3.06361 14.6517 2.85225 14.889 2.65415C16.2805 1.49275 18.1144 0.787109 20.124 0.787109C24.4739 0.787109 28.0001 4.09294 28.0001 8.17089C28.0001 10.6396 26.7077 12.8254 24.7227 14.166L15.9577 21.7821C14.8608 22.7351 13.266 22.7268 12.1783 21.7623L3.54214 14.1039Z" fill="white"/>
</svg>
