<svg width="112" height="142" viewBox="0 0 112 142" fill="none" xmlns="http://www.w3.org/2000/svg">
<path d="M1.22314 61.033L4.17679 138.756L4.38564 138.748L111.119 134.691L108.258 59.3974L108.165 56.9686L1.43171 61.025" fill="#FFAD53"/>
<path d="M89.1777 7.90365C89.2878 7.06912 89.3422 6.62135 89.3325 6.612C89.2515 6.56465 79.5304 5.15144 67.7073 3.47262L46.2147 0.404846L39.949 43.6749L33.7017 86.9484L55.3664 90.0591L77.0313 93.1692L83.2369 49.9428C86.1376 29.735 88.5553 12.6253 89.1777 7.90365ZM78.6159 20.5157L74.579 48.6459L70.5404 76.7768L78.6159 20.5157ZM50.7837 45.4261C50.7852 45.412 50.7872 45.3978 50.7895 45.3834C50.7916 45.3694 50.793 45.3557 50.7947 45.3415L50.7837 45.4261ZM52.6067 16.8704L44.5379 73.0785L48.5732 44.9664L52.6067 16.8704Z" fill="#26785F"/>
<path d="M90.6546 6.20716C90.5732 6.16036 80.8527 4.74701 69.0288 3.06748L47.5363 0L41.271 43.2705L35.0234 86.5437L56.6877 89.6542L78.3526 92.7645L84.5583 49.5383C87.9715 25.7585 90.7163 6.26961 90.6546 6.20716ZM70.8298 76.4186C68.7119 76.5033 67.0723 77.3296 65.7563 78.9802C65.2801 79.5843 64.9212 80.2399 64.7463 80.834C64.62 81.3474 64.4138 81.7947 64.3203 81.8342C63.9608 81.9956 51.6898 80.2332 51.5459 80.0004C51.4925 79.8866 51.438 79.4015 51.436 78.9235C51.4571 77.7938 50.7206 75.9013 49.9172 74.972C49.0781 74.0379 47.865 73.2446 46.7605 72.927L45.8601 72.6735L49.8941 44.5613L53.9281 16.4663L55.104 16.4054C55.7457 16.3743 56.577 16.2459 56.9489 16.1216C58.6807 15.5214 60.5088 13.7496 61.0009 12.1751C61.1073 11.8013 61.2633 11.3289 61.3456 11.1278L61.4718 10.7398L67.8847 11.6603C75.0594 12.6901 74.3538 12.4294 74.3576 14.0047C74.3719 15.1387 74.8715 16.4657 75.7025 17.5762C76.5934 18.7654 78.2739 19.8728 79.4346 20.0397L79.9369 20.1118L75.8997 48.2416L71.8614 76.3718L70.8298 76.4186Z" fill="#26785F"/>
<path d="M73.8103 46.0312C73.7253 44.0385 73.0083 41.8827 71.8806 40.2527C70.7791 38.6789 69.6486 37.6861 67.9109 36.7292C66.7147 36.0617 66.4254 35.9851 64.4317 35.6993C62.4905 35.4199 62.1192 35.4206 60.8957 35.6864C58.2341 36.2415 56.0268 37.5703 54.4382 39.5174C51.4322 43.2081 51.196 48.6752 53.8623 52.5248C56.9839 57.0239 62.6829 58.6034 67.5424 56.2935C71.4356 54.4463 73.981 50.2659 73.8103 46.0312Z" fill="#26785F"/>
<path d="M73.7136 47.888C73.2033 51.4453 70.8623 54.7181 67.5421 56.2935C62.6825 58.6035 56.9836 57.0239 53.8619 52.5248C52.3147 50.2908 51.7439 47.512 52.1263 44.8519C52.4022 42.9282 53.1769 41.0665 54.4379 39.5175C56.0265 37.5703 58.2337 36.2416 60.8954 35.6865C62.1188 35.4207 62.4902 35.42 64.4314 35.6993C66.4251 35.9851 66.7144 36.0618 67.9106 36.7292C69.6483 37.6862 70.7787 38.679 71.8802 40.2528C73.008 41.8827 73.725 44.0385 73.81 46.0312C73.8351 46.6539 73.8007 47.2756 73.7136 47.888ZM79.9353 20.1118L79.433 20.0396C78.2722 19.8728 76.5917 18.7654 75.7008 17.5762C74.8698 16.4657 74.3702 15.1387 74.356 14.0047C74.3521 12.4294 75.0577 12.6901 67.883 11.6603L61.4702 10.7397L61.3439 11.1278C61.2616 11.3289 61.1056 11.8013 60.9992 12.1751C60.5071 13.7496 58.679 15.5214 56.9473 16.1216C56.5753 16.2459 55.7441 16.3743 55.1024 16.4054L53.9264 16.4663L45.8584 72.6735L46.7589 72.927C47.8634 73.2446 49.0764 74.0378 49.9155 74.972C50.7189 75.9013 51.4554 77.7938 51.4343 78.9234C51.4363 79.4015 51.4908 79.8866 51.5443 80.0004C51.6881 80.2332 63.9592 81.9956 64.3187 81.8342C64.4122 81.7947 64.6183 81.3474 64.7446 80.834C64.9196 80.2399 65.2784 79.5843 65.7547 78.9802C67.0706 77.3296 68.7102 76.5033 70.8281 76.4186L71.8597 76.3718L79.9353 20.1118Z" fill="#2AAF86"/>
<path d="M40.9572 4.75732C40.635 3.9795 40.458 3.56449 40.4455 3.5614C40.3514 3.56121 31.2258 7.19711 20.1468 11.6547L0 19.7444L16.2094 60.3505L32.4358 100.95L52.7527 92.8113L73.0707 84.6723L56.8311 44.1342C49.2395 25.1833 42.7787 9.15752 40.9572 4.75732ZM38.1164 20.9606L48.685 47.3403L59.2526 73.7214L38.1164 20.9606ZM26.4676 56.4495C26.4621 56.4363 26.4566 56.4234 26.4515 56.4094C26.4461 56.3966 26.4403 56.3837 26.4348 56.3704L26.4676 56.4495ZM13.7687 30.8083L34.885 83.52L24.3235 57.1564L13.7687 30.8083Z" fill="#26785F"/>
<path d="M41.3879 2.54938C41.2938 2.54952 32.1689 6.18566 21.0895 10.6435L0.942383 18.7333L17.1517 59.3391L33.3782 99.9388L53.6949 91.8002L74.0124 83.6617L57.7735 43.1236C48.8399 20.8233 41.4725 2.57275 41.3879 2.54938ZM59.3242 73.2666C57.5326 74.3992 56.5259 75.9345 56.2112 78.022C56.101 78.7833 56.1179 79.5305 56.2634 80.1324C56.411 80.6402 56.4559 81.1304 56.3948 81.2116C56.1639 81.5312 44.656 86.1404 44.4153 86.0111C44.3118 85.9391 44.0223 85.5462 43.7815 85.1332C43.2348 84.1445 41.6505 82.8736 40.4906 82.4703C39.2966 82.0809 37.8493 82.0004 36.734 82.2774L35.8276 82.5087L25.265 56.1455L14.7108 29.7978L15.6989 29.1571C16.2391 28.8092 16.8949 28.2825 17.1545 27.989C18.3545 26.6033 19.0512 24.1544 18.6903 22.5448C18.5957 22.1683 18.4948 21.6811 18.4654 21.4659L18.3806 21.0664L24.3945 18.6575C31.1232 15.9617 30.3818 16.0889 31.173 17.4514C31.7518 18.4258 32.8483 19.3252 34.1228 19.8712C35.4893 20.4557 37.4986 20.5747 38.5876 20.1391L39.0587 19.9504L49.627 46.33L60.1944 72.7105L59.3242 73.2666Z" fill="#26785F"/>
<path d="M46.7132 45.46C45.6434 43.7765 43.9442 42.2682 42.1526 41.4205C40.412 40.6083 38.9364 40.3132 36.9531 40.3537C35.5836 40.374 35.2944 40.4522 33.4248 41.2008C31.6045 41.9301 31.2832 42.1163 30.3566 42.9583C28.3288 44.7702 27.0816 47.0242 26.6795 49.5051C25.9215 54.2039 28.4505 59.0569 32.6843 61.0575C37.6377 63.3931 43.3628 61.9116 46.4165 57.4814C48.8642 53.9349 48.9784 49.042 46.7132 45.46Z" fill="#26785F"/>
<path d="M47.5582 47.1164C48.8949 50.4518 48.504 54.4565 46.4168 57.4814C43.3631 61.9116 37.638 63.3931 32.6846 61.0575C30.2275 59.8962 28.3441 57.7751 27.3452 55.2804C26.6225 53.4765 26.3622 51.477 26.6799 49.5051C27.0819 47.0242 28.3291 44.7702 30.3569 42.9583C31.2835 42.1163 31.6048 41.9301 33.4251 41.2008C35.2947 40.4522 35.5839 40.374 36.9534 40.3537C38.9367 40.3132 40.4123 40.6083 42.153 41.4205C43.9445 42.2682 45.6437 43.7765 46.7135 45.46C47.0465 45.9867 47.3275 46.5421 47.5582 47.1164ZM39.0588 19.9504L38.5877 20.1392C37.4987 20.5747 35.4894 20.4557 34.1229 19.8712C32.8484 19.3253 31.7519 18.4258 31.1731 17.4514C30.3819 16.0889 31.1233 15.9618 24.3946 18.6575L18.3807 21.0665L18.4655 21.4659C18.4949 21.6812 18.5958 22.1683 18.6905 22.5448C19.0513 24.1545 18.3547 26.6034 17.1546 27.9891C16.895 28.2825 16.2392 28.8092 15.699 29.1572L14.7109 29.7978L35.8277 82.5087L36.7341 82.2775C37.8494 82.0005 39.2968 82.081 40.4907 82.4704C41.6507 82.8736 43.2349 84.1445 43.7816 85.1333C44.0224 85.5463 44.312 85.9392 44.4154 86.0112C44.6561 86.1405 56.1641 81.5312 56.3949 81.2117C56.456 81.1305 56.4111 80.6403 56.2635 80.1324C56.118 79.5306 56.1011 78.7833 56.2113 78.0221C56.526 75.9345 57.5327 74.3992 59.3243 73.2666L60.1945 72.7105L39.0588 19.9504Z" fill="#2AAF86"/>
<path d="M1.33057 63.8514L4.28421 141.574L4.49306 141.566L111.226 137.51L108.273 59.787L1.33071 63.8514" fill="#FFAD53"/>
<path d="M12.7134 72.4147L14.9844 132.172L15.15 132.165L99.8467 128.947L97.5755 69.1896L12.7134 72.4147Z" fill="#C97A23" fillOpacity="0.160784"/>
<path d="M88.502 88.3086L89.1963 106.579L89.2369 106.577L109.868 105.793L109.174 87.523L88.502 88.3086Z" fill="#C97A23"/>
<path d="M95.4779 90.9263C93.9366 91.0472 92.6489 91.6778 91.6148 92.8179C90.6155 93.9747 90.1506 95.3338 90.2202 96.8953C90.3391 98.4325 90.9708 99.7206 92.1154 100.759C93.27 101.755 94.6243 102.219 96.1782 102.152C97.7199 102.033 99.0087 101.405 100.044 100.266C101.046 99.1103 101.513 97.7517 101.445 96.19C101.328 94.6526 100.699 93.3639 99.556 92.3239C98.403 91.3269 97.0496 90.8606 95.4957 90.9251" fill="#AFA396"/>
<path d="M1.22314 61.033L4.17679 138.756L4.28392 141.574L10.6549 141.332L7.59393 60.7905L1.22314 61.033Z" fill="#4A2700" fillOpacity="0.117647"/>
<path d="M88.9951 97.1246L89.357 106.643L94.268 106.456L110.665 105.833L110.304 96.3146L88.9951 97.1246Z" fill="#4A2700" fillOpacity="0.0666667"/>
</svg>
