<svg width="23" height="28" viewBox="0 0 23 28" fill="none" xmlns="http://www.w3.org/2000/svg">
<mask id="path-1-inside-1" fill="white">
<path fill-rule="evenodd" clip-rule="evenodd" d="M3.08456 14.3351L3.08457 14.3569C1.46269 16.0295 0.487305 17.8807 0.487305 19.1593C0.487305 21.3909 3.45816 23.2981 7.65165 24.0635C7.70118 25.722 9.28521 27.0534 11.232 27.0534C13.1151 27.0534 14.6587 25.8078 14.8027 24.2254C19.5329 23.6024 23.0001 21.5702 23.0001 19.1593C23.0001 17.6642 21.6665 15.3862 19.5251 13.5265C19.3514 7.24417 17.122 0.958984 11.3104 0.958984C4.38337 0.958984 3.08456 7.79542 3.08456 14.3351ZM9.19621 24.2867C10.0148 24.3753 10.8676 24.4221 11.7437 24.4221C12.2504 24.4221 12.7492 24.4064 13.2381 24.3761C13.0226 24.9539 12.347 25.5534 11.232 25.5534C10.0594 25.5534 9.37281 24.8903 9.19621 24.2867Z"/>
</mask>
<path d="M3.08457 14.3569L4.1614 15.4012L4.58495 14.9644L4.58457 14.356L3.08457 14.3569ZM3.08456 14.3351H1.58455L1.58456 14.3361L3.08456 14.3351ZM7.65165 24.0635L9.15098 24.0187L9.11475 22.8058L7.92098 22.5879L7.65165 24.0635ZM14.8027 24.2254L14.6068 22.7383L13.4175 22.8949L13.3088 24.0895L14.8027 24.2254ZM19.5251 13.5265L18.0257 13.5679L18.0439 14.2268L18.5415 14.659L19.5251 13.5265ZM9.19621 24.2867L9.35752 22.7954L7.12636 22.5541L7.75656 24.708L9.19621 24.2867ZM13.2381 24.3761L14.6435 24.9004L15.4509 22.736L13.1453 22.879L13.2381 24.3761ZM4.58457 14.356L4.58455 14.3342L1.58456 14.3361L1.58457 14.3579L4.58457 14.356ZM1.9873 19.1593C1.9873 18.864 2.11371 18.3335 2.49927 17.6154C2.87178 16.9217 3.43396 16.1513 4.1614 15.4012L2.00774 13.3127C1.1133 14.2351 0.376842 15.2266 -0.143809 16.1962C-0.651409 17.1416 -1.0127 18.176 -1.0127 19.1593H1.9873ZM7.92098 22.5879C5.95869 22.2297 4.37962 21.6192 3.3336 20.9163C2.256 20.1921 1.9873 19.5545 1.9873 19.1593H-1.0127C-1.0127 20.9958 0.204043 22.4276 1.66023 23.4062C3.14802 24.4061 5.15112 25.1319 7.38231 25.5391L7.92098 22.5879ZM6.15232 24.1083C6.23196 26.7748 8.68732 28.5534 11.232 28.5534V25.5534C9.88311 25.5534 9.17041 24.6692 9.15098 24.0187L6.15232 24.1083ZM11.232 28.5534C13.7016 28.5534 16.0664 26.8913 16.2965 24.3613L13.3088 24.0895C13.2511 24.7243 12.5285 25.5534 11.232 25.5534V28.5534ZM21.5001 19.1593C21.5001 19.5872 21.1776 20.3012 19.8955 21.0814C18.6644 21.8305 16.8304 22.4454 14.6068 22.7383L14.9985 25.7126C17.5052 25.3824 19.7699 24.6696 21.455 23.6442C23.0891 22.6498 24.5001 21.1423 24.5001 19.1593H21.5001ZM18.5415 14.659C19.5052 15.496 20.27 16.4133 20.7839 17.2588C21.3185 18.1383 21.5001 18.8035 21.5001 19.1593H24.5001C24.5001 18.02 24.0149 16.7987 23.3474 15.7005C22.6592 14.5682 21.6864 13.4168 20.5087 12.394L18.5415 14.659ZM11.3104 2.45898C13.546 2.45898 15.1121 3.61408 16.2199 5.61375C17.3642 7.67931 17.9423 10.5534 18.0257 13.5679L21.0245 13.485C20.9342 10.2172 20.3108 6.8076 18.8441 4.15998C17.3409 1.44648 14.8864 -0.541016 11.3104 -0.541016V2.45898ZM4.58456 14.3351C4.58456 11.1102 4.91421 8.04643 5.95674 5.83406C6.46601 4.75332 7.12092 3.92938 7.94461 3.37085C8.75947 2.81831 9.83685 2.45898 11.3104 2.45898V-0.541016C9.32043 -0.541016 7.63782 -0.0457867 6.26093 0.887866C4.89286 1.81553 3.92425 3.10943 3.24295 4.55526C1.90431 7.39603 1.58456 11.0204 1.58456 14.3351H4.58456ZM11.7437 22.9221C10.9207 22.9221 10.1218 22.8781 9.35752 22.7954L9.03489 25.778C9.90776 25.8724 10.8144 25.9221 11.7437 25.9221V22.9221ZM13.1453 22.879C12.6874 22.9074 12.2195 22.9221 11.7437 22.9221V25.9221C12.2812 25.9221 12.811 25.9055 13.331 25.8732L13.1453 22.879ZM11.232 27.0534C12.9196 27.0534 14.1909 26.1137 14.6435 24.9004L11.8327 23.8518C11.8542 23.7942 11.7745 24.0534 11.232 24.0534V27.0534ZM7.75656 24.708C8.13848 26.0133 9.46044 27.0534 11.232 27.0534V24.0534C10.6583 24.0534 10.6071 23.7674 10.6358 23.8655L7.75656 24.708Z" fill="white" mask="url(#path-1-inside-1)"/>
</svg>
