<svg width="58" height="16" viewBox="0 0 58 16" fill="none" xmlns="http://www.w3.org/2000/svg">
<path d="M21.6149 3.27148H18.416C18.1971 3.27148 18.011 3.43633 17.9768 3.66033L16.683 12.1631C16.6573 12.3309 16.7827 12.4822 16.9469 12.4822H18.474C18.6929 12.4822 18.8791 12.3173 18.9132 12.0928L19.2622 9.79948C19.2959 9.575 19.4825 9.41015 19.7009 9.41015H20.7136C22.8208 9.41015 24.0369 8.35318 24.3545 6.25864C24.4976 5.34227 24.3606 4.62227 23.9466 4.11803C23.492 3.56433 22.6856 3.27148 21.6149 3.27148ZM21.984 6.37694C21.809 7.56676 20.932 7.56676 20.084 7.56676H19.6013L19.9399 5.3447C19.96 5.21039 20.0723 5.11148 20.2033 5.11148H20.4245C21.0022 5.11148 21.5471 5.11148 21.8287 5.45282C21.9966 5.65645 22.048 5.959 21.984 6.37694Z" fill="#253B80"/>
<path d="M31.1769 6.33879H29.6451C29.5146 6.33879 29.4019 6.4377 29.3818 6.572L29.3139 7.01612L29.2068 6.85515C28.8752 6.35624 28.1357 6.18945 27.3976 6.18945C25.7048 6.18945 24.259 7.51842 23.9775 9.38267C23.8311 10.3126 24.0392 11.2018 24.5481 11.8219C25.0149 12.3921 25.6829 12.6297 26.4775 12.6297C27.8415 12.6297 28.5978 11.7206 28.5978 11.7206L28.5295 12.1618C28.5038 12.3305 28.6292 12.4818 28.7924 12.4818H30.1722C30.3916 12.4818 30.5768 12.317 30.6114 12.0925L31.4394 6.65782C31.4655 6.49054 31.3407 6.33879 31.1769 6.33879ZM29.0417 9.42921C28.8939 10.3364 28.1993 10.9453 27.3134 10.9453C26.8686 10.9453 26.5131 10.7975 26.2848 10.5172C26.0584 10.2389 25.9724 9.84279 26.0444 9.40157C26.1824 8.50218 26.8887 7.87333 27.761 7.87333C28.196 7.87333 28.5496 8.02315 28.7826 8.30582C29.016 8.59139 29.1086 8.98994 29.0417 9.42921Z" fill="#253B80"/>
<path d="M39.3353 6.33984H37.796C37.6491 6.33984 37.5111 6.41548 37.4279 6.54203L35.3048 9.78372L34.4049 6.66857C34.3483 6.47366 34.1747 6.33984 33.9783 6.33984H32.4656C32.2818 6.33984 32.1541 6.52603 32.2126 6.70542L33.9081 11.8632L32.3141 14.1958C32.1887 14.3796 32.315 14.6322 32.5316 14.6322H34.069C34.215 14.6322 34.3515 14.5585 34.4343 14.4344L39.5542 6.77378C39.6768 6.59051 39.551 6.33984 39.3353 6.33984Z" fill="#253B80"/>
<path d="M44.4313 3.27148H41.232C41.0135 3.27148 40.8274 3.43633 40.7932 3.66033L39.4995 12.1631C39.4737 12.3309 39.5991 12.4822 39.7623 12.4822H41.4041C41.5566 12.4822 41.6871 12.3668 41.7109 12.2097L42.0781 9.79948C42.1118 9.575 42.2984 9.41015 42.5169 9.41015H43.5291C45.6367 9.41015 46.8524 8.35318 47.1704 6.25864C47.314 5.34227 47.176 4.62227 46.7621 4.11803C46.3079 3.56433 45.502 3.27148 44.4313 3.27148ZM44.8004 6.37694C44.6259 7.56676 43.7489 7.56676 42.9004 7.56676H42.4182L42.7573 5.3447C42.7774 5.21039 42.8887 5.11148 43.0201 5.11148H43.2414C43.8186 5.11148 44.364 5.11148 44.6455 5.45282C44.8135 5.65645 44.8645 5.959 44.8004 6.37694Z" fill="#179BD7"/>
<path d="M53.9933 6.33879H52.4624C52.331 6.33879 52.2192 6.4377 52.1995 6.572L52.1317 7.01612L52.0241 6.85515C51.6925 6.35624 50.9535 6.18945 50.2154 6.18945C48.5226 6.18945 47.0773 7.51842 46.7957 9.38267C46.6498 10.3126 46.857 11.2018 47.3659 11.8219C47.8336 12.3921 48.5006 12.6297 49.2953 12.6297C50.6592 12.6297 51.4156 11.7206 51.4156 11.7206L51.3473 12.1618C51.3216 12.3305 51.4469 12.4818 51.6111 12.4818H52.9905C53.2089 12.4818 53.3951 12.317 53.4292 12.0925L54.2576 6.65782C54.2828 6.49054 54.1575 6.33879 53.9933 6.33879ZM51.8581 9.42921C51.7112 10.3364 51.0157 10.9453 50.1298 10.9453C49.6859 10.9453 49.3295 10.7975 49.1012 10.5172C48.8748 10.2389 48.7897 9.84279 48.8608 9.40157C48.9997 8.50218 49.7051 7.87333 50.5774 7.87333C51.0124 7.87333 51.366 8.02315 51.5989 8.30582C51.8333 8.59139 51.9259 8.98994 51.8581 9.42921Z" fill="#179BD7"/>
<path d="M55.7997 3.50518L54.4868 12.1636C54.461 12.3314 54.5864 12.4826 54.7496 12.4826H56.0696C56.289 12.4826 56.4751 12.3178 56.5088 12.0933L57.8035 3.591C57.8292 3.42324 57.7039 3.27148 57.5406 3.27148H56.0626C55.9321 3.27197 55.8198 3.37088 55.7997 3.50518Z" fill="#179BD7"/>
<path d="M3.39843 14.1349L3.64306 12.5242L3.09814 12.5111H0.496094L2.30438 0.626033C2.31 0.590154 2.32824 0.5567 2.3549 0.532942C2.38156 0.509185 2.41571 0.496094 2.45126 0.496094H6.83867C8.29522 0.496094 9.3004 0.810276 9.82521 1.4304C10.0712 1.72131 10.2279 2.02531 10.3037 2.35985C10.3832 2.71088 10.3846 3.13028 10.307 3.64179L10.3014 3.67912V4.00688L10.5474 4.15137C10.7546 4.26531 10.9193 4.39573 11.0455 4.54506C11.256 4.79379 11.3921 5.10991 11.4497 5.4847C11.5091 5.87015 11.4894 6.32882 11.3921 6.84809C11.2799 7.44543 11.0984 7.96567 10.8533 8.39137C10.6279 8.78361 10.3407 9.10894 9.99967 9.36106C9.67412 9.60058 9.2873 9.7824 8.84996 9.89876C8.42619 10.0132 7.94301 10.0709 7.41306 10.0709H7.07161C6.82745 10.0709 6.5903 10.162 6.40414 10.3254C6.21751 10.4922 6.09403 10.7201 6.05614 10.9693L6.03042 11.1143L5.59822 13.9531L5.57858 14.0573C5.57343 14.0903 5.56455 14.1068 5.55145 14.1179C5.53975 14.1281 5.52292 14.1349 5.50655 14.1349H3.39843Z" fill="#253B80"/>
<path d="M10.7805 3.7168C10.7674 3.80358 10.7524 3.89231 10.7356 3.98346C10.157 7.06274 8.17752 8.12649 5.64938 8.12649H4.36215C4.05297 8.12649 3.79244 8.35922 3.74426 8.67534L3.08521 13.0079L2.89858 14.2361C2.86725 14.4436 3.0216 14.6307 3.22367 14.6307H5.50671C5.77707 14.6307 6.00673 14.4271 6.04929 14.1507L6.07175 14.0305L6.5016 11.2029L6.5292 11.0477C6.57129 10.7704 6.80142 10.5667 7.07178 10.5667H7.41323C9.62518 10.5667 11.3568 9.63583 11.8629 6.94201C12.0743 5.81668 11.9648 4.87704 11.4054 4.21619C11.2361 4.01692 11.0261 3.85158 10.7805 3.7168Z" fill="#179BD7"/>
<path d="M10.1751 3.46723C10.0867 3.44056 9.99551 3.41632 9.90196 3.3945C9.80795 3.37317 9.71159 3.35426 9.61243 3.33777C9.26537 3.27959 8.88509 3.25195 8.47769 3.25195H5.03885C4.95419 3.25195 4.87374 3.27183 4.80171 3.30771C4.64314 3.38674 4.52527 3.54238 4.49674 3.73292L3.76519 8.53583L3.74414 8.67595C3.79232 8.35983 4.05285 8.1271 4.36203 8.1271H5.64925C8.1774 8.1271 10.1569 7.06286 10.7355 3.98407C10.7528 3.89292 10.7673 3.8042 10.7804 3.71741C10.634 3.63692 10.4754 3.56807 10.3047 3.50941C10.2626 3.49486 10.2191 3.4808 10.1751 3.46723Z" fill="#222D65"/>
<path d="M4.49687 3.73285C4.5254 3.5423 4.64327 3.38667 4.80183 3.30812C4.87433 3.27224 4.95432 3.25236 5.03898 3.25236H8.47782C8.88522 3.25236 9.26549 3.28 9.61256 3.33818C9.71172 3.35467 9.80808 3.37358 9.90209 3.39491C9.99564 3.41673 10.0868 3.44097 10.1753 3.46764C10.2192 3.48121 10.2627 3.49527 10.3053 3.50933C10.476 3.568 10.6346 3.63733 10.781 3.71733C10.9531 2.57939 10.7796 1.80461 10.186 1.10303C9.53164 0.330667 8.35059 0 6.83932 0H2.4519C2.14319 0 1.87985 0.232727 1.83214 0.549333L0.00467219 12.5566C-0.0313439 12.7942 0.145463 13.0085 0.376527 13.0085H3.08522L3.76532 8.53576L4.49687 3.73285Z" fill="#253B80"/>
</svg>
