<svg width="21" height="21" viewBox="0 0 21 21" fill="none" xmlns="http://www.w3.org/2000/svg">
<circle cx="10.5" cy="10.5" r="10.5" fill="#9CA0A3"/>
<path d="M9.42483 13.928C9.42483 14.5113 9.8977 14.9841 10.481 14.9841C11.0643 14.9841 11.5372 14.5113 11.5372 13.928V13.2146C11.5372 12.2373 12.3294 11.445 13.3067 11.445H14.0665C14.6344 11.445 15.0948 10.9846 15.0948 10.4166C15.0948 9.84869 14.6344 9.38826 14.0665 9.38826H13.2975C12.3253 9.38826 11.5372 8.60015 11.5372 7.62797V6.92385C11.5372 6.34054 11.0643 5.86768 10.481 5.86768C9.8977 5.86768 9.42483 6.34054 9.42483 6.92385V7.62797C9.42483 8.60015 8.63672 9.38826 7.66454 9.38826H6.89557C6.32761 9.38826 5.86719 9.84869 5.86719 10.4166C5.86719 10.9846 6.32761 11.445 6.89557 11.445H7.65528C8.63258 11.445 9.42483 12.2373 9.42483 13.2146V13.928Z" fill="#F5F6F7"/>
</svg>
