<svg width="14" height="14" viewBox="0 0 14 14" fill="none" xmlns="http://www.w3.org/2000/svg">
<path d="M9.28998 7.77274C9.26918 7.75491 9.25134 7.74005 9.23053 7.72222C10.482 5.78145 10.2561 3.16601 8.55873 1.46895C6.59982 -0.489651 3.42513 -0.489651 1.46919 1.46895C-0.489729 3.42756 -0.489729 6.60174 1.46919 8.56034C3.16652 10.2574 5.78237 10.4773 7.72345 9.22906C7.74128 9.24987 7.75615 9.2677 7.77398 9.28553L12.2506 13.7615C12.5628 14.0795 13.0859 14.0795 13.407 13.7615L13.7637 13.4019C14.0788 13.0898 14.0788 12.5667 13.7637 12.2457L9.28998 7.77274ZM7.66102 7.6598C6.19852 9.12207 3.82642 9.12207 2.3669 7.6598C0.904401 6.19754 0.904401 3.82879 2.3669 2.36652C3.8294 0.907229 6.2015 0.907229 7.66102 2.36652C9.12352 3.82879 9.12352 6.19754 7.66102 7.6598Z" fill="#323131"/>
</svg>
