<svg width="19" height="19" viewBox="0 0 19 19" fill="none" xmlns="http://www.w3.org/2000/svg">
<path d="M12.6078 10.5487C12.5796 10.5245 12.5554 10.5044 12.5272 10.4802C14.2255 7.84625 13.9189 4.29673 11.6154 1.99358C8.9569 -0.664526 4.64839 -0.664526 1.9939 1.99358C-0.664632 4.65168 -0.664632 8.95951 1.9939 11.6176C4.29741 13.9208 7.8475 14.2192 10.4818 12.5252C10.506 12.5534 10.5262 12.5776 10.5504 12.6018L16.6259 18.6763C17.0495 19.1079 17.7595 19.1079 18.1952 18.6763L18.6793 18.1882C19.1069 17.7647 19.1069 17.0548 18.6793 16.6192L12.6078 10.5487ZM10.3971 10.3954C8.41228 12.3799 5.193 12.3799 3.21222 10.3954C1.2274 8.41094 1.2274 5.19621 3.21222 3.21171C5.19704 1.23124 8.41632 1.23124 10.3971 3.21171C12.3819 5.19621 12.3819 8.41094 10.3971 10.3954Z" fill="#F5F6F7"/>
</svg>
