<svg width="25" height="27" viewBox="0 0 25 27" fill="none" xmlns="http://www.w3.org/2000/svg">
<path d="M10.2862 0C4.63442 0 0 4.81644 0 10.6901C0 16.5639 4.63442 21.3803 10.2862 21.3803C12.2077 21.3803 14.0163 20.8321 15.5611 19.8531L22.4939 26.6275C23.0214 27.1365 23.888 27.1365 24.3778 26.5492L24.6416 26.2359C25.1314 25.6877 25.1314 24.787 24.5662 24.278L17.9348 17.8169C19.555 15.9373 20.5723 13.4312 20.5723 10.6901C20.5723 4.81644 15.9379 0 10.2862 0ZM10.2862 3.09349C14.3177 3.09349 17.5957 6.46108 17.5957 10.6901C17.5957 14.9192 14.3554 18.2868 10.2862 18.2868C6.21691 18.2868 2.97658 14.9192 2.97658 10.6901C2.97658 6.50024 6.25458 3.09349 10.2862 3.09349Z" fill="#F4F5F6"/>
</svg>
