<svg width="27" height="26" viewBox="0 0 27 26" fill="none" xmlns="http://www.w3.org/2000/svg">
<path d="M17.9866 14.4351C17.9469 14.402 17.9129 14.3744 17.8732 14.3413C20.2598 10.737 19.829 5.87974 16.592 2.72805C12.8561 -0.909351 6.80163 -0.909351 3.07143 2.72805C-0.664436 6.36546 -0.664436 12.2604 3.07143 15.8978C6.30843 19.0495 11.2971 19.4579 14.999 17.1397C15.033 17.1783 15.0614 17.2114 15.0954 17.2446L23.6329 25.5571C24.2281 26.1476 25.2259 26.1476 25.8381 25.5571L26.5184 24.8892C27.1193 24.3096 27.1193 23.3382 26.5184 22.7421L17.9866 14.4351ZM14.8799 14.2253C12.0908 16.941 7.56695 16.941 4.78347 14.2253C1.99432 11.5097 1.99432 7.1106 4.78347 4.39497C7.57261 1.68485 12.0965 1.68485 14.8799 4.39497C17.6691 7.1106 17.6691 11.5097 14.8799 14.2253Z" fill="#323131"/>
</svg>
