<svg width="480" height="263" viewBox="0 0 480 263" fill="none" xmlns="http://www.w3.org/2000/svg">
<path d="M474.973 200.393C468.356 191.519 446.71 169.085 446.71 169.085C406.281 124.718 383.098 114.61 372.613 112.611C371.418 105.106 367.4 88.5249 354.807 78.6396C354.807 78.6396 311.66 43.4831 293.942 42.7391C293.942 42.7391 279.628 24.9278 246.887 23.5539C246.887 23.5539 228.332 4.48762 190.531 8.2721C190.531 8.2721 149.79 -7.42134 129.831 6.79402C129.831 6.79402 104.401 -2.3423 81.1584 13.3462C81.1584 13.3462 49.7567 18.4798 34.1575 44.1676C34.1575 44.1676 -10.1849 75.6388 3.23187 127.287C3.23187 127.287 10.776 165.246 32.5207 146.815C32.5207 146.815 34.7874 144.632 38.6959 142.009C38.4528 152.623 39.0232 165.405 41.5826 179.05C41.7413 180.042 45.8779 203.384 68.4212 209.018L69.0659 209.127C69.6066 209.177 123.8 214.226 168.038 223.358C168.608 223.486 225.182 236.978 245.434 246.054C246.976 246.709 283.502 262.115 310.797 262.115C322.16 262.115 330.592 259.392 335.854 254.01C339.743 251.282 356.523 235.971 364.642 171.654C404.094 223.576 465.37 237.087 465.37 237.087C476.059 238.61 468.133 222.683 468.133 222.683C465.782 214.519 433.413 178.747 433.413 178.747C445.495 185.706 473.167 218.065 473.167 218.065C486.971 221.87 474.973 200.393 474.973 200.393ZM266.4 71.155C270.521 49.8171 287.569 53.7652 287.569 53.7652C270.005 62.1625 280.789 78.5751 280.789 78.5751C255.646 82.0273 245.954 99.7345 244.59 108.99L242.978 109.01C238.753 84.7354 266.4 71.155 266.4 71.155ZM209.424 59.494C214.032 26.887 238.584 30.1308 238.584 30.1308C216.085 41.0131 225.604 64.9401 225.604 64.9401C189.46 75.1627 186.276 103.906 187.049 113.702H186.925C177.72 69.6273 209.424 59.494 209.424 59.494ZM157.344 42.9078C157.066 11.1687 187.104 12.9742 187.104 12.9742C160.494 19.3825 170.424 47.5851 170.424 47.5851C130.069 60.9423 139.161 104.521 139.161 104.521C115.224 59.9553 157.344 42.9078 157.344 42.9078ZM104.619 43.374C103.612 16.4462 125.798 13.0783 125.798 13.0783C108.012 26.8473 119.584 43.2401 119.584 43.2401C83.688 72.7819 87.8792 102.12 91.7679 110.726L91.1132 110.736C65.9263 76.0406 104.619 43.374 104.619 43.374ZM60.2272 50.6454C53.7693 38.0023 72.6272 24.283 72.6272 24.283C61.0109 44.7628 74.3235 50.6801 74.3235 50.6801C43.7749 73.5953 49.0871 110.944 49.0871 110.944C48.7944 110.379 48.5266 109.813 48.2587 109.253C32.1338 74.9692 60.2272 50.6454 60.2272 50.6454ZM330.899 246.982L329.927 247.766C326.381 251.59 319.948 253.519 310.797 253.519C285.272 253.519 249.164 238.302 248.876 238.173C227.974 228.799 172.388 215.546 169.908 214.96C126.929 206.097 74.9386 201.047 70.2018 200.591C53.4717 196.211 50.1931 178.38 50.0493 177.552C47.2072 162.379 46.9592 148.159 47.5247 137.153C51.3488 135.471 55.7285 134.053 60.5099 133.458C60.5099 133.458 85.6472 136.672 95.8103 125.269C95.8103 125.269 115.283 135.228 140.559 122.312C140.559 122.312 165.984 131.449 184.654 122.555C184.654 122.555 207.718 136.429 238.728 128.056C238.728 128.056 283.65 159.527 344.351 148.099C344.351 148.099 346.251 147.326 348.84 146.071C351.409 151.323 354.226 156.254 357.207 160.946C349.613 233.813 330.994 246.923 330.899 246.982Z" fill="#25333D"/>
</svg>
