<svg width="39" height="25" viewBox="0 0 39 25" fill="none" xmlns="http://www.w3.org/2000/svg">
<path d="M38.4194 14.6114C38.419 14.6039 38.4189 14.5963 38.4182 14.5888C38.417 14.5763 38.4149 14.5638 38.4129 14.5513C38.4119 14.545 38.4113 14.5388 38.4101 14.5326C38.4076 14.5201 38.4044 14.5078 38.4012 14.4955C38.3995 14.4892 38.3982 14.4828 38.3963 14.4766C38.393 14.4655 38.3889 14.4546 38.3849 14.4436C38.3823 14.4362 38.3799 14.4287 38.3769 14.4214C38.3732 14.4123 38.3687 14.4035 38.3645 14.3945C38.3603 14.3855 38.3563 14.3764 38.3516 14.3676C38.3478 14.3605 38.3435 14.3537 38.3394 14.3467C38.3333 14.3364 38.3273 14.326 38.3206 14.316C38.3167 14.3102 38.3123 14.3046 38.3081 14.2989C38.3005 14.2883 38.2928 14.2778 38.2844 14.2677C38.2833 14.2663 38.2823 14.2648 38.2812 14.2635C38.277 14.2585 38.2724 14.2542 38.2681 14.2495C38.2604 14.2409 38.2527 14.2322 38.2443 14.224C38.2364 14.2161 38.2281 14.2089 38.2198 14.2016C38.2147 14.197 38.21 14.1922 38.2047 14.1878L27.3394 5.22123C27.1598 5.07314 26.91 5.04124 26.6984 5.13914C26.4868 5.23708 26.3516 5.44731 26.3516 5.6784V9.81528H25.8704C25.5379 9.81528 25.2683 10.0818 25.2683 10.4107C25.2683 10.7395 25.5379 11.0061 25.8704 11.0061H26.9536C27.2861 11.0061 27.5557 10.7395 27.5557 10.4107V6.95074L36.8792 14.645L27.5557 22.339V18.879C27.5557 18.5502 27.2861 18.2836 26.9536 18.2836H17.6201V17.1034C17.6201 16.7745 17.3506 16.5079 17.0181 16.5079C16.6856 16.5079 16.416 16.7745 16.416 17.1034V18.879C16.416 19.2079 16.6856 19.4744 17.0181 19.4744H26.3516V23.6113C26.3516 23.8424 26.4868 24.0526 26.6984 24.1506C26.7799 24.1883 26.867 24.2067 26.9535 24.2067C27.0919 24.2067 27.229 24.1595 27.3394 24.0685L38.2047 15.1021C38.2102 15.0976 38.215 15.0926 38.2202 15.0879C38.2272 15.0817 38.2343 15.0755 38.241 15.0689C38.2515 15.0587 38.2613 15.0481 38.2709 15.0373C38.2742 15.0335 38.2779 15.0303 38.2812 15.0264C38.2823 15.025 38.2832 15.0236 38.2844 15.0222C38.2929 15.012 38.3006 15.0014 38.3083 14.9908C38.3124 14.9852 38.3167 14.9797 38.3205 14.974C38.3275 14.9636 38.3337 14.953 38.3399 14.9423C38.3437 14.9357 38.3478 14.9292 38.3514 14.9225C38.3565 14.9131 38.3608 14.9033 38.3653 14.8937C38.3692 14.8854 38.3733 14.8772 38.3767 14.8689C38.3801 14.8605 38.3829 14.852 38.3859 14.8435C38.3894 14.8337 38.3932 14.8238 38.3962 14.8138C38.3984 14.8062 38.4001 14.7984 38.4021 14.7907C38.4048 14.7798 38.4078 14.7689 38.4099 14.7579C38.4115 14.75 38.4124 14.7419 38.4136 14.7339C38.4152 14.7232 38.4171 14.7125 38.4181 14.7017C38.419 14.6923 38.4192 14.6828 38.4196 14.6733C38.4201 14.664 38.4208 14.6546 38.4208 14.6453C38.4208 14.634 38.42 14.6227 38.4194 14.6114Z" fill="#F5F6F7" fill-opacity="0.6"/>
<path d="M22.2608 13.7961V5.32771C22.2608 4.99886 21.9912 4.7323 21.6587 4.7323H12.9377V0.595424C12.9377 0.364331 12.8024 0.154099 12.5908 0.0561598C12.3792 -0.0418519 12.1293 -0.00976282 11.9498 0.138254L1.08445 9.10478C0.94739 9.21791 0.868164 9.38537 0.868164 9.56195C0.868164 9.73853 0.94739 9.90599 1.08453 10.0191L11.9499 18.9855C12.0603 19.0766 12.1973 19.1237 12.3357 19.1237C12.4222 19.1237 12.5093 19.1053 12.5908 19.0676C12.8024 18.9697 12.9377 18.7594 12.9377 18.5283V14.3915H21.6587C21.9912 14.3915 22.2608 14.125 22.2608 13.7961ZM21.0567 13.2007H12.3356C12.0031 13.2007 11.7335 13.4673 11.7335 13.7961V17.256L2.4099 9.56195L11.7335 1.86776V5.32771C11.7335 5.65656 12.0031 5.92312 12.3356 5.92312H21.0567V13.2007Z" fill="#F5F6F7" fill-opacity="0.6"/>
</svg>
