<svg width="14" height="16" viewBox="0 0 14 16" fill="none" xmlns="http://www.w3.org/2000/svg">
<path d="M12.4791 2.68672V13.6742C12.4791 14.9574 11.5042 16 10.2563 16H3.70474C2.49582 16 1.48189 14.9574 1.48189 13.6742V2.68672H0.389972C0.155989 2.68672 0 2.52632 0 2.28571C0 2.08521 0.155989 1.88471 0.389972 1.88471H3.66574V0.401003C3.66574 0.160401 3.82173 0 4.05571 0H9.94429C10.1783 0 10.3343 0.200501 10.3343 0.401003V1.88471H13.61C13.805 1.88471 14 2.04511 14 2.28571C14 2.48622 13.805 2.68672 13.61 2.68672H12.4791ZM2.26184 2.68672V13.6742C2.26184 14.5163 2.92479 15.198 3.70474 15.198H10.2563C11.0752 15.198 11.6992 14.5163 11.6992 13.6742V2.68672H2.26184ZM9.55432 1.88471V0.802005H4.44568V1.88471H9.55432Z" fill="#F5F6F7"/>
<path d="M4.32861 5.4137C4.32861 5.2132 4.4846 5.0127 4.71859 5.0127C4.91357 5.0127 5.10856 5.2132 5.10856 5.4137V12.4713C5.10856 12.6718 4.91357 12.8723 4.71859 12.8723C4.4846 12.8723 4.32861 12.6718 4.32861 12.4713V5.4137Z" fill="#F5F6F7"/>
<path d="M8.89136 5.4137C8.89136 5.2132 9.04735 5.0127 9.28133 5.0127C9.47632 5.0127 9.6713 5.2132 9.6713 5.4137V12.4713C9.6713 12.6718 9.47632 12.8723 9.28133 12.8723C9.04735 12.8723 8.89136 12.6718 8.89136 12.4713V5.4137Z" fill="#F5F6F7"/>
<path d="M6.59058 5.4137C6.59058 5.2132 6.78556 5.0127 6.98055 5.0127C7.21453 5.0127 7.37052 5.2132 7.37052 5.4137V12.4713C7.37052 12.6718 7.21453 12.8723 6.98055 12.8723C6.78556 12.8723 6.59058 12.6718 6.59058 12.4713V5.4137Z" fill="#F5F6F7"/>
</svg>
