<svg width="16" height="21" viewBox="0 0 16 21" fill="none" xmlns="http://www.w3.org/2000/svg">
<path d="M2.375 3.25H4.3225C4.61406 1.76976 5.86681 0.650002 7.375 0.650002H8.625C10.134 0.650002 11.3964 1.76846 11.6868 3.25H13.625C14.6589 3.25 15.5 4.12471 15.5 5.2V6.5C15.5 6.85926 15.2201 7.15 14.875 7.15H14.2159L13.6128 18.3016C13.5563 19.3382 12.6655 20.15 11.5843 20.15H4.41606C3.3345 20.15 2.44337 19.3382 2.38787 18.3015L1.78444 7.15H1.125C0.779563 7.15 0.5 6.85926 0.5 6.5V5.2C0.5 4.12471 1.34106 3.25 2.375 3.25ZM8.625 1.95H7.375C6.56019 1.95 5.865 2.49334 5.60681 3.25H10.3929C10.135 2.49334 9.43981 1.95 8.625 1.95ZM3.63538 18.2285C3.65431 18.5713 4.004 18.85 4.416 18.85H11.5843C11.996 18.85 12.3461 18.5713 12.3646 18.228L12.964 7.15H3.036L3.63538 18.2285ZM1.75 5.85H2.375H13.625H14.25V5.2C14.25 4.84133 13.9696 4.55 13.625 4.55H11.125H4.875H4.86281H2.375C2.03012 4.55 1.75 4.84133 1.75 5.2V5.85Z" fill="#F5F6F7"/>
<path d="M10.5 17.55C10.1549 17.55 9.875 17.2593 9.875 16.9V9.1C9.875 8.74075 10.1549 8.45 10.5 8.45C10.8451 8.45 11.125 8.74075 11.125 9.1V16.9C11.125 17.2593 10.8451 17.55 10.5 17.55Z" fill="#F5F6F7"/>
<path d="M8 17.55C7.65487 17.55 7.375 17.2593 7.375 16.9V9.1C7.375 8.74075 7.65487 8.45 8 8.45C8.34512 8.45 8.625 8.74075 8.625 9.1V16.9C8.625 17.2593 8.34512 17.55 8 17.55Z" fill="#F5F6F7"/>
<path d="M5.5 17.55C5.15456 17.55 4.875 17.2593 4.875 16.9V9.1C4.875 8.74075 5.15456 8.45 5.5 8.45C5.84544 8.45 6.125 8.74075 6.125 9.1V16.9C6.125 17.2593 5.84544 17.55 5.5 17.55Z" fill="#F5F6F7"/>
</svg>
