<svg width="91" height="18" viewBox="0 0 91 18" fill="none" xmlns="http://www.w3.org/2000/svg">
<rect width="91" height="18" rx="3" fill="url(#paint0_linear)"/>
<mask id="path-2-outside-1" maskUnits="userSpaceOnUse" x="3.59766" y="2" width="18" height="13" fill="black">
<rect fill="white" x="3.59766" y="2" width="18" height="13"/>
<path d="M20.4308 5.30669C20.3516 5.30669 20.2756 5.33017 20.2195 5.37197C20.1635 5.41378 20.132 5.47047 20.132 5.52959V11.8757C20.1316 11.9246 20.1098 11.972 20.0699 12.0108C20.03 12.0496 19.9742 12.0777 19.911 12.0906L12.9623 13.4862V12.8307L18.5861 11.6318C18.773 11.5914 18.9373 11.5069 19.0544 11.391C19.1716 11.2751 19.2352 11.134 19.2358 10.9888V4.44088L19.7554 4.33612C19.7997 4.32711 19.8461 4.32584 19.8912 4.33241C19.9362 4.33899 19.9786 4.35323 20.015 4.37403C20.0515 4.39483 20.081 4.42162 20.1013 4.45232C20.1216 4.48302 20.1321 4.51681 20.132 4.55104C20.132 4.61016 20.1635 4.66686 20.2195 4.70866C20.2756 4.75046 20.3516 4.77395 20.4308 4.77395C20.51 4.77395 20.586 4.75046 20.642 4.70866C20.698 4.66686 20.7295 4.61016 20.7295 4.55104C20.7296 4.44841 20.6979 4.34714 20.637 4.25511C20.5761 4.16307 20.4877 4.08274 20.3785 4.02033C20.2693 3.95792 20.1423 3.91512 20.0073 3.89524C19.8724 3.87537 19.7331 3.87895 19.6003 3.90571L19.2358 3.97914V3.66865C19.2358 3.56515 19.2036 3.46307 19.1417 3.37044C19.0799 3.2778 18.99 3.19715 18.8793 3.13483C18.7685 3.0725 18.6399 3.03021 18.5035 3.01128C18.3672 2.99235 18.2268 2.9973 18.0934 3.02573L12.6636 4.18325L7.23378 3.02573C7.10041 2.9973 6.96001 2.99235 6.82364 3.01128C6.68727 3.03021 6.55865 3.0725 6.4479 3.13483C6.33716 3.19715 6.24731 3.2778 6.18544 3.37044C6.12357 3.46307 6.09136 3.56515 6.09135 3.66865V3.97911L5.72653 3.90556C5.59374 3.87884 5.45449 3.8753 5.31958 3.89521C5.18466 3.91513 5.0577 3.95795 4.94854 4.02037C4.83938 4.08279 4.75094 4.16312 4.6901 4.25515C4.62925 4.34718 4.59762 4.44842 4.59766 4.55104V11.8757C4.59855 12.0225 4.66387 12.1652 4.78363 12.2817C4.90339 12.3983 5.071 12.4824 5.26086 12.5212L12.5859 13.9924C12.6368 14.0025 12.6904 14.0025 12.7413 13.9924L20.0679 12.5208C20.2574 12.4818 20.4247 12.3977 20.5441 12.2812C20.6636 12.1648 20.7287 12.0223 20.7295 11.8757V5.52959C20.7295 5.47047 20.698 5.41378 20.642 5.37197C20.586 5.33017 20.51 5.30669 20.4308 5.30669ZM5.19513 11.8757V4.55104C5.19511 4.51685 5.20565 4.48311 5.22593 4.45244C5.24621 4.42178 5.27569 4.39501 5.31207 4.37422C5.34846 4.35343 5.39077 4.33918 5.43573 4.33256C5.48069 4.32594 5.5271 4.32715 5.57133 4.33607L6.09135 4.44084V9.98767C6.09135 10.0468 6.12282 10.1035 6.17885 10.1453C6.23487 10.1871 6.31086 10.2106 6.39009 10.2106C6.46932 10.2106 6.5453 10.1871 6.60133 10.1453C6.65735 10.1035 6.68882 10.0468 6.68882 9.98767V3.66865C6.68883 3.63416 6.69957 3.60014 6.72019 3.56927C6.74081 3.5384 6.77075 3.51153 6.80765 3.49075C6.84455 3.46998 6.88741 3.45588 6.93285 3.44957C6.9783 3.44325 7.02509 3.44489 7.06954 3.45435L12.5815 4.62939C12.6351 4.64095 12.6921 4.64095 12.7458 4.62939L18.2573 3.45435C18.3018 3.44485 18.3486 3.44318 18.3941 3.44947C18.4396 3.45577 18.4825 3.46986 18.5194 3.49064C18.5564 3.51142 18.5863 3.53831 18.607 3.5692C18.6276 3.60009 18.6384 3.63414 18.6384 3.66865V10.9888C18.6382 11.0372 18.617 11.0843 18.578 11.1229C18.5389 11.1616 18.4842 11.1898 18.4219 11.2032L12.9623 12.367V5.30669C12.9623 5.24757 12.9309 5.19087 12.8748 5.14907C12.8188 5.10727 12.7428 5.08378 12.6636 5.08378C12.5844 5.08378 12.5084 5.10727 12.4523 5.14907C12.3963 5.19087 12.3649 5.24757 12.3649 5.30669V12.367L6.90559 11.2032C6.84324 11.1897 6.78842 11.1616 6.74934 11.1229C6.71026 11.0843 6.68902 11.0372 6.68882 10.9888C6.68882 10.9297 6.65735 10.873 6.60133 10.8312C6.5453 10.7894 6.46932 10.7659 6.39009 10.7659C6.31086 10.7659 6.23487 10.7894 6.17885 10.8312C6.12282 10.873 6.09135 10.9297 6.09135 10.9888C6.09197 11.134 6.15565 11.2751 6.27284 11.3911C6.39002 11.507 6.5544 11.5915 6.74134 11.6318L12.3649 12.8307V13.4862L5.41787 12.091C5.35435 12.0781 5.29821 12.0501 5.25799 12.0113C5.21778 11.9724 5.19571 11.9248 5.19513 11.8757Z"/>
</mask>
<path d="M20.4308 5.30669C20.3516 5.30669 20.2756 5.33017 20.2195 5.37197C20.1635 5.41378 20.132 5.47047 20.132 5.52959V11.8757C20.1316 11.9246 20.1098 11.972 20.0699 12.0108C20.03 12.0496 19.9742 12.0777 19.911 12.0906L12.9623 13.4862V12.8307L18.5861 11.6318C18.773 11.5914 18.9373 11.5069 19.0544 11.391C19.1716 11.2751 19.2352 11.134 19.2358 10.9888V4.44088L19.7554 4.33612C19.7997 4.32711 19.8461 4.32584 19.8912 4.33241C19.9362 4.33899 19.9786 4.35323 20.015 4.37403C20.0515 4.39483 20.081 4.42162 20.1013 4.45232C20.1216 4.48302 20.1321 4.51681 20.132 4.55104C20.132 4.61016 20.1635 4.66686 20.2195 4.70866C20.2756 4.75046 20.3516 4.77395 20.4308 4.77395C20.51 4.77395 20.586 4.75046 20.642 4.70866C20.698 4.66686 20.7295 4.61016 20.7295 4.55104C20.7296 4.44841 20.6979 4.34714 20.637 4.25511C20.5761 4.16307 20.4877 4.08274 20.3785 4.02033C20.2693 3.95792 20.1423 3.91512 20.0073 3.89524C19.8724 3.87537 19.7331 3.87895 19.6003 3.90571L19.2358 3.97914V3.66865C19.2358 3.56515 19.2036 3.46307 19.1417 3.37044C19.0799 3.2778 18.99 3.19715 18.8793 3.13483C18.7685 3.0725 18.6399 3.03021 18.5035 3.01128C18.3672 2.99235 18.2268 2.9973 18.0934 3.02573L12.6636 4.18325L7.23378 3.02573C7.10041 2.9973 6.96001 2.99235 6.82364 3.01128C6.68727 3.03021 6.55865 3.0725 6.4479 3.13483C6.33716 3.19715 6.24731 3.2778 6.18544 3.37044C6.12357 3.46307 6.09136 3.56515 6.09135 3.66865V3.97911L5.72653 3.90556C5.59374 3.87884 5.45449 3.8753 5.31958 3.89521C5.18466 3.91513 5.0577 3.95795 4.94854 4.02037C4.83938 4.08279 4.75094 4.16312 4.6901 4.25515C4.62925 4.34718 4.59762 4.44842 4.59766 4.55104V11.8757C4.59855 12.0225 4.66387 12.1652 4.78363 12.2817C4.90339 12.3983 5.071 12.4824 5.26086 12.5212L12.5859 13.9924C12.6368 14.0025 12.6904 14.0025 12.7413 13.9924L20.0679 12.5208C20.2574 12.4818 20.4247 12.3977 20.5441 12.2812C20.6636 12.1648 20.7287 12.0223 20.7295 11.8757V5.52959C20.7295 5.47047 20.698 5.41378 20.642 5.37197C20.586 5.33017 20.51 5.30669 20.4308 5.30669ZM5.19513 11.8757V4.55104C5.19511 4.51685 5.20565 4.48311 5.22593 4.45244C5.24621 4.42178 5.27569 4.39501 5.31207 4.37422C5.34846 4.35343 5.39077 4.33918 5.43573 4.33256C5.48069 4.32594 5.5271 4.32715 5.57133 4.33607L6.09135 4.44084V9.98767C6.09135 10.0468 6.12282 10.1035 6.17885 10.1453C6.23487 10.1871 6.31086 10.2106 6.39009 10.2106C6.46932 10.2106 6.5453 10.1871 6.60133 10.1453C6.65735 10.1035 6.68882 10.0468 6.68882 9.98767V3.66865C6.68883 3.63416 6.69957 3.60014 6.72019 3.56927C6.74081 3.5384 6.77075 3.51153 6.80765 3.49075C6.84455 3.46998 6.88741 3.45588 6.93285 3.44957C6.9783 3.44325 7.02509 3.44489 7.06954 3.45435L12.5815 4.62939C12.6351 4.64095 12.6921 4.64095 12.7458 4.62939L18.2573 3.45435C18.3018 3.44485 18.3486 3.44318 18.3941 3.44947C18.4396 3.45577 18.4825 3.46986 18.5194 3.49064C18.5564 3.51142 18.5863 3.53831 18.607 3.5692C18.6276 3.60009 18.6384 3.63414 18.6384 3.66865V10.9888C18.6382 11.0372 18.617 11.0843 18.578 11.1229C18.5389 11.1616 18.4842 11.1898 18.4219 11.2032L12.9623 12.367V5.30669C12.9623 5.24757 12.9309 5.19087 12.8748 5.14907C12.8188 5.10727 12.7428 5.08378 12.6636 5.08378C12.5844 5.08378 12.5084 5.10727 12.4523 5.14907C12.3963 5.19087 12.3649 5.24757 12.3649 5.30669V12.367L6.90559 11.2032C6.84324 11.1897 6.78842 11.1616 6.74934 11.1229C6.71026 11.0843 6.68902 11.0372 6.68882 10.9888C6.68882 10.9297 6.65735 10.873 6.60133 10.8312C6.5453 10.7894 6.46932 10.7659 6.39009 10.7659C6.31086 10.7659 6.23487 10.7894 6.17885 10.8312C6.12282 10.873 6.09135 10.9297 6.09135 10.9888C6.09197 11.134 6.15565 11.2751 6.27284 11.3911C6.39002 11.507 6.5544 11.5915 6.74134 11.6318L12.3649 12.8307V13.4862L5.41787 12.091C5.35435 12.0781 5.29821 12.0501 5.25799 12.0113C5.21778 11.9724 5.19571 11.9248 5.19513 11.8757Z" fill="#7E650C"/>
<path d="M20.4308 5.30669C20.3516 5.30669 20.2756 5.33017 20.2195 5.37197C20.1635 5.41378 20.132 5.47047 20.132 5.52959V11.8757C20.1316 11.9246 20.1098 11.972 20.0699 12.0108C20.03 12.0496 19.9742 12.0777 19.911 12.0906L12.9623 13.4862V12.8307L18.5861 11.6318C18.773 11.5914 18.9373 11.5069 19.0544 11.391C19.1716 11.2751 19.2352 11.134 19.2358 10.9888V4.44088L19.7554 4.33612C19.7997 4.32711 19.8461 4.32584 19.8912 4.33241C19.9362 4.33899 19.9786 4.35323 20.015 4.37403C20.0515 4.39483 20.081 4.42162 20.1013 4.45232C20.1216 4.48302 20.1321 4.51681 20.132 4.55104C20.132 4.61016 20.1635 4.66686 20.2195 4.70866C20.2756 4.75046 20.3516 4.77395 20.4308 4.77395C20.51 4.77395 20.586 4.75046 20.642 4.70866C20.698 4.66686 20.7295 4.61016 20.7295 4.55104C20.7296 4.44841 20.6979 4.34714 20.637 4.25511C20.5761 4.16307 20.4877 4.08274 20.3785 4.02033C20.2693 3.95792 20.1423 3.91512 20.0073 3.89524C19.8724 3.87537 19.7331 3.87895 19.6003 3.90571L19.2358 3.97914V3.66865C19.2358 3.56515 19.2036 3.46307 19.1417 3.37044C19.0799 3.2778 18.99 3.19715 18.8793 3.13483C18.7685 3.0725 18.6399 3.03021 18.5035 3.01128C18.3672 2.99235 18.2268 2.9973 18.0934 3.02573L12.6636 4.18325L7.23378 3.02573C7.10041 2.9973 6.96001 2.99235 6.82364 3.01128C6.68727 3.03021 6.55865 3.0725 6.4479 3.13483C6.33716 3.19715 6.24731 3.2778 6.18544 3.37044C6.12357 3.46307 6.09136 3.56515 6.09135 3.66865V3.97911L5.72653 3.90556C5.59374 3.87884 5.45449 3.8753 5.31958 3.89521C5.18466 3.91513 5.0577 3.95795 4.94854 4.02037C4.83938 4.08279 4.75094 4.16312 4.6901 4.25515C4.62925 4.34718 4.59762 4.44842 4.59766 4.55104V11.8757C4.59855 12.0225 4.66387 12.1652 4.78363 12.2817C4.90339 12.3983 5.071 12.4824 5.26086 12.5212L12.5859 13.9924C12.6368 14.0025 12.6904 14.0025 12.7413 13.9924L20.0679 12.5208C20.2574 12.4818 20.4247 12.3977 20.5441 12.2812C20.6636 12.1648 20.7287 12.0223 20.7295 11.8757V5.52959C20.7295 5.47047 20.698 5.41378 20.642 5.37197C20.586 5.33017 20.51 5.30669 20.4308 5.30669ZM5.19513 11.8757V4.55104C5.19511 4.51685 5.20565 4.48311 5.22593 4.45244C5.24621 4.42178 5.27569 4.39501 5.31207 4.37422C5.34846 4.35343 5.39077 4.33918 5.43573 4.33256C5.48069 4.32594 5.5271 4.32715 5.57133 4.33607L6.09135 4.44084V9.98767C6.09135 10.0468 6.12282 10.1035 6.17885 10.1453C6.23487 10.1871 6.31086 10.2106 6.39009 10.2106C6.46932 10.2106 6.5453 10.1871 6.60133 10.1453C6.65735 10.1035 6.68882 10.0468 6.68882 9.98767V3.66865C6.68883 3.63416 6.69957 3.60014 6.72019 3.56927C6.74081 3.5384 6.77075 3.51153 6.80765 3.49075C6.84455 3.46998 6.88741 3.45588 6.93285 3.44957C6.9783 3.44325 7.02509 3.44489 7.06954 3.45435L12.5815 4.62939C12.6351 4.64095 12.6921 4.64095 12.7458 4.62939L18.2573 3.45435C18.3018 3.44485 18.3486 3.44318 18.3941 3.44947C18.4396 3.45577 18.4825 3.46986 18.5194 3.49064C18.5564 3.51142 18.5863 3.53831 18.607 3.5692C18.6276 3.60009 18.6384 3.63414 18.6384 3.66865V10.9888C18.6382 11.0372 18.617 11.0843 18.578 11.1229C18.5389 11.1616 18.4842 11.1898 18.4219 11.2032L12.9623 12.367V5.30669C12.9623 5.24757 12.9309 5.19087 12.8748 5.14907C12.8188 5.10727 12.7428 5.08378 12.6636 5.08378C12.5844 5.08378 12.5084 5.10727 12.4523 5.14907C12.3963 5.19087 12.3649 5.24757 12.3649 5.30669V12.367L6.90559 11.2032C6.84324 11.1897 6.78842 11.1616 6.74934 11.1229C6.71026 11.0843 6.68902 11.0372 6.68882 10.9888C6.68882 10.9297 6.65735 10.873 6.60133 10.8312C6.5453 10.7894 6.46932 10.7659 6.39009 10.7659C6.31086 10.7659 6.23487 10.7894 6.17885 10.8312C6.12282 10.873 6.09135 10.9297 6.09135 10.9888C6.09197 11.134 6.15565 11.2751 6.27284 11.3911C6.39002 11.507 6.5544 11.5915 6.74134 11.6318L12.3649 12.8307V13.4862L5.41787 12.091C5.35435 12.0781 5.29821 12.0501 5.25799 12.0113C5.21778 11.9724 5.19571 11.9248 5.19513 11.8757Z" stroke="#684C21" stroke-width="0.2" mask="url(#path-2-outside-1)"/>
<path d="M8.48153 5.44209L8.48153 5.44209L8.48194 5.44219L11.556 6.20637C11.556 6.20637 11.556 6.20637 11.556 6.20638C11.6324 6.22539 11.7145 6.21734 11.7846 6.18345C11.8549 6.14952 11.9089 6.09157 11.9323 6.02045C11.9558 5.94896 11.9455 5.87242 11.9047 5.80845C11.8641 5.74487 11.7975 5.69973 11.7211 5.68071L11.721 5.68071L8.64696 4.91655L8.64696 4.91655L8.64658 4.91645C8.57045 4.89817 8.48898 4.90665 8.41941 4.94062C8.34975 4.97464 8.29616 5.03233 8.27293 5.10302C8.24957 5.17408 8.25965 5.25014 8.29989 5.31391C8.33989 5.3773 8.40575 5.42257 8.48153 5.44209Z" fill="#7E650C" stroke="#684C21" stroke-width="0.1"/>
<path d="M11.7217 7.90987L11.7217 7.90986L8.64801 7.14581C8.64793 7.14579 8.64786 7.14577 8.64779 7.14575C8.60977 7.13599 8.57002 7.13288 8.53075 7.13656C8.49141 7.14024 8.45307 7.15068 8.41795 7.16747C8.38282 7.18425 8.35141 7.20714 8.32575 7.23511C8.30007 7.26311 8.28065 7.29566 8.26902 7.33105C8.25738 7.36646 8.25387 7.4037 8.25882 7.44051C8.26376 7.4773 8.277 7.51252 8.2974 7.54415C8.31778 7.57576 8.34485 7.60306 8.37671 7.62477C8.4085 7.64644 8.44457 7.6622 8.48276 7.6714C8.48283 7.67141 8.48289 7.67143 8.48296 7.67144L11.5566 8.43553C11.5566 8.43553 11.5567 8.43553 11.5567 8.43553C11.6331 8.45454 11.7151 8.44649 11.7853 8.41261C11.8555 8.37868 11.9096 8.32073 11.933 8.24961C11.9565 8.17811 11.9461 8.10158 11.9053 8.03761C11.8647 7.97403 11.7981 7.92889 11.7217 7.90987Z" fill="#7E650C" stroke="#684C21" stroke-width="0.1"/>
<path d="M11.7217 10.1384L11.7217 10.1384L8.64801 9.37432C8.64793 9.37431 8.64786 9.37429 8.64779 9.37427C8.60977 9.3645 8.57002 9.36139 8.53075 9.36507C8.49141 9.36875 8.45307 9.3792 8.41795 9.39598C8.38282 9.41277 8.35141 9.43566 8.32575 9.46363C8.30007 9.49162 8.28065 9.52418 8.26902 9.55956C8.25738 9.59497 8.25387 9.63222 8.25882 9.66903C8.26376 9.70582 8.277 9.74104 8.2974 9.77267C8.31778 9.80427 8.34485 9.83158 8.37671 9.85329C8.4085 9.87495 8.44457 9.89071 8.48276 9.89991C8.48283 9.89993 8.48289 9.89994 8.48296 9.89996L11.5566 10.664C11.5566 10.664 11.5567 10.664 11.5567 10.664C11.6331 10.6831 11.7151 10.675 11.7853 10.6411C11.8555 10.6072 11.9096 10.5492 11.933 10.4781C11.9565 10.4066 11.9461 10.3301 11.9053 10.2661C11.8647 10.2025 11.7981 10.1574 11.7217 10.1384Z" fill="#7E650C" stroke="#684C21" stroke-width="0.1"/>
<path d="M13.6878 6.2164H13.6878L13.7584 6.15771L13.7704 6.20623L13.7705 6.20622C13.7705 6.20621 13.7705 6.20621 13.7705 6.2062L16.8441 5.44216C16.8826 5.43328 16.919 5.41776 16.9511 5.39625C16.9834 5.37465 17.0109 5.34734 17.0316 5.31564C17.0524 5.28391 17.0659 5.2485 17.071 5.21146C17.0762 5.17441 17.0727 5.13689 17.061 5.10122C17.0493 5.06558 17.0297 5.0328 17.0038 5.00467C16.9779 4.97655 16.9462 4.9536 16.9107 4.93685C16.8752 4.92011 16.8366 4.90981 16.7969 4.90637C16.7574 4.90294 16.7175 4.90637 16.6794 4.91651L13.6058 5.68055C13.6058 5.68055 13.6057 5.68056 13.6057 5.68056C13.5361 5.69779 13.4745 5.73668 13.4332 5.79179C13.3917 5.84716 13.3739 5.91488 13.3847 5.98217C13.3955 6.0493 13.4335 6.10913 13.4895 6.1515C13.5453 6.19378 13.6158 6.2164 13.6878 6.2164Z" fill="#7E650C" stroke="#684C21" stroke-width="0.1"/>
<path d="M13.6878 8.44589H13.6878L13.7584 8.3872L13.7704 8.43572L13.7705 8.43571C13.7705 8.43571 13.7705 8.4357 13.7705 8.4357L16.8441 7.67165C16.8826 7.66277 16.919 7.64725 16.9511 7.62574C16.9834 7.60414 17.0109 7.57684 17.0316 7.54513C17.0524 7.5134 17.0659 7.47799 17.071 7.44096C17.0762 7.40391 17.0727 7.36638 17.061 7.33071C17.0493 7.29507 17.0297 7.2623 17.0038 7.23416C16.9779 7.20604 16.9462 7.18309 16.9107 7.16635C16.8752 7.1496 16.8366 7.1393 16.7969 7.13586C16.7574 7.13243 16.7175 7.13586 16.6794 7.146L13.6058 7.91004C13.6058 7.91005 13.6057 7.91005 13.6057 7.91006C13.5361 7.92728 13.4745 7.96617 13.4332 8.02128C13.3917 8.07665 13.3739 8.14438 13.3847 8.21166C13.3955 8.27879 13.4335 8.33862 13.4895 8.38099C13.5453 8.42327 13.6158 8.44589 13.6878 8.44589Z" fill="#7E650C" stroke="#684C21" stroke-width="0.1"/>
<path d="M13.6878 10.6744H13.6878L13.7584 10.6157L13.7704 10.6642L13.7705 10.6642C13.7705 10.6642 13.7705 10.6642 13.7705 10.6642L16.8441 9.90016C16.8826 9.89129 16.919 9.87577 16.9511 9.85426C16.9834 9.83266 17.0109 9.80535 17.0316 9.77365C17.0524 9.74192 17.0659 9.70651 17.071 9.66947C17.0762 9.63242 17.0727 9.5949 17.061 9.55923C17.0493 9.52359 17.0297 9.49081 17.0038 9.46267C16.9779 9.43456 16.9462 9.41161 16.9107 9.39486C16.8752 9.37812 16.8366 9.36781 16.7969 9.36437C16.7574 9.36095 16.7175 9.36437 16.6794 9.37452L13.6058 10.1386C13.6058 10.1386 13.6057 10.1386 13.6057 10.1386C13.5361 10.1558 13.4745 10.1947 13.4332 10.2498C13.3917 10.3052 13.3739 10.3729 13.3847 10.4402C13.3955 10.5073 13.4335 10.5671 13.4895 10.6095C13.5453 10.6518 13.6158 10.6744 13.6878 10.6744Z" fill="#7E650C" stroke="#684C21" stroke-width="0.1"/>
<path d="M28.24 11.04H29.088L30.464 7.016L31.84 11.04H32.696L34.64 5.4H33.608L32.272 9.552L30.896 5.384H30.064L28.688 9.552L27.352 5.4H26.288L28.24 11.04ZM36.1912 11.088C36.8392 11.088 37.2792 10.816 37.5672 10.472V11H38.5112V8.496C38.5112 7.944 38.3672 7.496 38.0552 7.192C37.7592 6.888 37.2872 6.72 36.6552 6.72C35.9832 6.72 35.5272 6.856 35.0632 7.064L35.3192 7.824C35.7032 7.664 36.0552 7.56 36.5272 7.56C37.2072 7.56 37.5752 7.88 37.5752 8.48V8.584C37.2472 8.48 36.9112 8.408 36.4392 8.408C35.4072 8.408 34.6952 8.856 34.6952 9.768V9.784C34.6952 10.632 35.3992 11.088 36.1912 11.088ZM36.4632 10.384C35.9992 10.384 35.6392 10.152 35.6392 9.744V9.728C35.6392 9.288 36.0072 9.024 36.6312 9.024C37.0152 9.024 37.3432 9.096 37.5912 9.192V9.48C37.5912 10.016 37.1032 10.384 36.4632 10.384ZM39.6705 11H40.6385V9.792L41.2385 9.168L42.4865 11H43.6225L41.8865 8.496L43.5665 6.776H42.3905L40.6385 8.648V5.16H39.6705V11ZM45.4646 11.088C46.1126 11.088 46.5526 10.816 46.8406 10.472V11H47.7846V8.496C47.7846 7.944 47.6406 7.496 47.3286 7.192C47.0326 6.888 46.5606 6.72 45.9286 6.72C45.2566 6.72 44.8006 6.856 44.3366 7.064L44.5926 7.824C44.9766 7.664 45.3286 7.56 45.8006 7.56C46.4806 7.56 46.8486 7.88 46.8486 8.48V8.584C46.5206 8.48 46.1846 8.408 45.7126 8.408C44.6806 8.408 43.9686 8.856 43.9686 9.768V9.784C43.9686 10.632 44.6726 11.088 45.4646 11.088ZM45.7366 10.384C45.2726 10.384 44.9126 10.152 44.9126 9.744V9.728C44.9126 9.288 45.2806 9.024 45.9046 9.024C46.2886 9.024 46.6166 9.096 46.8646 9.192V9.48C46.8646 10.016 46.3766 10.384 45.7366 10.384ZM53.4144 11.08C54.5904 11.08 55.4144 10.456 55.4144 9.408V9.392C55.4144 8.464 54.8064 8.04 53.6224 7.752C52.5424 7.496 52.2864 7.304 52.2864 6.872V6.856C52.2864 6.488 52.6224 6.192 53.1984 6.192C53.7104 6.192 54.2144 6.392 54.7184 6.768L55.2464 6.024C54.6784 5.568 54.0304 5.32 53.2144 5.32C52.1024 5.32 51.3024 5.984 51.3024 6.944V6.96C51.3024 7.992 51.9744 8.344 53.1664 8.632C54.2064 8.872 54.4304 9.088 54.4304 9.488V9.504C54.4304 9.92 54.0464 10.208 53.4384 10.208C52.7504 10.208 52.2064 9.944 51.6704 9.48L51.0784 10.184C51.7504 10.784 52.5584 11.08 53.4144 11.08ZM58.3956 11.096C59.1716 11.096 59.7236 10.784 60.1236 10.304L59.5556 9.8C59.2196 10.128 58.8836 10.304 58.4116 10.304C57.7876 10.304 57.2996 9.92 57.1956 9.232H60.2996C60.3076 9.136 60.3156 9.048 60.3156 8.96C60.3156 7.744 59.6356 6.688 58.2916 6.688C57.0836 6.688 56.2276 7.68 56.2276 8.888V8.904C56.2276 10.208 57.1716 11.096 58.3956 11.096ZM57.1876 8.592C57.2756 7.936 57.6916 7.48 58.2836 7.48C58.9236 7.48 59.2916 7.968 59.3556 8.592H57.1876ZM61.2877 11H62.2557V8.616C62.2557 7.96 62.6477 7.568 63.2077 7.568C63.7837 7.568 64.1117 7.944 64.1117 8.6V11H65.0797V8.304C65.0797 7.328 64.5277 6.688 63.5757 6.688C62.9197 6.688 62.5277 7.032 62.2557 7.424V6.776H61.2877V11ZM67.6966 11.08C68.5766 11.08 69.2646 10.64 69.2646 9.752V9.736C69.2646 8.976 68.5686 8.696 67.9526 8.504C67.4566 8.344 67.0006 8.216 67.0006 7.904V7.888C67.0006 7.648 67.2166 7.472 67.5926 7.472C67.9446 7.472 68.3766 7.624 68.7846 7.872L69.1686 7.184C68.7206 6.888 68.1446 6.704 67.6166 6.704C66.7766 6.704 66.1126 7.192 66.1126 7.992V8.008C66.1126 8.816 66.8086 9.072 67.4326 9.248C67.9286 9.4 68.3766 9.512 68.3766 9.84V9.856C68.3766 10.136 68.1366 10.312 67.7206 10.312C67.2886 10.312 66.8006 10.136 66.3366 9.792L65.9046 10.448C66.4326 10.864 67.0966 11.08 67.6966 11.08ZM72.1924 11.096C72.9684 11.096 73.5204 10.784 73.9204 10.304L73.3524 9.8C73.0164 10.128 72.6804 10.304 72.2084 10.304C71.5844 10.304 71.0964 9.92 70.9924 9.232H74.0964C74.1044 9.136 74.1124 9.048 74.1124 8.96C74.1124 7.744 73.4324 6.688 72.0884 6.688C70.8804 6.688 70.0244 7.68 70.0244 8.888V8.904C70.0244 10.208 70.9684 11.096 72.1924 11.096ZM70.9844 8.592C71.0724 7.936 71.4884 7.48 72.0804 7.48C72.7204 7.48 73.0884 7.968 73.1524 8.592H70.9844ZM75.9086 6.24H76.8926V5.288H75.9086V6.24ZM74.3486 6.24H75.3326V5.288H74.3486V6.24ZM75.1406 11H76.1086V6.776H75.1406V11Z" fill="#7E650C"/>
<defs>
<linearGradient id="paint0_linear" x1="88.2836" y1="-1.07135e-06" x2="8.09118" y2="24.7943" gradientUnits="userSpaceOnUse">
<stop stop-color="#F5C722"/>
<stop offset="0.479167" stop-color="#FDF6DD"/>
<stop offset="1" stop-color="#F2B925"/>
</linearGradient>
</defs>
</svg>
